<mxfile host="65bd71144e">
    <diagram id="So_7OUq3uzR74_TrwX4D" name="ページ1">
        <mxGraphModel dx="1556" dy="785" grid="1" gridSize="10" guides="1" tooltips="1" connect="1" arrows="1" fold="1" page="1" pageScale="1" pageWidth="1169" pageHeight="827" math="0" shadow="0">
            <root>
                <mxCell id="0"/>
                <mxCell id="1" parent="0"/>
                <mxCell id="5" value="" style="shape=image;verticalLabelPosition=bottom;labelBackgroundColor=#ffffff;verticalAlign=top;aspect=fixed;imageAspect=0;image=data:image/png,iVBORw0KGgoAAAANSUhEUgAAANsAAADaCAYAAAAv3zflAAAAAXNSR0IArs4c6QAAAARnQU1BAACxjwv8YQUAAAAJcEhZcwAAFxEAABcRAcom8z8AAA/jSURBVHhe7dwLdJTlncdxurrHWCRA7vfL5EYmySQhkdwIIYRLCKBcohIkUgKEawCh4C04NiLQQjmibVWUWkCghdrqaQGFuhakQtFV1uNW12N32x4XLYUCsQoGyLPP/5137JAlFUN4monfzzn/M4nGc+Z9/f3e533fufQAAAAAAAAAAAAAAAAAAAAAAAAAAAAAAAAAAAAAAAAAAAAAAAAAAAAAAAAAgEtTSt2wZ8+eqKi+AbFRAQGxydFBMV1tonv0iIm+/vqYl3fvTtDPN8J+6kDXt2/fvtiGWdMLq0dVjps6aeL8iqKCRkdYkDshJMjtiAi5v6tNQkgfPUH3Vw4a2LRwVv29k6vH3T6irGTwqLKizCfWrAmxNwvoOrZv337Nxo1Ppjc13rO4ZuyY5wtcznec8THHkiPDjjvCQ07IJHXB8T63lMjwv2Y54o8XZmf+cVB+7oHSXNf3J44dM+W7K1dmrd60qade9b5mbyrwz6ODGDCvvm7s+KqRGypKCt4qyHJ+qoOrkiNClCM8WKVEhXkmsgtOVLj13BxhwUqXT7mS4lV2ikNlJsYezUl1HCzOdW2pKi/7pvveewv1dv6rvcmAeW63O/DuRfNHT6gavrPIldEi4U0I6WsFNyki1O9Gr3Ke565HCtgvNkoVZWf+fvzI4Y8vmF0//kePPRbNKod/ium1NSPGV43YVZjl/CQtOsIKaKIeK7RtQtxV51LP01u45MhQq3A5KY4TZQPyD82bNvXOI4cOJdqbD1x9u9atu65h5kxnVXnpwwMynWfS46KtFe1S4U0IDVLxwX1UXBcceV7y/No+b9/nLweQVL1iZycnqtK83DeHFA5YGt77OgoHM+bW1gZXj6pcqK/PjiTra59LlSxel08CLWGWv0nRK5/nGqmLjH4+8rwSw4JUTN9eKqr3DSo2KNBamX23xTvyt7LSJUeGv+mMj1k8ZlhpIqeUuOoKc3OTi7NdO7KTEs9KsdoGVAomK52cgulCqmEDi1VVeZmqLCvtMiPPZ3hpiVyTqX4xkbpovVVs38B2VzrP6XGwSouObMnrl3rk1tFVc5577rkoe5cAnU8fza8dVlo6JDMx4Q1nbLR1xPeGUx4TQj03SIpzstSCWfXq8UcfUZuf/qHatnmT2rppY5cZeT7P/Ohptf77j6rVyx9Ui+bMVjcPq1DOhFgV3jNAhd9w/UUHEc82hljFzEl2qLIb835TM+6miXp//Iu9a4DOdfTo0dA7am6bnZkY/751I8EOo4yEMy64typyZaj7vrlIvX74t+rcuXPq/HmZ811y5PmdPXNWvf/ee2qLLt+MOyZbBwrPKabnhs9F2xkeal3D6e1vLc3P3drU1JTx8svua+3dA3Se/fv3u+bW163NSU36yPemiGdVC9I/B6tpt9eowwcPqpaWz/SB33/85dgx9cbrr6mNT61XU267RWU64q3T4URru/6+wslIGQuzMv6nbvIkd9OSJSn27gE6z4s7d5YsnF2/Ic+Zety3bFI0WQXkrt3yZY3q4+ZmO8L+59Spk+qFX/5SzZ1Rp1xJCSo6sOfn2+ktnGyrKynx3JDCAW/eMWFsjf7PAuxdBHSOvbt3F+myre+fnvIX37LJ3Uf5uSg7S61Z8ZA6dfKkJ7l+quWzz9S+f3tJ1d4y3nq3iWyfZ+W2Tyf1JOvpFxf9SUVR4fpvL3fn6//sGns3AVduz65dhQtmzXiivbKV5OaotatWqhPHj3tS68eam09bN1PGVJRbLw1E65HTR2/ZpHzye1FO1h9vHTu6acuWLbx5GZ3ni8pWnOOyVrbuUDbxvx98oL7d9C2lr1H/30sDciopr9nl6n83uDD/NXlL1xOrVvW2dxVwZb5qZWttbbVOJ2dNneK5ftOrm3WH0l7dZOR0sn966unqUZXbG2bPKLd3FXBlvmplE389cULt2LZFjSwbqCJ6ff2iazfZZvldXsC/MaPfsZuGVTS++OyzYfbuAjruq1g28Yf//r361n13q3xnmoqTd5vo8RbOKp292pXkZr80f8aMiW+//fYN9i4DOuZyyyarQXciL34fPviqaqifbt0UiQz8+kVl874Wp8v4t6ohZT9tvOvObHuXAR1zOWWTu5HNfvw62z/y8x3bVVX5IJUU6bkb6d1+61GXUD44m+dM+1Nl2cCGvLw87k6i4y6nbKsfWq4++vBDdebMGXX69Cl1+pQeefTjaT59Wn38cbM6+JsDaumCefr6LF3F9L30pwRSoiP+lpee+kJVeVntKrc7bs2aB2PlkengrHLHPbxqVZx76dKYcePGhd05bVrQoV27AvWxr3u/Ta69snlvGsi7/O9ZvMi6g3dg36/Vz3b8RD37k23Woz+PrGjP/+yn6sfPbFbL7lqiBuX3t8rme7NExi5fqysp4bQu268XzJn5yNIFDWsXzp25junY3Dln1iOL58/53sxvTP7OyMGDFo+rGjHzgfvuvm3XrudyW1tbe9rR7H7aK5v3CC+nUWOGDrGubeZOr1M1425WE8eOsR79eSaN94y8Z7J69EiVl55mreZtVzbZH/JSgDM+RhW5Mlv0Keex0RXlH8oj07EZNaTs2Oihg48PLSn4QO/3/xiQ6Tw0bGDRnuGDip8aM3TwXdNqa6u2bt0abke0+2ivbL4jL/SmyodF7Q9odqfxbpv83Ha7fUcK5/1bpnNG9qf9/6FVzwVHROg5fbp+8qZhFb+aPmVy/eLFc+J1RLvPR56+qGzyu3zMJiqwpzUxfXp1q4nWI7f9L3Wt5juyH+RvZB8xnTPWHV+9X7371vulTLpwn5YX3PjWiLKS5VlpCWl2VP3f5axsDGNqvAXMSXGoQlfGH0rzsh+qvqnSacfVv32Zsn1+dNc7hGE6Y6wVzSdz8rP396ykBFWcm/XBzSOH3rtp0w/kXTz+/R0xX6Zs8u/ljp28n5BhOmOsO8A6V7458x7U5RP0ruREpU8p906puXVsXV1dLzu2/umLyiYXsPKtWnK9Jhe0+c5+qiTXpQb2z5a3MjFMh8aTH5eVJ8mV5Ety5nujSgonj/kZqR+OGFTyg5lTpiTYsfVPl3ODRL6PUe4eyUsASxY0qIfcy9TKpgfUigfuZ5gOjeRHciR5klxJviRnvvnz/uxKir9Q4Mp4ta6mpsiOrX/6R2WTc+pIfcTJT0+zvq3q5zt2WN/p8e7v/lP917vvqHff+R3DdGis/OgcSZ4kV5IvyZnkTXLnzaCsdPINaK6khPdvGz160oEDB/z3VLK9ssmjbLQs7bW3TFCvvvKKOn/hgucNhUAnklxJviRnni8CvvigLy8JZDni/3RHdXXjK3v3Ouzo+p/2yua9UyTvrHhwWaM69uc/27sG6HySL8mZ5M17x/vzg77OZW5a0rF50+q+t2fnznw7uv6nvbJ534hcmper1q3+jvXGXeBqkXxJziRvkjvJn2/Z5NvfFs6pf+qlF14otqPrf76obPKu/++uXNHtPs+GrkXyJTmTvF2qbJJPyank1Y6u/7mcsnXHT2qja5F8Sc4oG2XDVUbZKBsMoWyUDYZQNsoGQygbZYMhlI2ywRDKRtlgCGWjbDCEslE2GELZKBsMoWyUDYZQNsoGQygbZYMhlI2ywRDKRtlgCGWjbDCEslE2GELZKBsMoWyUDYZQNsoGQygbZYMhlI2ywRDKRtlgCGWjbDCEslE2GELZKBsMoWyUDYZQNsoGQygbZYMhlI2ywRDKRtlgCGWjbDCEslE2GELZKBsMoWyUDYZQNsoGQygbZYMhlI2ywRDKRtlgCGWjbDCEslE2GELZKBsMoWyUDYZQNsoGQygbZYMhlI2ywRDKRtlgCGWjbDCEslE2GELZKBsMoWyUDYZQNsoGQygbZYMhlI2ywRDKRtlgCGWjbDCEslE2GELZKBsMoWyUDYZQNsoGQygbZYMhlI2ywRDKRtlgCGWjbDCEslE2GELZKBsMoWyUDYZQNsoGQygbZYMhlI2ywRDKRtlgCGWjbDCEslE2GELZKBsMoWyUDYZQNsoGQygbZYMhlI2ywRDKRtlgCGWjbDCEslE2GELZKBsMoWyUDYZQNsoGQygbZYMhlI2ywRDKRtlgCGWjbDCEslE2GELZKBsMoWyUDYZQNsoGQygbZYMhlI2ywRDKRtlgCGWjbDCEslE2GELZKBsMoWz655LcHLV21UrKhqtK8iU5k7x127Lt3b27aOHs+vXtla0oO8s64pw6edLeLUDnk3xJziRv7ZVNcip5taPrf17cubNEb8SGPGfqcd+yJYQGqcSwYJWdnKiWL2tUHzc327sF6HySL8mZ5E1yJ/nzLZvkU3IqebWj63/279/vmltftzYnNekj37JZG2ltcLCadnuNOnzwoGppabF3DdB5Wlo+s/IlOZO8Se4uyqHOpeRTcip5taPrf5qPHg2trbl1TmZi/PtJ9gZ6R44wccG99dKeqRqXLFavHz6szp07p86fP68uXNCjH+Vnhvmy8/fsnFP//tphK1+SM8mb5M43h5JLyafkVPJqR9f/6APLtcNKS4dkJia84YyNVsmRYW1WN8+5c3FOlppd9w21bs1qtXHDk+rHz2xW2zZtVFsZpgOzbfMmtfnpH6rHH31ELZhVb+VLSiV58+ZPRvKYHhOlMhLi3pCcSl7t6Pqnwtzc5OJs147spMSzsqFtjyzWObReyhNCg5VLn1NXFA1Qo4YMViMHD1KVZaUM86WnqrxMDRtYrAqynKpfbJSdL891mm/uHBEhqn9aytlB+f13lBUWJtuR9V9za2uDq0dVLtQbfsR3ZfOO/C53h2L6Bqq4oD7WP0uNjlApUeEM07HR+ZGsScHigvt8fvfbN3dStmT9t4ML8o/Mmjpl4YoVK4LtyPqvXevWXdcwc6azqrz04QGZzjPpcdHWkabtxnt3gOwY2UEMcyUTr8f3Zoh35HfJX7pe8QZkOT+dUFX58GPr1jnfa229zo6s/6ufPLFy/MgRuwuznJ+k6SOPQxfLWsovsTMYpjOmba6svOmR/EkOJY+SSzui3Yfb7Q68e9H80ROqhu8scmW0yHIvR5i2dykZ5qqMzpnkTXIn+ZMcSh7dDQ2BdkS7F6VUwLz6urHjq0ZuqCgpeEtfx32a5YhXyfpC1REerHdEmGf0+TbDXNHYWZJcSb4kZ5I3yZ3kT3IoebSj2T1t3779mo0bn0xvarxncc3YMc8XuJzvOONjjukL2uN6qT8ho49CDHNF482S5EryJTmTvEnuJH+SQzuS3d++fftiG2ZNL6weVTlu6qSJ8yuKChodYUHuhJAgtyMi5H6GuZKxcqTzJLmSfEnOJG+SOzuCX02tra29fvWLX0RH9g2IiwwIiEuK6hvLMFcykiPJk+RK8mVHDQAAAAAAAAAAAAAAAAAAAAAAAAAAAAAAAAAAAAAAAAAAAAAAAAAAAAAAAAAu0qPH/wHuZytPzU9dPAAAAABJRU5ErkJggg==;" parent="1" vertex="1">
                    <mxGeometry x="40" y="40" width="40.18" height="40" as="geometry"/>
                </mxCell>
                <mxCell id="7" value="backend" style="text;html=1;strokeColor=none;fillColor=none;align=left;verticalAlign=middle;whiteSpace=wrap;rounded=0;fontFamily=Noto Sans JP;fontSource=https%3A%2F%2Ffonts.googleapis.com%2Fcss%3Ffamily%3DNoto%2BSans%2BJP;fontSize=18;fontColor=#FFFFFF;" parent="1" vertex="1">
                    <mxGeometry x="90" y="40" width="109.82" height="40" as="geometry"/>
                </mxCell>
                <mxCell id="14" value="" style="shape=image;verticalLabelPosition=bottom;labelBackgroundColor=#ffffff;verticalAlign=top;aspect=fixed;imageAspect=0;image=data:image/png,iVBORw0KGgoAAAANSUhEUgAAANsAAADaCAYAAAAv3zflAAAAAXNSR0IArs4c6QAAAARnQU1BAACxjwv8YQUAAAAJcEhZcwAAFxEAABcRAcom8z8AAA/jSURBVHhe7dwLdJTlncdxurrHWCRA7vfL5EYmySQhkdwIIYRLCKBcohIkUgKEawCh4C04NiLQQjmibVWUWkCghdrqaQGFuhakQtFV1uNW12N32x4XLYUCsQoGyLPP/5137JAlFUN4monfzzn/M4nGc+Z9/f3e533fufQAAAAAAAAAAAAAAAAAAAAAAAAAAAAAAAAAAAAAAAAAAAAAAAAAAAAAAAAAgEtTSt2wZ8+eqKi+AbFRAQGxydFBMV1tonv0iIm+/vqYl3fvTtDPN8J+6kDXt2/fvtiGWdMLq0dVjps6aeL8iqKCRkdYkDshJMjtiAi5v6tNQkgfPUH3Vw4a2LRwVv29k6vH3T6irGTwqLKizCfWrAmxNwvoOrZv337Nxo1Ppjc13rO4ZuyY5wtcznec8THHkiPDjjvCQ07IJHXB8T63lMjwv2Y54o8XZmf+cVB+7oHSXNf3J44dM+W7K1dmrd60qade9b5mbyrwz6ODGDCvvm7s+KqRGypKCt4qyHJ+qoOrkiNClCM8WKVEhXkmsgtOVLj13BxhwUqXT7mS4lV2ikNlJsYezUl1HCzOdW2pKi/7pvveewv1dv6rvcmAeW63O/DuRfNHT6gavrPIldEi4U0I6WsFNyki1O9Gr3Ke565HCtgvNkoVZWf+fvzI4Y8vmF0//kePPRbNKod/ium1NSPGV43YVZjl/CQtOsIKaKIeK7RtQtxV51LP01u45MhQq3A5KY4TZQPyD82bNvXOI4cOJdqbD1x9u9atu65h5kxnVXnpwwMynWfS46KtFe1S4U0IDVLxwX1UXBcceV7y/No+b9/nLweQVL1iZycnqtK83DeHFA5YGt77OgoHM+bW1gZXj6pcqK/PjiTra59LlSxel08CLWGWv0nRK5/nGqmLjH4+8rwSw4JUTN9eKqr3DSo2KNBamX23xTvyt7LSJUeGv+mMj1k8ZlhpIqeUuOoKc3OTi7NdO7KTEs9KsdoGVAomK52cgulCqmEDi1VVeZmqLCvtMiPPZ3hpiVyTqX4xkbpovVVs38B2VzrP6XGwSouObMnrl3rk1tFVc5577rkoe5cAnU8fza8dVlo6JDMx4Q1nbLR1xPeGUx4TQj03SIpzstSCWfXq8UcfUZuf/qHatnmT2rppY5cZeT7P/Ohptf77j6rVyx9Ui+bMVjcPq1DOhFgV3jNAhd9w/UUHEc82hljFzEl2qLIb835TM+6miXp//Iu9a4DOdfTo0dA7am6bnZkY/751I8EOo4yEMy64typyZaj7vrlIvX74t+rcuXPq/HmZ811y5PmdPXNWvf/ee2qLLt+MOyZbBwrPKabnhs9F2xkeal3D6e1vLc3P3drU1JTx8svua+3dA3Se/fv3u+bW163NSU36yPemiGdVC9I/B6tpt9eowwcPqpaWz/SB33/85dgx9cbrr6mNT61XU267RWU64q3T4URru/6+wslIGQuzMv6nbvIkd9OSJSn27gE6z4s7d5YsnF2/Ic+Zety3bFI0WQXkrt3yZY3q4+ZmO8L+59Spk+qFX/5SzZ1Rp1xJCSo6sOfn2+ktnGyrKynx3JDCAW/eMWFsjf7PAuxdBHSOvbt3F+myre+fnvIX37LJ3Uf5uSg7S61Z8ZA6dfKkJ7l+quWzz9S+f3tJ1d4y3nq3iWyfZ+W2Tyf1JOvpFxf9SUVR4fpvL3fn6//sGns3AVduz65dhQtmzXiivbKV5OaotatWqhPHj3tS68eam09bN1PGVJRbLw1E65HTR2/ZpHzye1FO1h9vHTu6acuWLbx5GZ3ni8pWnOOyVrbuUDbxvx98oL7d9C2lr1H/30sDciopr9nl6n83uDD/NXlL1xOrVvW2dxVwZb5qZWttbbVOJ2dNneK5ftOrm3WH0l7dZOR0sn966unqUZXbG2bPKLd3FXBlvmplE389cULt2LZFjSwbqCJ6ff2iazfZZvldXsC/MaPfsZuGVTS++OyzYfbuAjruq1g28Yf//r361n13q3xnmoqTd5vo8RbOKp292pXkZr80f8aMiW+//fYN9i4DOuZyyyarQXciL34fPviqaqifbt0UiQz8+kVl874Wp8v4t6ohZT9tvOvObHuXAR1zOWWTu5HNfvw62z/y8x3bVVX5IJUU6bkb6d1+61GXUD44m+dM+1Nl2cCGvLw87k6i4y6nbKsfWq4++vBDdebMGXX69Cl1+pQeefTjaT59Wn38cbM6+JsDaumCefr6LF3F9L30pwRSoiP+lpee+kJVeVntKrc7bs2aB2PlkengrHLHPbxqVZx76dKYcePGhd05bVrQoV27AvWxr3u/Ta69snlvGsi7/O9ZvMi6g3dg36/Vz3b8RD37k23Woz+PrGjP/+yn6sfPbFbL7lqiBuX3t8rme7NExi5fqysp4bQu268XzJn5yNIFDWsXzp25junY3Dln1iOL58/53sxvTP7OyMGDFo+rGjHzgfvuvm3XrudyW1tbe9rR7H7aK5v3CC+nUWOGDrGubeZOr1M1425WE8eOsR79eSaN94y8Z7J69EiVl55mreZtVzbZH/JSgDM+RhW5Mlv0Keex0RXlH8oj07EZNaTs2Oihg48PLSn4QO/3/xiQ6Tw0bGDRnuGDip8aM3TwXdNqa6u2bt0abke0+2ivbL4jL/SmyodF7Q9odqfxbpv83Ha7fUcK5/1bpnNG9qf9/6FVzwVHROg5fbp+8qZhFb+aPmVy/eLFc+J1RLvPR56+qGzyu3zMJiqwpzUxfXp1q4nWI7f9L3Wt5juyH+RvZB8xnTPWHV+9X7371vulTLpwn5YX3PjWiLKS5VlpCWl2VP3f5axsDGNqvAXMSXGoQlfGH0rzsh+qvqnSacfVv32Zsn1+dNc7hGE6Y6wVzSdz8rP396ykBFWcm/XBzSOH3rtp0w/kXTz+/R0xX6Zs8u/ljp28n5BhOmOsO8A6V7458x7U5RP0ruREpU8p906puXVsXV1dLzu2/umLyiYXsPKtWnK9Jhe0+c5+qiTXpQb2z5a3MjFMh8aTH5eVJ8mV5Ety5nujSgonj/kZqR+OGFTyg5lTpiTYsfVPl3ODRL6PUe4eyUsASxY0qIfcy9TKpgfUigfuZ5gOjeRHciR5klxJviRnvvnz/uxKir9Q4Mp4ta6mpsiOrX/6R2WTc+pIfcTJT0+zvq3q5zt2WN/p8e7v/lP917vvqHff+R3DdGis/OgcSZ4kV5IvyZnkTXLnzaCsdPINaK6khPdvGz160oEDB/z3VLK9ssmjbLQs7bW3TFCvvvKKOn/hgucNhUAnklxJviRnni8CvvigLy8JZDni/3RHdXXjK3v3Ouzo+p/2yua9UyTvrHhwWaM69uc/27sG6HySL8mZ5M17x/vzg77OZW5a0rF50+q+t2fnznw7uv6nvbJ534hcmper1q3+jvXGXeBqkXxJziRvkjvJn2/Z5NvfFs6pf+qlF14otqPrf76obPKu/++uXNHtPs+GrkXyJTmTvF2qbJJPyank1Y6u/7mcsnXHT2qja5F8Sc4oG2XDVUbZKBsMoWyUDYZQNsoGQygbZYMhlI2ywRDKRtlgCGWjbDCEslE2GELZKBsMoWyUDYZQNsoGQygbZYMhlI2ywRDKRtlgCGWjbDCEslE2GELZKBsMoWyUDYZQNsoGQygbZYMhlI2ywRDKRtlgCGWjbDCEslE2GELZKBsMoWyUDYZQNsoGQygbZYMhlI2ywRDKRtlgCGWjbDCEslE2GELZKBsMoWyUDYZQNsoGQygbZYMhlI2ywRDKRtlgCGWjbDCEslE2GELZKBsMoWyUDYZQNsoGQygbZYMhlI2ywRDKRtlgCGWjbDCEslE2GELZKBsMoWyUDYZQNsoGQygbZYMhlI2ywRDKRtlgCGWjbDCEslE2GELZKBsMoWyUDYZQNsoGQygbZYMhlI2ywRDKRtlgCGWjbDCEslE2GELZKBsMoWyUDYZQNsoGQygbZYMhlI2ywRDKRtlgCGWjbDCEslE2GELZKBsMoWyUDYZQNsoGQygbZYMhlI2ywRDKRtlgCGWjbDCEslE2GELZKBsMoWyUDYZQNsoGQygbZYMhlI2ywRDKRtlgCGWjbDCEslE2GELZKBsMoWyUDYZQNsoGQygbZYMhlI2ywRDKRtlgCGWjbDCEslE2GELZKBsMoWz655LcHLV21UrKhqtK8iU5k7x127Lt3b27aOHs+vXtla0oO8s64pw6edLeLUDnk3xJziRv7ZVNcip5taPrf17cubNEb8SGPGfqcd+yJYQGqcSwYJWdnKiWL2tUHzc327sF6HySL8mZ5E1yJ/nzLZvkU3IqebWj63/279/vmltftzYnNekj37JZG2ltcLCadnuNOnzwoGppabF3DdB5Wlo+s/IlOZO8Se4uyqHOpeRTcip5taPrf5qPHg2trbl1TmZi/PtJ9gZ6R44wccG99dKeqRqXLFavHz6szp07p86fP68uXNCjH+Vnhvmy8/fsnFP//tphK1+SM8mb5M43h5JLyafkVPJqR9f/6APLtcNKS4dkJia84YyNVsmRYW1WN8+5c3FOlppd9w21bs1qtXHDk+rHz2xW2zZtVFsZpgOzbfMmtfnpH6rHH31ELZhVb+VLSiV58+ZPRvKYHhOlMhLi3pCcSl7t6Pqnwtzc5OJs147spMSzsqFtjyzWObReyhNCg5VLn1NXFA1Qo4YMViMHD1KVZaUM86WnqrxMDRtYrAqynKpfbJSdL891mm/uHBEhqn9aytlB+f13lBUWJtuR9V9za2uDq0dVLtQbfsR3ZfOO/C53h2L6Bqq4oD7WP0uNjlApUeEM07HR+ZGsScHigvt8fvfbN3dStmT9t4ML8o/Mmjpl4YoVK4LtyPqvXevWXdcwc6azqrz04QGZzjPpcdHWkabtxnt3gOwY2UEMcyUTr8f3Zoh35HfJX7pe8QZkOT+dUFX58GPr1jnfa229zo6s/6ufPLFy/MgRuwuznJ+k6SOPQxfLWsovsTMYpjOmba6svOmR/EkOJY+SSzui3Yfb7Q68e9H80ROqhu8scmW0yHIvR5i2dykZ5qqMzpnkTXIn+ZMcSh7dDQ2BdkS7F6VUwLz6urHjq0ZuqCgpeEtfx32a5YhXyfpC1REerHdEmGf0+TbDXNHYWZJcSb4kZ5I3yZ3kT3IoebSj2T1t3779mo0bn0xvarxncc3YMc8XuJzvOONjjukL2uN6qT8ho49CDHNF482S5EryJTmTvEnuJH+SQzuS3d++fftiG2ZNL6weVTlu6qSJ8yuKChodYUHuhJAgtyMi5H6GuZKxcqTzJLmSfEnOJG+SOzuCX02tra29fvWLX0RH9g2IiwwIiEuK6hvLMFcykiPJk+RK8mVHDQAAAAAAAAAAAAAAAAAAAAAAAAAAAAAAAAAAAAAAAAAAAAAAAAAAAAAAAAAu0qPH/wHuZytPzU9dPAAAAABJRU5ErkJggg==;" parent="1" vertex="1">
                    <mxGeometry x="80.18" y="80" width="40.18" height="40" as="geometry"/>
                </mxCell>
                <mxCell id="15" value="tests" style="text;html=1;strokeColor=none;fillColor=none;align=left;verticalAlign=middle;whiteSpace=wrap;rounded=0;fontFamily=Noto Sans JP;fontSource=https%3A%2F%2Ffonts.googleapis.com%2Fcss%3Ffamily%3DNoto%2BSans%2BJP;fontSize=18;fontColor=#FFFFFF;" parent="1" vertex="1">
                    <mxGeometry x="129.82" y="280" width="290" height="40" as="geometry"/>
                </mxCell>
                <mxCell id="16" style="edgeStyle=orthogonalEdgeStyle;html=1;entryX=0;entryY=0.5;entryDx=0;entryDy=0;fontFamily=Noto Sans JP;fontSource=https%3A%2F%2Ffonts.googleapis.com%2Fcss%3Ffamily%3DNoto%2BSans%2BJP;fontSize=18;endArrow=none;endFill=0;rounded=0;strokeColor=#FFFFFF;" parent="1" target="14" edge="1">
                    <mxGeometry relative="1" as="geometry">
                        <mxPoint x="59.81999999999999" y="100" as="sourcePoint"/>
                        <mxPoint x="50.00000000000006" y="70" as="targetPoint"/>
                    </mxGeometry>
                </mxCell>
                <mxCell id="17" value="" style="shape=image;verticalLabelPosition=bottom;labelBackgroundColor=#ffffff;verticalAlign=top;aspect=fixed;imageAspect=0;image=data:image/png,iVBORw0KGgoAAAANSUhEUgAAANsAAADaCAYAAAAv3zflAAAAAXNSR0IArs4c6QAAAARnQU1BAACxjwv8YQUAAAAJcEhZcwAAFxEAABcRAcom8z8AAA/jSURBVHhe7dwLdJTlncdxurrHWCRA7vfL5EYmySQhkdwIIYRLCKBcohIkUgKEawCh4C04NiLQQjmibVWUWkCghdrqaQGFuhakQtFV1uNW12N32x4XLYUCsQoGyLPP/5137JAlFUN4monfzzn/M4nGc+Z9/f3e533fufQAAAAAAAAAAAAAAAAAAAAAAAAAAAAAAAAAAAAAAAAAAAAAAAAAAAAAAAAAgEtTSt2wZ8+eqKi+AbFRAQGxydFBMV1tonv0iIm+/vqYl3fvTtDPN8J+6kDXt2/fvtiGWdMLq0dVjps6aeL8iqKCRkdYkDshJMjtiAi5v6tNQkgfPUH3Vw4a2LRwVv29k6vH3T6irGTwqLKizCfWrAmxNwvoOrZv337Nxo1Ppjc13rO4ZuyY5wtcznec8THHkiPDjjvCQ07IJHXB8T63lMjwv2Y54o8XZmf+cVB+7oHSXNf3J44dM+W7K1dmrd60qade9b5mbyrwz6ODGDCvvm7s+KqRGypKCt4qyHJ+qoOrkiNClCM8WKVEhXkmsgtOVLj13BxhwUqXT7mS4lV2ikNlJsYezUl1HCzOdW2pKi/7pvveewv1dv6rvcmAeW63O/DuRfNHT6gavrPIldEi4U0I6WsFNyki1O9Gr3Ke565HCtgvNkoVZWf+fvzI4Y8vmF0//kePPRbNKod/ium1NSPGV43YVZjl/CQtOsIKaKIeK7RtQtxV51LP01u45MhQq3A5KY4TZQPyD82bNvXOI4cOJdqbD1x9u9atu65h5kxnVXnpwwMynWfS46KtFe1S4U0IDVLxwX1UXBcceV7y/No+b9/nLweQVL1iZycnqtK83DeHFA5YGt77OgoHM+bW1gZXj6pcqK/PjiTra59LlSxel08CLWGWv0nRK5/nGqmLjH4+8rwSw4JUTN9eKqr3DSo2KNBamX23xTvyt7LSJUeGv+mMj1k8ZlhpIqeUuOoKc3OTi7NdO7KTEs9KsdoGVAomK52cgulCqmEDi1VVeZmqLCvtMiPPZ3hpiVyTqX4xkbpovVVs38B2VzrP6XGwSouObMnrl3rk1tFVc5577rkoe5cAnU8fza8dVlo6JDMx4Q1nbLR1xPeGUx4TQj03SIpzstSCWfXq8UcfUZuf/qHatnmT2rppY5cZeT7P/Ohptf77j6rVyx9Ui+bMVjcPq1DOhFgV3jNAhd9w/UUHEc82hljFzEl2qLIb835TM+6miXp//Iu9a4DOdfTo0dA7am6bnZkY/751I8EOo4yEMy64typyZaj7vrlIvX74t+rcuXPq/HmZ811y5PmdPXNWvf/ee2qLLt+MOyZbBwrPKabnhs9F2xkeal3D6e1vLc3P3drU1JTx8svua+3dA3Se/fv3u+bW163NSU36yPemiGdVC9I/B6tpt9eowwcPqpaWz/SB33/85dgx9cbrr6mNT61XU267RWU64q3T4URru/6+wslIGQuzMv6nbvIkd9OSJSn27gE6z4s7d5YsnF2/Ic+Zety3bFI0WQXkrt3yZY3q4+ZmO8L+59Spk+qFX/5SzZ1Rp1xJCSo6sOfn2+ktnGyrKynx3JDCAW/eMWFsjf7PAuxdBHSOvbt3F+myre+fnvIX37LJ3Uf5uSg7S61Z8ZA6dfKkJ7l+quWzz9S+f3tJ1d4y3nq3iWyfZ+W2Tyf1JOvpFxf9SUVR4fpvL3fn6//sGns3AVduz65dhQtmzXiivbKV5OaotatWqhPHj3tS68eam09bN1PGVJRbLw1E65HTR2/ZpHzye1FO1h9vHTu6acuWLbx5GZ3ni8pWnOOyVrbuUDbxvx98oL7d9C2lr1H/30sDciopr9nl6n83uDD/NXlL1xOrVvW2dxVwZb5qZWttbbVOJ2dNneK5ftOrm3WH0l7dZOR0sn966unqUZXbG2bPKLd3FXBlvmplE389cULt2LZFjSwbqCJ6ff2iazfZZvldXsC/MaPfsZuGVTS++OyzYfbuAjruq1g28Yf//r361n13q3xnmoqTd5vo8RbOKp292pXkZr80f8aMiW+//fYN9i4DOuZyyyarQXciL34fPviqaqifbt0UiQz8+kVl874Wp8v4t6ohZT9tvOvObHuXAR1zOWWTu5HNfvw62z/y8x3bVVX5IJUU6bkb6d1+61GXUD44m+dM+1Nl2cCGvLw87k6i4y6nbKsfWq4++vBDdebMGXX69Cl1+pQeefTjaT59Wn38cbM6+JsDaumCefr6LF3F9L30pwRSoiP+lpee+kJVeVntKrc7bs2aB2PlkengrHLHPbxqVZx76dKYcePGhd05bVrQoV27AvWxr3u/Ta69snlvGsi7/O9ZvMi6g3dg36/Vz3b8RD37k23Woz+PrGjP/+yn6sfPbFbL7lqiBuX3t8rme7NExi5fqysp4bQu268XzJn5yNIFDWsXzp25junY3Dln1iOL58/53sxvTP7OyMGDFo+rGjHzgfvuvm3XrudyW1tbe9rR7H7aK5v3CC+nUWOGDrGubeZOr1M1425WE8eOsR79eSaN94y8Z7J69EiVl55mreZtVzbZH/JSgDM+RhW5Mlv0Keex0RXlH8oj07EZNaTs2Oihg48PLSn4QO/3/xiQ6Tw0bGDRnuGDip8aM3TwXdNqa6u2bt0abke0+2ivbL4jL/SmyodF7Q9odqfxbpv83Ha7fUcK5/1bpnNG9qf9/6FVzwVHROg5fbp+8qZhFb+aPmVy/eLFc+J1RLvPR56+qGzyu3zMJiqwpzUxfXp1q4nWI7f9L3Wt5juyH+RvZB8xnTPWHV+9X7371vulTLpwn5YX3PjWiLKS5VlpCWl2VP3f5axsDGNqvAXMSXGoQlfGH0rzsh+qvqnSacfVv32Zsn1+dNc7hGE6Y6wVzSdz8rP396ykBFWcm/XBzSOH3rtp0w/kXTz+/R0xX6Zs8u/ljp28n5BhOmOsO8A6V7458x7U5RP0ruREpU8p906puXVsXV1dLzu2/umLyiYXsPKtWnK9Jhe0+c5+qiTXpQb2z5a3MjFMh8aTH5eVJ8mV5Ety5nujSgonj/kZqR+OGFTyg5lTpiTYsfVPl3ODRL6PUe4eyUsASxY0qIfcy9TKpgfUigfuZ5gOjeRHciR5klxJviRnvvnz/uxKir9Q4Mp4ta6mpsiOrX/6R2WTc+pIfcTJT0+zvq3q5zt2WN/p8e7v/lP917vvqHff+R3DdGis/OgcSZ4kV5IvyZnkTXLnzaCsdPINaK6khPdvGz160oEDB/z3VLK9ssmjbLQs7bW3TFCvvvKKOn/hgucNhUAnklxJviRnni8CvvigLy8JZDni/3RHdXXjK3v3Ouzo+p/2yua9UyTvrHhwWaM69uc/27sG6HySL8mZ5M17x/vzg77OZW5a0rF50+q+t2fnznw7uv6nvbJ534hcmper1q3+jvXGXeBqkXxJziRvkjvJn2/Z5NvfFs6pf+qlF14otqPrf76obPKu/++uXNHtPs+GrkXyJTmTvF2qbJJPyank1Y6u/7mcsnXHT2qja5F8Sc4oG2XDVUbZKBsMoWyUDYZQNsoGQygbZYMhlI2ywRDKRtlgCGWjbDCEslE2GELZKBsMoWyUDYZQNsoGQygbZYMhlI2ywRDKRtlgCGWjbDCEslE2GELZKBsMoWyUDYZQNsoGQygbZYMhlI2ywRDKRtlgCGWjbDCEslE2GELZKBsMoWyUDYZQNsoGQygbZYMhlI2ywRDKRtlgCGWjbDCEslE2GELZKBsMoWyUDYZQNsoGQygbZYMhlI2ywRDKRtlgCGWjbDCEslE2GELZKBsMoWyUDYZQNsoGQygbZYMhlI2ywRDKRtlgCGWjbDCEslE2GELZKBsMoWyUDYZQNsoGQygbZYMhlI2ywRDKRtlgCGWjbDCEslE2GELZKBsMoWyUDYZQNsoGQygbZYMhlI2ywRDKRtlgCGWjbDCEslE2GELZKBsMoWyUDYZQNsoGQygbZYMhlI2ywRDKRtlgCGWjbDCEslE2GELZKBsMoWyUDYZQNsoGQygbZYMhlI2ywRDKRtlgCGWjbDCEslE2GELZKBsMoWyUDYZQNsoGQygbZYMhlI2ywRDKRtlgCGWjbDCEslE2GELZKBsMoWyUDYZQNsoGQygbZYMhlI2ywRDKRtlgCGWjbDCEslE2GELZKBsMoWz655LcHLV21UrKhqtK8iU5k7x127Lt3b27aOHs+vXtla0oO8s64pw6edLeLUDnk3xJziRv7ZVNcip5taPrf17cubNEb8SGPGfqcd+yJYQGqcSwYJWdnKiWL2tUHzc327sF6HySL8mZ5E1yJ/nzLZvkU3IqebWj63/279/vmltftzYnNekj37JZG2ltcLCadnuNOnzwoGppabF3DdB5Wlo+s/IlOZO8Se4uyqHOpeRTcip5taPrf5qPHg2trbl1TmZi/PtJ9gZ6R44wccG99dKeqRqXLFavHz6szp07p86fP68uXNCjH+Vnhvmy8/fsnFP//tphK1+SM8mb5M43h5JLyafkVPJqR9f/6APLtcNKS4dkJia84YyNVsmRYW1WN8+5c3FOlppd9w21bs1qtXHDk+rHz2xW2zZtVFsZpgOzbfMmtfnpH6rHH31ELZhVb+VLSiV58+ZPRvKYHhOlMhLi3pCcSl7t6Pqnwtzc5OJs147spMSzsqFtjyzWObReyhNCg5VLn1NXFA1Qo4YMViMHD1KVZaUM86WnqrxMDRtYrAqynKpfbJSdL891mm/uHBEhqn9aytlB+f13lBUWJtuR9V9za2uDq0dVLtQbfsR3ZfOO/C53h2L6Bqq4oD7WP0uNjlApUeEM07HR+ZGsScHigvt8fvfbN3dStmT9t4ML8o/Mmjpl4YoVK4LtyPqvXevWXdcwc6azqrz04QGZzjPpcdHWkabtxnt3gOwY2UEMcyUTr8f3Zoh35HfJX7pe8QZkOT+dUFX58GPr1jnfa229zo6s/6ufPLFy/MgRuwuznJ+k6SOPQxfLWsovsTMYpjOmba6svOmR/EkOJY+SSzui3Yfb7Q68e9H80ROqhu8scmW0yHIvR5i2dykZ5qqMzpnkTXIn+ZMcSh7dDQ2BdkS7F6VUwLz6urHjq0ZuqCgpeEtfx32a5YhXyfpC1REerHdEmGf0+TbDXNHYWZJcSb4kZ5I3yZ3kT3IoebSj2T1t3779mo0bn0xvarxncc3YMc8XuJzvOONjjukL2uN6qT8ho49CDHNF482S5EryJTmTvEnuJH+SQzuS3d++fftiG2ZNL6weVTlu6qSJ8yuKChodYUHuhJAgtyMi5H6GuZKxcqTzJLmSfEnOJG+SOzuCX02tra29fvWLX0RH9g2IiwwIiEuK6hvLMFcykiPJk+RK8mVHDQAAAAAAAAAAAAAAAAAAAAAAAAAAAAAAAAAAAAAAAAAAAAAAAAAAAAAAAAAu0qPH/wHuZytPzU9dPAAAAABJRU5ErkJggg==;" parent="1" vertex="1">
                    <mxGeometry x="80.18" y="280" width="40.18" height="40" as="geometry"/>
                </mxCell>
                <mxCell id="18" value="src" style="text;html=1;strokeColor=none;fillColor=none;align=left;verticalAlign=middle;whiteSpace=wrap;rounded=0;fontFamily=Noto Sans JP;fontSource=https%3A%2F%2Ffonts.googleapis.com%2Fcss%3Ffamily%3DNoto%2BSans%2BJP;fontSize=18;fontColor=#FFFFFF;" parent="1" vertex="1">
                    <mxGeometry x="129.82" y="80" width="290" height="40" as="geometry"/>
                </mxCell>
                <mxCell id="19" style="edgeStyle=orthogonalEdgeStyle;html=1;entryX=0;entryY=0.5;entryDx=0;entryDy=0;fontFamily=Noto Sans JP;fontSource=https%3A%2F%2Ffonts.googleapis.com%2Fcss%3Ffamily%3DNoto%2BSans%2BJP;fontSize=18;endArrow=none;endFill=0;rounded=0;strokeColor=#FFFFFF;" parent="1" target="17" edge="1">
                    <mxGeometry relative="1" as="geometry">
                        <mxPoint x="59.81999999999999" y="300" as="sourcePoint"/>
                        <mxPoint x="90.18000000000012" y="109.99999999999989" as="targetPoint"/>
                    </mxGeometry>
                </mxCell>
                <mxCell id="20" value="AaaSubSystem.sln" style="text;html=1;strokeColor=none;fillColor=none;align=left;verticalAlign=middle;whiteSpace=wrap;rounded=0;fontFamily=Noto Sans JP;fontSource=https%3A%2F%2Ffonts.googleapis.com%2Fcss%3Ffamily%3DNoto%2BSans%2BJP;fontSize=18;fontColor=#FFFFFF;" parent="1" vertex="1">
                    <mxGeometry x="129.82" y="400" width="290" height="40" as="geometry"/>
                </mxCell>
                <mxCell id="21" style="edgeStyle=orthogonalEdgeStyle;html=1;fontFamily=Noto Sans JP;fontSource=https%3A%2F%2Ffonts.googleapis.com%2Fcss%3Ffamily%3DNoto%2BSans%2BJP;fontSize=18;endArrow=none;endFill=0;rounded=0;strokeColor=#FFFFFF;exitX=0.5;exitY=1;exitDx=0;exitDy=0;entryX=0;entryY=0.5;entryDx=0;entryDy=0;" parent="1" source="5" target="22" edge="1">
                    <mxGeometry relative="1" as="geometry">
                        <mxPoint x="70.0900000000002" y="90" as="sourcePoint"/>
                        <mxPoint x="29.819999999999993" y="200" as="targetPoint"/>
                    </mxGeometry>
                </mxCell>
                <mxCell id="22" value="" style="shape=image;verticalLabelPosition=bottom;labelBackgroundColor=#ffffff;verticalAlign=top;aspect=fixed;imageAspect=0;image=data:image/png,iVBORw0KGgoAAAANSUhEUgAAANoAAADbCAYAAAALQY9+AAAAAXNSR0IArs4c6QAAAARnQU1BAACxjwv8YQUAAAAJcEhZcwAAFxEAABcRAcom8z8AABadSURBVHhe7Z0JXNVV2setqalMS4XLvi8iKqAomqCi4oKAAuLuOLn0qqSomU6bjjW+jdWU2kzaFCWoLWZaaTX1ttjikqO45S6iILuAyi6gPO95/vyvHbdE5Fyu8Pt++nWxBD73PM/3nvPfmwEAAAAAAAAAAAAAAAAAAAAAAAAAAAAAAAAAAAAAAAAAGoRNmzY5zZwyJSSsb88xPu4uU1wNFrFabAxIA8ZZr0FwQJdpI4aE/Sk8JLj/1AljPInofr104E7g8REjWjw7d26nKRPGz4kJH/xFr67+xzu4OBa6GdqUullZlLpbWyINGFdRB37t7tehZGCvoFO9unb+sn/gIwtjJ00KX/Tcc84/JPwA4cydDWvWOMSEhk4K6uS3vpuP92H/dp7Fvh6u5O1oR562VjWxQxo0eg183V1I1Ic6uDqVeDvZJ3f19toSOXDAm0/PmRMhZrd79ZICc0IU5q43Fy92GR05ZHafgC7bOro6awV1MbQhMYuR+AQldxsDYkbhuriKuInaiFmO2jnYUg8/n9Lwvn0+HRE1ZOTCefPs9PICc+GjxET7cdGRcYF+vvt93Jyr2tpZawU05nqFRho2v9VGRLx62Bqorb0NtXd1KA/o2G7H6OghcfuP73fQSwzMgeHhoSOCOnfa4ePmUs2SceEg2J0XbQVibUHtnR2q+3bvunfSn8c8tWXLFie9zKChSEpKund1fLxHv0e6vdXBxanaU5/J5OLxnx1aP0TWLR4gq+b3IWYQG1EL+4dbkLNl62vqxctJD7Hs7+zlTr27+R8YEx05NSokxEIvOWgI4pcts549PXZacID/bk0yfc0vS2bcDuDiIeYRdxFjbYz1kWvGr15iGenlaFfl7eSw2cPeJiY4uNk9etmBqYmdPNl7VGRYYqCfT6GxcMaCcfhTk1+HhYXSogXP0fKlS2j5sqVIA+ZfS16lF+Y/QxPHjKLATj7k2OZhsn2o+eUPQ2PtjDtLXCzblLhZWW5yt7WItLW1ba6XHpiS4IDOXYP8fX/q3Na9pjj6p6H2SSnW+14OthQ1aAC9l7CScnNyCJgH2VlZ9M1XX9ILzz5DocG9hGDW5Ni6pbaU5NnOKJsxoq4X3K0N/3G1s4zwsrBoqZcfmIq2TrZBYnlxgI+TyYVxsmhFDq1a0pD+fWlNQgJlZ2bqJQbmQnFxMSUfO0prVr5DIyLCxMzVmuwefvCKOhrjIeJmY1nsam340s1gGCZK/4eaDgDKEbW6K7Rv7zCx3Ei++jgZ7/zgDe7pkydSWmpqTWWBWXJGrDQ+SEyk4WJ5zysR6wfv1/Y+ystIFo3/zDObm5Xhcxcri6HtDYYWeisAlYga3TU+JmZYOye7a0SzF7MZF2xu3HQqKiysqSgwKdXV1VRWVkolYuaqrKjQ/+v1yc3OprWrV1HM4EHazOYglpEsm1zTy7G2LOdlpIdYRmKbzUT07t5lgIed9RE+C0QuhlG0eTNnaIUGpuXixYuUkpxMX3/5OW1Yt5b+u30bnTt7Vv+/1ydHbLd9sCpBm9l4W82mZfMramqMp23NMlJ8/YWbrVV0M+yNVI9d65aBrlaGg9pBaqkYRtGenPE4FZ4/r5cSmILioiL64dtv6X//Op8mjR1No6OH0qxpUynh7bfENtkx/W9dn5zsLHo/YSUNGzxQW0baCtluvIw0XHCzMWx0tbaMsMAOErU4GVoHiQE/BNHMA57Jdu/cSbETHqV2jnYkVhvExzfFUo+Cu/pT/PI36GxBvrasvBG844pntmFiGckzG29vs3RyfY0R22yl4v99ybK1b9/sj3pbgPrGzdbQE6KZD1mZGfTOmyuot5Cq1R+aaTXgY5mt7rlb2xMcO3ECbd/6M5WXlenfcX14GcmHZHhmY9n458j1NcbTRsxsYhkpZrZNLnYWQ7t0aYaz/lUA0cyLQwcP0AvPPU3dfTuQ3UMPXt6hwfXgk4ZHDo2gj9d+UKuaGGWLDh2gHRO15Z8npLtmGSmi7Y20MXwmpBuMZaQCIJp5cViI9rf5z1KPTh21mexK0axodNRQ2vDRh1RUy5pkiWVkjWwDLx8b/Z1lZLG7leFzVzvriIXNmt2ttwioDyCaeXHk8CF6ceECCuzse41ovK02dlgUfbp+3S0dcuGZjQ9qs2z886xEXYVUV8xsUkrauzp9FhwQECG2A+/T2wTcLhDNvFAhGsM7SFi2qEH9tZ9p36rmzH9ZNqN83k725T38fDfOeuyxQevWrcNB7foAopkXqkRjMtPTddkGaMtI/pksl1x3Y/zbeRbFDA7d+Ozs2eHiW+/S2wXUFYhmXqgUjeGZbfW7xpmtZm8kb7MZZzYWj//c3smeAv06lg4PD13/5IzY8NzcXMxstwNEMy9Ui8YYZYscGHL5OJvx9xjDl9jw72PZYsIGffLUrFl94uLisM1WVyCaeWEK0RheRq5+J16b2RzFMpIPJcj1N14ALLbXqFvHdtlDBoQsGzcy2l9vG3CrQDTzwlSiMVkZ6ZQY/zYNHRDCF4eSTcsHrlhGcvi4m5eD7aUefj7HYyIGTxffhntG1gWIZl6YUjSGZ7ZVYmaLFLI5W7bSdpLIx9l4ZuPe8PVwrR4c3Dtxw9q1HRcuXIhjbLcKRDMvbibauJho+mzDx/UmGpOZfppWiZktSmyzsWRXLyP5Eiq+0r7fIwFJ82bPnPLqqwst9fYBtQWimReHDx3U7s3So5PPDUXb+Ml6Ki0p0b+jfsjKyKAVy5ZScIA/OYtZjbfPjLv+WT7+OqiTb/7YYUPjZ82a5qW3D6gtEM28uNGMxnsGeduJj4GtSXiXzp87p39H/cBXA+zdnUTzZk6ngA7ttCWk8Xcbhevi3ba6X2D3byMG9cNOkVsFopkXJ0+coKUvv0S9xcyinVRs2VqrBzc9zyz+Xp70zJzZlHz8969LqwslJcX0yccfaadqseS8N1LuiQ4ujuTj5ryvk5d7oN4+oLZANPMiPy+PPlyVSAOCepDhgT9qyziuB88qLJpj64dpUK8g+ve//klHxDIzJztbfM8ZLXk3yZncXMo7c4bKy8v133Ytx44eoamPjtfuF8MnIMs9wVfhu1pZHuWe0dsH1BaIZl5crKqibT/9SDFhoWR5/73aEs5YE5aNDzB72dtSSI/uNC9uBsWvWE7vJyZoeS9x5e8mIf5tbdnJP/9sQYH+G6+Eb5cwZ3qsVnue1eSegGi3AUQzP9JOnaK/zI7j++drS0bjtpIxTm1aiZntIW0ZGd4vmKIHD9QSFTrgdzOkfz+KHNifJo8bQ/FvrqDTqaf03/gbfH+YuTNnXFc07hHRK0cgWh2AaOYHN/unH6+jUZER2izGdyGWa2NcRt5qWFieEW1bNKdBvXvSJ+s+umbvJdeaaw7R6hmIZn7wHsDMjHR6bfGL1MnTXasDi6I9nkmvD8vG4vDtwHl2q224rq3vvZv8PNzo+WeepkO//nrF/UcgmiIgmvmyZ9cu+susmcS3a+cdI3ZiZrt6GXmrYUF5byY/aDJ24qP04/ffQTRTANHMl6qqKtq9a6e204O3x/iANZ8mxcfUnMRMxsvAWw3vXGFpfd1d6eknZgmZd0I0UwDRzJuKigram5REr//jZRoTFUnezvaaKJoIokYsXa0j/r6dkKf1PXdTz85+2jmOZ/Pz9d9UA0RTBES7M+CTfzeuX08L/jJXOw1rSEhf6h/0CPXp3pX6dOtKfcXrzcK3sAvu1oUi+vWhRQvm05GDB/Sf/hsQTREQ7c6BDzTzRZu7dvxCG9aupRWvL6XXXvq7ttNkycuLb5pXXlyk/X3eo3kqJYWqKiv1n/wbEE0REO3Og7ep+IDz6dRUSjmRrN2jn0/duln4tC3++793niREUwREAzIQTREQDchANEVANCAD0RQB0YAMRFMERAMyEE0REA3IQDRFQDQgA9EUAdGADERTBEQDMhBNERANyEA0RUA0IAPRFAHRgAxEUwREAzIQTREQDchANEVANCAD0RQB0YAMRFMERAMyEE0REA3IQDRFQDQgA9EUAdGADERTBEQDMhBNERANyEA0RUA0IAPRFAHRgAxEUwREAzIQTREQDchANEVANCAD0RRhCtFKqi7RwfPltOVMCf2UW5Ofkcvh8fgxp4S2ifFJKa6giku/Pa/M1EA0RagUjdulVEi2M7+U3jiWR0/vzaKn9PDXSE20MdmTRfP3ZdO7Jwpo79kybdwaAoimCJWiVYlP5n2iaf55NI+m7EinUVtSaexW5EYZtzWNJm4/Ta8dPiNmtgv6KJoWiKYIlaJduFhNmzIKacbODBr+0ymK+vEkjfj5FHKDxIgxCvn2BP2P+FDaU1Cmj6JpgWiKUClahRDtq6wieiKpRrShQjRuJuTaDBOJFgn9PoVm7cqgX8VKoCGAaIpQKRpv0x86X06vHzlDY8SycfDmFDGriYZCrgl/CA394SSNEUvIJWLpeLK4Qh9F0wLRFKFSNKa48iLtyCvRdob8dX82Pf9rDr0g8jfkcng8nhdjs+hANsUnF4jxKqXzldgZ0qhQLRpTdvESZZRVarv494glEYf3rCE14fHgnUaHxfjklFVRpVgKNNQOfoimCFOIZuRSdTVdEE3E4WNFSE14PFguHp+GBqIpwpSiAfMHoikCogEZiKYIiAZkIJoiIBqQgWiKgGhABqIpAqIBGYimCFOIxnut+Wz085UX6VwFoiKFYmz5eOXtAtEUYQrRcsuraHNOMX1w6iy9p+d9pF7y3smztEZkXeo52nbm9s8ogWiKUCnaJTGT5QjJ/pNZRM/vz6Gp/02/nGlIvWTqjnTtEqRY8fVLB3Npe16JtnKo66FviKYIlaLx2Q58BTFLNn5rmnaWOl+ThtRvRorwydoTt6fRW8fz6GhhufYhVxcgmiJUisbXo32WXkiPi09bvkwmGtejKclwkQg+818I98qhXNpdUEYX63g6F0RThOoZ7cfcYnpmb5Y2m4VtTqFIIRtSv+FLbELF2I7bmkr/Pp5Pxwsr6nzeJERThErRuNRpJRViY71AbEuc1j55x4olJF+yj9RfeExH/pxKT+zOoK+zirQ9kHUFoilCpWgMn52eXHyBNmWcp5Up+fTOiQLtBjRI/YXHNDGlgL7KKqT0sgrtcEpdgWiKUC2aET7Gc+ZCFaWXVmrJQOolxvHksS0VY3wbjmlANEWYSjQj3Ah8pIdfkduPcSzrC4imCFOLBswbiKYIiAZkIJoiIBqQgWiKgGhABqIpAqIBGYimCIgGZCCaIkwhGp+KlVlWSceKLtDRwqadI4Xl2mtqSeVtncGhCoimCNWi8cmtx4VgH5w6R/84nEuvHDrTpMOXsvDr28cLaEtuCRVV3v5B5voEoilCpWgsWbKQbFXKWZqdlEl/2ppGf95Wk0ebaMbrmbT9tBAul3bll1JRAz0L7XpANEWoFI2fJvN1ZhE9KSQb9XOqdpnMSOnyjqYYPvmXr2SI+CFFezwTXyWdLpbV5gJEU4RK0fh6tM8zCiluZwaNuOp6ND6TvymG3zs/oomvH5u84zQlnDhLpxroyTHXA6IpQqVofK8YXhq9eCBH+xQf+P0JGiIajB9P1FTD7z9880kxFik0fVeGNuPzzXXMBYimCJWiMfkXquirzEJasC9bu8fFDNFccSIzm2j4/fMTUPnrt5Lz6VSJ+cxmDERThGrReIdIXkUV7TtXRt/nFNH/ZdXkmyYansH4lZ8Zl1ZSqV2vZ05ANEWoFk2m/NIlKqqsuQchvzbF8HvnhzNW387VmQqBaIowpWjA/IFoioBoQAaiKQKiARmIpgiIBmQgmiIgGpCBaIqAaEAGoinCVKJpd2wS/2qKEf/cMUA0RZhCND5+tO8sH7Aupm+za/JdIw+/x2+yimmzeD18vlx7PtydAERThErR+JO8WDTYL3mltOxIHs3bk0lzd2dpmdfIw+/xSZGn9mTRiuN5tEOMAX/gmDsQTREqRasS6yZ+ssmSw3n02C/p2iUiY7bWZGwjD7/H0VvE65Y0mrA9jV4+lKtdXW3uQDRFqBSNL5PZmF5I03dmaI9timpCl8kY36N21cJ3KTTxlzTafqZEHxnzBaIpQqVofOEnn0DMF36yaHyJCF+L1ZQSJTL4+5PaEzl35pfqI2O+QDRFqBSN97jxcumNo3nEz+7i56NFX9WIjTk8g/Pzy/jWBUvFNuqJogv6yJgvEE0RKkVjSqouUVJBKb2dnK9dAPr3g7m0uImE3+/igzm0KqVA21bFzpAmjGrRmAtiasspr6SjReX067maHGjkMb5Hfp50rnjvvHf/TjieBtEUYQrRjHCj8T0em1Lq+ojbhgKiKcKUogHzB6IpAqIBGYimCIgGZCCaIiAakIFoioBoQAaiKQKiARmIpgiIBmQgmiIgGpCBaIqAaEAGoikCogEZiKYIiAZkIJoiIBqQgWiKgGhABqIpAqIBGYimCIgGZCCaIiAakIFoioBoQAaiKQKiARmIpgiIBmQgmiIgGpCBaIqAaEAGoikCogEZiKYIiAZkIJoiIBqQgWiKgGhABqIpAqIBGYimCIgGZCCaIiAakIFoioBoQAaiKQKiARmIpgiIBmQgmiIgGpCBaIqAaEAGoikCogEZiKYIiAZkIJoiIBqQgWiKgGhABqIpAqIBGYimCIgGZCCaIiAakIFoioBoQAaiKQKiARmIpgiIBmQgmiIgGpCBaIqAaEAGoikCogEZiKYIiAZkIJoiIBqQgWiKgGhABqIpAqIBGYimiJuJNm/mDCopLtbLABo7XGuuOUSrZ24m2ty46VRUWKiXATR2uNZcc4hWzzhaturlYmhzxNPW6opBdWj9ENm0eICmT55IaampehlAY4drzTXn2juID1u5J7hHnA1tjnHP6O0DaktbJ6cgL0e7A96OdlcMqpNFK22gh/TvS2sSEig7M1MvBWiscI251lxzrr2TxcNX9AT3iJeD3SHuGb19QG0J6dEjoKe/70+d27prg+lmbam9ulpZkKuhjRhYW4oaNIDeS1hJuTk5eklAYyM3N1erMdeaa8615x6Qe4J7pGdnvy3cM3r7gNoSO3my96jIsMRAP59CHlDj4BpjXKcPCwulRQueo+VLl9DyZUuRxhRR00UL5ms1lmtuDPcE9wb3yMih4au5Z/T2AbUlftky69nTY6cFB/jv9uSNXX1QjYNslI9fPcQaHWm8kWst1597gnuDe2TW49NiuWf09gG1JSkp6d7V8fEe/R7p9lYHF6dqTTZpoI2DzTtHrMUGslXz+5BGGK4t1/h6teee4N7gHlm5cqUn94zePuBWGR4eOiKoc6cdPm4u1dqufv4ku2rQkaYTrj2He8HHzbmae4N7RG8XUFc+Sky0HxcdGRfo57tfDGxVzTGTmsGGcE0ncs15JuNeENtm+7k3uEf0dgF1hYjuenPxYpfRkUNm9wnosq2jq7N23MTF0EZbo/MMd73CII0oLJioNdeca889wL3APcG9wT2itwu4XT788EPHYaGhkwP9/TZ08/E+4u/lWeLr4ULtHO20wddihzSq6HXlGnOtueZc+8DOvp9wL3BP6O0B6pPHR4xo8ezcuZ2mTBg/JyZ88Be9uvof7+DiWOhmaFMqPvFKxScf0ojCNeXaco251lxzrj33APeC3hZAFZs2bXKaOWVKSFjfnmN83F2muBosYrXYGJDGFL2uXGOuNdeca6+3AQAAAAAAAAAAAAAAAAAAAAAAAAAAAAAAAAAAAAAAAADAlDRr9v/lMcv594oauQAAAABJRU5ErkJggg==;" parent="1" vertex="1">
                    <mxGeometry x="80.18" y="400" width="39.82" height="40" as="geometry"/>
                </mxCell>
                <mxCell id="23" value="" style="shape=image;verticalLabelPosition=bottom;labelBackgroundColor=#ffffff;verticalAlign=top;aspect=fixed;imageAspect=0;image=data:image/png,iVBORw0KGgoAAAANSUhEUgAAANsAAADaCAYAAAAv3zflAAAAAXNSR0IArs4c6QAAAARnQU1BAACxjwv8YQUAAAAJcEhZcwAAFxEAABcRAcom8z8AAA/jSURBVHhe7dwLdJTlncdxurrHWCRA7vfL5EYmySQhkdwIIYRLCKBcohIkUgKEawCh4C04NiLQQjmibVWUWkCghdrqaQGFuhakQtFV1uNW12N32x4XLYUCsQoGyLPP/5137JAlFUN4monfzzn/M4nGc+Z9/f3e533fufQAAAAAAAAAAAAAAAAAAAAAAAAAAAAAAAAAAAAAAAAAAAAAAAAAAAAAAAAAgEtTSt2wZ8+eqKi+AbFRAQGxydFBMV1tonv0iIm+/vqYl3fvTtDPN8J+6kDXt2/fvtiGWdMLq0dVjps6aeL8iqKCRkdYkDshJMjtiAi5v6tNQkgfPUH3Vw4a2LRwVv29k6vH3T6irGTwqLKizCfWrAmxNwvoOrZv337Nxo1Ppjc13rO4ZuyY5wtcznec8THHkiPDjjvCQ07IJHXB8T63lMjwv2Y54o8XZmf+cVB+7oHSXNf3J44dM+W7K1dmrd60qade9b5mbyrwz6ODGDCvvm7s+KqRGypKCt4qyHJ+qoOrkiNClCM8WKVEhXkmsgtOVLj13BxhwUqXT7mS4lV2ikNlJsYezUl1HCzOdW2pKi/7pvveewv1dv6rvcmAeW63O/DuRfNHT6gavrPIldEi4U0I6WsFNyki1O9Gr3Ke565HCtgvNkoVZWf+fvzI4Y8vmF0//kePPRbNKod/ium1NSPGV43YVZjl/CQtOsIKaKIeK7RtQtxV51LP01u45MhQq3A5KY4TZQPyD82bNvXOI4cOJdqbD1x9u9atu65h5kxnVXnpwwMynWfS46KtFe1S4U0IDVLxwX1UXBcceV7y/No+b9/nLweQVL1iZycnqtK83DeHFA5YGt77OgoHM+bW1gZXj6pcqK/PjiTra59LlSxel08CLWGWv0nRK5/nGqmLjH4+8rwSw4JUTN9eKqr3DSo2KNBamX23xTvyt7LSJUeGv+mMj1k8ZlhpIqeUuOoKc3OTi7NdO7KTEs9KsdoGVAomK52cgulCqmEDi1VVeZmqLCvtMiPPZ3hpiVyTqX4xkbpovVVs38B2VzrP6XGwSouObMnrl3rk1tFVc5577rkoe5cAnU8fza8dVlo6JDMx4Q1nbLR1xPeGUx4TQj03SIpzstSCWfXq8UcfUZuf/qHatnmT2rppY5cZeT7P/Ohptf77j6rVyx9Ui+bMVjcPq1DOhFgV3jNAhd9w/UUHEc82hljFzEl2qLIb835TM+6miXp//Iu9a4DOdfTo0dA7am6bnZkY/751I8EOo4yEMy64typyZaj7vrlIvX74t+rcuXPq/HmZ811y5PmdPXNWvf/ee2qLLt+MOyZbBwrPKabnhs9F2xkeal3D6e1vLc3P3drU1JTx8svua+3dA3Se/fv3u+bW163NSU36yPemiGdVC9I/B6tpt9eowwcPqpaWz/SB33/85dgx9cbrr6mNT61XU267RWU64q3T4URru/6+wslIGQuzMv6nbvIkd9OSJSn27gE6z4s7d5YsnF2/Ic+Zety3bFI0WQXkrt3yZY3q4+ZmO8L+59Spk+qFX/5SzZ1Rp1xJCSo6sOfn2+ktnGyrKynx3JDCAW/eMWFsjf7PAuxdBHSOvbt3F+myre+fnvIX37LJ3Uf5uSg7S61Z8ZA6dfKkJ7l+quWzz9S+f3tJ1d4y3nq3iWyfZ+W2Tyf1JOvpFxf9SUVR4fpvL3fn6//sGns3AVduz65dhQtmzXiivbKV5OaotatWqhPHj3tS68eam09bN1PGVJRbLw1E65HTR2/ZpHzye1FO1h9vHTu6acuWLbx5GZ3ni8pWnOOyVrbuUDbxvx98oL7d9C2lr1H/30sDciopr9nl6n83uDD/NXlL1xOrVvW2dxVwZb5qZWttbbVOJ2dNneK5ftOrm3WH0l7dZOR0sn966unqUZXbG2bPKLd3FXBlvmplE389cULt2LZFjSwbqCJ6ff2iazfZZvldXsC/MaPfsZuGVTS++OyzYfbuAjruq1g28Yf//r361n13q3xnmoqTd5vo8RbOKp292pXkZr80f8aMiW+//fYN9i4DOuZyyyarQXciL34fPviqaqifbt0UiQz8+kVl874Wp8v4t6ohZT9tvOvObHuXAR1zOWWTu5HNfvw62z/y8x3bVVX5IJUU6bkb6d1+61GXUD44m+dM+1Nl2cCGvLw87k6i4y6nbKsfWq4++vBDdebMGXX69Cl1+pQeefTjaT59Wn38cbM6+JsDaumCefr6LF3F9L30pwRSoiP+lpee+kJVeVntKrc7bs2aB2PlkengrHLHPbxqVZx76dKYcePGhd05bVrQoV27AvWxr3u/Ta69snlvGsi7/O9ZvMi6g3dg36/Vz3b8RD37k23Woz+PrGjP/+yn6sfPbFbL7lqiBuX3t8rme7NExi5fqysp4bQu268XzJn5yNIFDWsXzp25junY3Dln1iOL58/53sxvTP7OyMGDFo+rGjHzgfvuvm3XrudyW1tbe9rR7H7aK5v3CC+nUWOGDrGubeZOr1M1425WE8eOsR79eSaN94y8Z7J69EiVl55mreZtVzbZH/JSgDM+RhW5Mlv0Keex0RXlH8oj07EZNaTs2Oihg48PLSn4QO/3/xiQ6Tw0bGDRnuGDip8aM3TwXdNqa6u2bt0abke0+2ivbL4jL/SmyodF7Q9odqfxbpv83Ha7fUcK5/1bpnNG9qf9/6FVzwVHROg5fbp+8qZhFb+aPmVy/eLFc+J1RLvPR56+qGzyu3zMJiqwpzUxfXp1q4nWI7f9L3Wt5juyH+RvZB8xnTPWHV+9X7371vulTLpwn5YX3PjWiLKS5VlpCWl2VP3f5axsDGNqvAXMSXGoQlfGH0rzsh+qvqnSacfVv32Zsn1+dNc7hGE6Y6wVzSdz8rP396ykBFWcm/XBzSOH3rtp0w/kXTz+/R0xX6Zs8u/ljp28n5BhOmOsO8A6V7458x7U5RP0ruREpU8p906puXVsXV1dLzu2/umLyiYXsPKtWnK9Jhe0+c5+qiTXpQb2z5a3MjFMh8aTH5eVJ8mV5Ety5nujSgonj/kZqR+OGFTyg5lTpiTYsfVPl3ODRL6PUe4eyUsASxY0qIfcy9TKpgfUigfuZ5gOjeRHciR5klxJviRnvvnz/uxKir9Q4Mp4ta6mpsiOrX/6R2WTc+pIfcTJT0+zvq3q5zt2WN/p8e7v/lP917vvqHff+R3DdGis/OgcSZ4kV5IvyZnkTXLnzaCsdPINaK6khPdvGz160oEDB/z3VLK9ssmjbLQs7bW3TFCvvvKKOn/hgucNhUAnklxJviRnni8CvvigLy8JZDni/3RHdXXjK3v3Ouzo+p/2yua9UyTvrHhwWaM69uc/27sG6HySL8mZ5M17x/vzg77OZW5a0rF50+q+t2fnznw7uv6nvbJ534hcmper1q3+jvXGXeBqkXxJziRvkjvJn2/Z5NvfFs6pf+qlF14otqPrf76obPKu/++uXNHtPs+GrkXyJTmTvF2qbJJPyank1Y6u/7mcsnXHT2qja5F8Sc4oG2XDVUbZKBsMoWyUDYZQNsoGQygbZYMhlI2ywRDKRtlgCGWjbDCEslE2GELZKBsMoWyUDYZQNsoGQygbZYMhlI2ywRDKRtlgCGWjbDCEslE2GELZKBsMoWyUDYZQNsoGQygbZYMhlI2ywRDKRtlgCGWjbDCEslE2GELZKBsMoWyUDYZQNsoGQygbZYMhlI2ywRDKRtlgCGWjbDCEslE2GELZKBsMoWyUDYZQNsoGQygbZYMhlI2ywRDKRtlgCGWjbDCEslE2GELZKBsMoWyUDYZQNsoGQygbZYMhlI2ywRDKRtlgCGWjbDCEslE2GELZKBsMoWyUDYZQNsoGQygbZYMhlI2ywRDKRtlgCGWjbDCEslE2GELZKBsMoWyUDYZQNsoGQygbZYMhlI2ywRDKRtlgCGWjbDCEslE2GELZKBsMoWyUDYZQNsoGQygbZYMhlI2ywRDKRtlgCGWjbDCEslE2GELZKBsMoWyUDYZQNsoGQygbZYMhlI2ywRDKRtlgCGWjbDCEslE2GELZKBsMoWyUDYZQNsoGQygbZYMhlI2ywRDKRtlgCGWjbDCEslE2GELZKBsMoWyUDYZQNsoGQygbZYMhlI2ywRDKRtlgCGWjbDCEslE2GELZKBsMoWz655LcHLV21UrKhqtK8iU5k7x127Lt3b27aOHs+vXtla0oO8s64pw6edLeLUDnk3xJziRv7ZVNcip5taPrf17cubNEb8SGPGfqcd+yJYQGqcSwYJWdnKiWL2tUHzc327sF6HySL8mZ5E1yJ/nzLZvkU3IqebWj63/279/vmltftzYnNekj37JZG2ltcLCadnuNOnzwoGppabF3DdB5Wlo+s/IlOZO8Se4uyqHOpeRTcip5taPrf5qPHg2trbl1TmZi/PtJ9gZ6R44wccG99dKeqRqXLFavHz6szp07p86fP68uXNCjH+Vnhvmy8/fsnFP//tphK1+SM8mb5M43h5JLyafkVPJqR9f/6APLtcNKS4dkJia84YyNVsmRYW1WN8+5c3FOlppd9w21bs1qtXHDk+rHz2xW2zZtVFsZpgOzbfMmtfnpH6rHH31ELZhVb+VLSiV58+ZPRvKYHhOlMhLi3pCcSl7t6Pqnwtzc5OJs147spMSzsqFtjyzWObReyhNCg5VLn1NXFA1Qo4YMViMHD1KVZaUM86WnqrxMDRtYrAqynKpfbJSdL891mm/uHBEhqn9aytlB+f13lBUWJtuR9V9za2uDq0dVLtQbfsR3ZfOO/C53h2L6Bqq4oD7WP0uNjlApUeEM07HR+ZGsScHigvt8fvfbN3dStmT9t4ML8o/Mmjpl4YoVK4LtyPqvXevWXdcwc6azqrz04QGZzjPpcdHWkabtxnt3gOwY2UEMcyUTr8f3Zoh35HfJX7pe8QZkOT+dUFX58GPr1jnfa229zo6s/6ufPLFy/MgRuwuznJ+k6SOPQxfLWsovsTMYpjOmba6svOmR/EkOJY+SSzui3Yfb7Q68e9H80ROqhu8scmW0yHIvR5i2dykZ5qqMzpnkTXIn+ZMcSh7dDQ2BdkS7F6VUwLz6urHjq0ZuqCgpeEtfx32a5YhXyfpC1REerHdEmGf0+TbDXNHYWZJcSb4kZ5I3yZ3kT3IoebSj2T1t3779mo0bn0xvarxncc3YMc8XuJzvOONjjukL2uN6qT8ho49CDHNF482S5EryJTmTvEnuJH+SQzuS3d++fftiG2ZNL6weVTlu6qSJ8yuKChodYUHuhJAgtyMi5H6GuZKxcqTzJLmSfEnOJG+SOzuCX02tra29fvWLX0RH9g2IiwwIiEuK6hvLMFcykiPJk+RK8mVHDQAAAAAAAAAAAAAAAAAAAAAAAAAAAAAAAAAAAAAAAAAAAAAAAAAAAAAAAAAu0qPH/wHuZytPzU9dPAAAAABJRU5ErkJggg==;" vertex="1" parent="1">
                    <mxGeometry x="120" y="120" width="40.18" height="40" as="geometry"/>
                </mxCell>
                <mxCell id="24" value="" style="shape=image;verticalLabelPosition=bottom;labelBackgroundColor=#ffffff;verticalAlign=top;aspect=fixed;imageAspect=0;image=data:image/png,iVBORw0KGgoAAAANSUhEUgAAANsAAADaCAYAAAAv3zflAAAAAXNSR0IArs4c6QAAAARnQU1BAACxjwv8YQUAAAAJcEhZcwAAFxEAABcRAcom8z8AAA/jSURBVHhe7dwLdJTlncdxurrHWCRA7vfL5EYmySQhkdwIIYRLCKBcohIkUgKEawCh4C04NiLQQjmibVWUWkCghdrqaQGFuhakQtFV1uNW12N32x4XLYUCsQoGyLPP/5137JAlFUN4monfzzn/M4nGc+Z9/f3e533fufQAAAAAAAAAAAAAAAAAAAAAAAAAAAAAAAAAAAAAAAAAAAAAAAAAAAAAAAAAgEtTSt2wZ8+eqKi+AbFRAQGxydFBMV1tonv0iIm+/vqYl3fvTtDPN8J+6kDXt2/fvtiGWdMLq0dVjps6aeL8iqKCRkdYkDshJMjtiAi5v6tNQkgfPUH3Vw4a2LRwVv29k6vH3T6irGTwqLKizCfWrAmxNwvoOrZv337Nxo1Ppjc13rO4ZuyY5wtcznec8THHkiPDjjvCQ07IJHXB8T63lMjwv2Y54o8XZmf+cVB+7oHSXNf3J44dM+W7K1dmrd60qade9b5mbyrwz6ODGDCvvm7s+KqRGypKCt4qyHJ+qoOrkiNClCM8WKVEhXkmsgtOVLj13BxhwUqXT7mS4lV2ikNlJsYezUl1HCzOdW2pKi/7pvveewv1dv6rvcmAeW63O/DuRfNHT6gavrPIldEi4U0I6WsFNyki1O9Gr3Ke565HCtgvNkoVZWf+fvzI4Y8vmF0//kePPRbNKod/ium1NSPGV43YVZjl/CQtOsIKaKIeK7RtQtxV51LP01u45MhQq3A5KY4TZQPyD82bNvXOI4cOJdqbD1x9u9atu65h5kxnVXnpwwMynWfS46KtFe1S4U0IDVLxwX1UXBcceV7y/No+b9/nLweQVL1iZycnqtK83DeHFA5YGt77OgoHM+bW1gZXj6pcqK/PjiTra59LlSxel08CLWGWv0nRK5/nGqmLjH4+8rwSw4JUTN9eKqr3DSo2KNBamX23xTvyt7LSJUeGv+mMj1k8ZlhpIqeUuOoKc3OTi7NdO7KTEs9KsdoGVAomK52cgulCqmEDi1VVeZmqLCvtMiPPZ3hpiVyTqX4xkbpovVVs38B2VzrP6XGwSouObMnrl3rk1tFVc5577rkoe5cAnU8fza8dVlo6JDMx4Q1nbLR1xPeGUx4TQj03SIpzstSCWfXq8UcfUZuf/qHatnmT2rppY5cZeT7P/Ohptf77j6rVyx9Ui+bMVjcPq1DOhFgV3jNAhd9w/UUHEc82hljFzEl2qLIb835TM+6miXp//Iu9a4DOdfTo0dA7am6bnZkY/751I8EOo4yEMy64typyZaj7vrlIvX74t+rcuXPq/HmZ811y5PmdPXNWvf/ee2qLLt+MOyZbBwrPKabnhs9F2xkeal3D6e1vLc3P3drU1JTx8svua+3dA3Se/fv3u+bW163NSU36yPemiGdVC9I/B6tpt9eowwcPqpaWz/SB33/85dgx9cbrr6mNT61XU267RWU64q3T4URru/6+wslIGQuzMv6nbvIkd9OSJSn27gE6z4s7d5YsnF2/Ic+Zety3bFI0WQXkrt3yZY3q4+ZmO8L+59Spk+qFX/5SzZ1Rp1xJCSo6sOfn2+ktnGyrKynx3JDCAW/eMWFsjf7PAuxdBHSOvbt3F+myre+fnvIX37LJ3Uf5uSg7S61Z8ZA6dfKkJ7l+quWzz9S+f3tJ1d4y3nq3iWyfZ+W2Tyf1JOvpFxf9SUVR4fpvL3fn6//sGns3AVduz65dhQtmzXiivbKV5OaotatWqhPHj3tS68eam09bN1PGVJRbLw1E65HTR2/ZpHzye1FO1h9vHTu6acuWLbx5GZ3ni8pWnOOyVrbuUDbxvx98oL7d9C2lr1H/30sDciopr9nl6n83uDD/NXlL1xOrVvW2dxVwZb5qZWttbbVOJ2dNneK5ftOrm3WH0l7dZOR0sn966unqUZXbG2bPKLd3FXBlvmplE389cULt2LZFjSwbqCJ6ff2iazfZZvldXsC/MaPfsZuGVTS++OyzYfbuAjruq1g28Yf//r361n13q3xnmoqTd5vo8RbOKp292pXkZr80f8aMiW+//fYN9i4DOuZyyyarQXciL34fPviqaqifbt0UiQz8+kVl874Wp8v4t6ohZT9tvOvObHuXAR1zOWWTu5HNfvw62z/y8x3bVVX5IJUU6bkb6d1+61GXUD44m+dM+1Nl2cCGvLw87k6i4y6nbKsfWq4++vBDdebMGXX69Cl1+pQeefTjaT59Wn38cbM6+JsDaumCefr6LF3F9L30pwRSoiP+lpee+kJVeVntKrc7bs2aB2PlkengrHLHPbxqVZx76dKYcePGhd05bVrQoV27AvWxr3u/Ta69snlvGsi7/O9ZvMi6g3dg36/Vz3b8RD37k23Woz+PrGjP/+yn6sfPbFbL7lqiBuX3t8rme7NExi5fqysp4bQu268XzJn5yNIFDWsXzp25junY3Dln1iOL58/53sxvTP7OyMGDFo+rGjHzgfvuvm3XrudyW1tbe9rR7H7aK5v3CC+nUWOGDrGubeZOr1M1425WE8eOsR79eSaN94y8Z7J69EiVl55mreZtVzbZH/JSgDM+RhW5Mlv0Keex0RXlH8oj07EZNaTs2Oihg48PLSn4QO/3/xiQ6Tw0bGDRnuGDip8aM3TwXdNqa6u2bt0abke0+2ivbL4jL/SmyodF7Q9odqfxbpv83Ha7fUcK5/1bpnNG9qf9/6FVzwVHROg5fbp+8qZhFb+aPmVy/eLFc+J1RLvPR56+qGzyu3zMJiqwpzUxfXp1q4nWI7f9L3Wt5juyH+RvZB8xnTPWHV+9X7371vulTLpwn5YX3PjWiLKS5VlpCWl2VP3f5axsDGNqvAXMSXGoQlfGH0rzsh+qvqnSacfVv32Zsn1+dNc7hGE6Y6wVzSdz8rP396ykBFWcm/XBzSOH3rtp0w/kXTz+/R0xX6Zs8u/ljp28n5BhOmOsO8A6V7458x7U5RP0ruREpU8p906puXVsXV1dLzu2/umLyiYXsPKtWnK9Jhe0+c5+qiTXpQb2z5a3MjFMh8aTH5eVJ8mV5Ety5nujSgonj/kZqR+OGFTyg5lTpiTYsfVPl3ODRL6PUe4eyUsASxY0qIfcy9TKpgfUigfuZ5gOjeRHciR5klxJviRnvvnz/uxKir9Q4Mp4ta6mpsiOrX/6R2WTc+pIfcTJT0+zvq3q5zt2WN/p8e7v/lP917vvqHff+R3DdGis/OgcSZ4kV5IvyZnkTXLnzaCsdPINaK6khPdvGz160oEDB/z3VLK9ssmjbLQs7bW3TFCvvvKKOn/hgucNhUAnklxJviRnni8CvvigLy8JZDni/3RHdXXjK3v3Ouzo+p/2yua9UyTvrHhwWaM69uc/27sG6HySL8mZ5M17x/vzg77OZW5a0rF50+q+t2fnznw7uv6nvbJ534hcmper1q3+jvXGXeBqkXxJziRvkjvJn2/Z5NvfFs6pf+qlF14otqPrf76obPKu/++uXNHtPs+GrkXyJTmTvF2qbJJPyank1Y6u/7mcsnXHT2qja5F8Sc4oG2XDVUbZKBsMoWyUDYZQNsoGQygbZYMhlI2ywRDKRtlgCGWjbDCEslE2GELZKBsMoWyUDYZQNsoGQygbZYMhlI2ywRDKRtlgCGWjbDCEslE2GELZKBsMoWyUDYZQNsoGQygbZYMhlI2ywRDKRtlgCGWjbDCEslE2GELZKBsMoWyUDYZQNsoGQygbZYMhlI2ywRDKRtlgCGWjbDCEslE2GELZKBsMoWyUDYZQNsoGQygbZYMhlI2ywRDKRtlgCGWjbDCEslE2GELZKBsMoWyUDYZQNsoGQygbZYMhlI2ywRDKRtlgCGWjbDCEslE2GELZKBsMoWyUDYZQNsoGQygbZYMhlI2ywRDKRtlgCGWjbDCEslE2GELZKBsMoWyUDYZQNsoGQygbZYMhlI2ywRDKRtlgCGWjbDCEslE2GELZKBsMoWyUDYZQNsoGQygbZYMhlI2ywRDKRtlgCGWjbDCEslE2GELZKBsMoWyUDYZQNsoGQygbZYMhlI2ywRDKRtlgCGWjbDCEslE2GELZKBsMoWyUDYZQNsoGQygbZYMhlI2ywRDKRtlgCGWjbDCEslE2GELZKBsMoWyUDYZQNsoGQygbZYMhlI2ywRDKRtlgCGWjbDCEslE2GELZKBsMoWz655LcHLV21UrKhqtK8iU5k7x127Lt3b27aOHs+vXtla0oO8s64pw6edLeLUDnk3xJziRv7ZVNcip5taPrf17cubNEb8SGPGfqcd+yJYQGqcSwYJWdnKiWL2tUHzc327sF6HySL8mZ5E1yJ/nzLZvkU3IqebWj63/279/vmltftzYnNekj37JZG2ltcLCadnuNOnzwoGppabF3DdB5Wlo+s/IlOZO8Se4uyqHOpeRTcip5taPrf5qPHg2trbl1TmZi/PtJ9gZ6R44wccG99dKeqRqXLFavHz6szp07p86fP68uXNCjH+Vnhvmy8/fsnFP//tphK1+SM8mb5M43h5JLyafkVPJqR9f/6APLtcNKS4dkJia84YyNVsmRYW1WN8+5c3FOlppd9w21bs1qtXHDk+rHz2xW2zZtVFsZpgOzbfMmtfnpH6rHH31ELZhVb+VLSiV58+ZPRvKYHhOlMhLi3pCcSl7t6Pqnwtzc5OJs147spMSzsqFtjyzWObReyhNCg5VLn1NXFA1Qo4YMViMHD1KVZaUM86WnqrxMDRtYrAqynKpfbJSdL891mm/uHBEhqn9aytlB+f13lBUWJtuR9V9za2uDq0dVLtQbfsR3ZfOO/C53h2L6Bqq4oD7WP0uNjlApUeEM07HR+ZGsScHigvt8fvfbN3dStmT9t4ML8o/Mmjpl4YoVK4LtyPqvXevWXdcwc6azqrz04QGZzjPpcdHWkabtxnt3gOwY2UEMcyUTr8f3Zoh35HfJX7pe8QZkOT+dUFX58GPr1jnfa229zo6s/6ufPLFy/MgRuwuznJ+k6SOPQxfLWsovsTMYpjOmba6svOmR/EkOJY+SSzui3Yfb7Q68e9H80ROqhu8scmW0yHIvR5i2dykZ5qqMzpnkTXIn+ZMcSh7dDQ2BdkS7F6VUwLz6urHjq0ZuqCgpeEtfx32a5YhXyfpC1REerHdEmGf0+TbDXNHYWZJcSb4kZ5I3yZ3kT3IoebSj2T1t3779mo0bn0xvarxncc3YMc8XuJzvOONjjukL2uN6qT8ho49CDHNF482S5EryJTmTvEnuJH+SQzuS3d++fftiG2ZNL6weVTlu6qSJ8yuKChodYUHuhJAgtyMi5H6GuZKxcqTzJLmSfEnOJG+SOzuCX02tra29fvWLX0RH9g2IiwwIiEuK6hvLMFcykiPJk+RK8mVHDQAAAAAAAAAAAAAAAAAAAAAAAAAAAAAAAAAAAAAAAAAAAAAAAAAAAAAAAAAu0qPH/wHuZytPzU9dPAAAAABJRU5ErkJggg==;" vertex="1" parent="1">
                    <mxGeometry x="120" y="160" width="40.18" height="40" as="geometry"/>
                </mxCell>
                <mxCell id="25" value="" style="shape=image;verticalLabelPosition=bottom;labelBackgroundColor=#ffffff;verticalAlign=top;aspect=fixed;imageAspect=0;image=data:image/png,iVBORw0KGgoAAAANSUhEUgAAANsAAADaCAYAAAAv3zflAAAAAXNSR0IArs4c6QAAAARnQU1BAACxjwv8YQUAAAAJcEhZcwAAFxEAABcRAcom8z8AAA/jSURBVHhe7dwLdJTlncdxurrHWCRA7vfL5EYmySQhkdwIIYRLCKBcohIkUgKEawCh4C04NiLQQjmibVWUWkCghdrqaQGFuhakQtFV1uNW12N32x4XLYUCsQoGyLPP/5137JAlFUN4monfzzn/M4nGc+Z9/f3e533fufQAAAAAAAAAAAAAAAAAAAAAAAAAAAAAAAAAAAAAAAAAAAAAAAAAAAAAAAAAgEtTSt2wZ8+eqKi+AbFRAQGxydFBMV1tonv0iIm+/vqYl3fvTtDPN8J+6kDXt2/fvtiGWdMLq0dVjps6aeL8iqKCRkdYkDshJMjtiAi5v6tNQkgfPUH3Vw4a2LRwVv29k6vH3T6irGTwqLKizCfWrAmxNwvoOrZv337Nxo1Ppjc13rO4ZuyY5wtcznec8THHkiPDjjvCQ07IJHXB8T63lMjwv2Y54o8XZmf+cVB+7oHSXNf3J44dM+W7K1dmrd60qade9b5mbyrwz6ODGDCvvm7s+KqRGypKCt4qyHJ+qoOrkiNClCM8WKVEhXkmsgtOVLj13BxhwUqXT7mS4lV2ikNlJsYezUl1HCzOdW2pKi/7pvveewv1dv6rvcmAeW63O/DuRfNHT6gavrPIldEi4U0I6WsFNyki1O9Gr3Ke565HCtgvNkoVZWf+fvzI4Y8vmF0//kePPRbNKod/ium1NSPGV43YVZjl/CQtOsIKaKIeK7RtQtxV51LP01u45MhQq3A5KY4TZQPyD82bNvXOI4cOJdqbD1x9u9atu65h5kxnVXnpwwMynWfS46KtFe1S4U0IDVLxwX1UXBcceV7y/No+b9/nLweQVL1iZycnqtK83DeHFA5YGt77OgoHM+bW1gZXj6pcqK/PjiTra59LlSxel08CLWGWv0nRK5/nGqmLjH4+8rwSw4JUTN9eKqr3DSo2KNBamX23xTvyt7LSJUeGv+mMj1k8ZlhpIqeUuOoKc3OTi7NdO7KTEs9KsdoGVAomK52cgulCqmEDi1VVeZmqLCvtMiPPZ3hpiVyTqX4xkbpovVVs38B2VzrP6XGwSouObMnrl3rk1tFVc5577rkoe5cAnU8fza8dVlo6JDMx4Q1nbLR1xPeGUx4TQj03SIpzstSCWfXq8UcfUZuf/qHatnmT2rppY5cZeT7P/Ohptf77j6rVyx9Ui+bMVjcPq1DOhFgV3jNAhd9w/UUHEc82hljFzEl2qLIb835TM+6miXp//Iu9a4DOdfTo0dA7am6bnZkY/751I8EOo4yEMy64typyZaj7vrlIvX74t+rcuXPq/HmZ811y5PmdPXNWvf/ee2qLLt+MOyZbBwrPKabnhs9F2xkeal3D6e1vLc3P3drU1JTx8svua+3dA3Se/fv3u+bW163NSU36yPemiGdVC9I/B6tpt9eowwcPqpaWz/SB33/85dgx9cbrr6mNT61XU267RWU64q3T4URru/6+wslIGQuzMv6nbvIkd9OSJSn27gE6z4s7d5YsnF2/Ic+Zety3bFI0WQXkrt3yZY3q4+ZmO8L+59Spk+qFX/5SzZ1Rp1xJCSo6sOfn2+ktnGyrKynx3JDCAW/eMWFsjf7PAuxdBHSOvbt3F+myre+fnvIX37LJ3Uf5uSg7S61Z8ZA6dfKkJ7l+quWzz9S+f3tJ1d4y3nq3iWyfZ+W2Tyf1JOvpFxf9SUVR4fpvL3fn6//sGns3AVduz65dhQtmzXiivbKV5OaotatWqhPHj3tS68eam09bN1PGVJRbLw1E65HTR2/ZpHzye1FO1h9vHTu6acuWLbx5GZ3ni8pWnOOyVrbuUDbxvx98oL7d9C2lr1H/30sDciopr9nl6n83uDD/NXlL1xOrVvW2dxVwZb5qZWttbbVOJ2dNneK5ftOrm3WH0l7dZOR0sn966unqUZXbG2bPKLd3FXBlvmplE389cULt2LZFjSwbqCJ6ff2iazfZZvldXsC/MaPfsZuGVTS++OyzYfbuAjruq1g28Yf//r361n13q3xnmoqTd5vo8RbOKp292pXkZr80f8aMiW+//fYN9i4DOuZyyyarQXciL34fPviqaqifbt0UiQz8+kVl874Wp8v4t6ohZT9tvOvObHuXAR1zOWWTu5HNfvw62z/y8x3bVVX5IJUU6bkb6d1+61GXUD44m+dM+1Nl2cCGvLw87k6i4y6nbKsfWq4++vBDdebMGXX69Cl1+pQeefTjaT59Wn38cbM6+JsDaumCefr6LF3F9L30pwRSoiP+lpee+kJVeVntKrc7bs2aB2PlkengrHLHPbxqVZx76dKYcePGhd05bVrQoV27AvWxr3u/Ta69snlvGsi7/O9ZvMi6g3dg36/Vz3b8RD37k23Woz+PrGjP/+yn6sfPbFbL7lqiBuX3t8rme7NExi5fqysp4bQu268XzJn5yNIFDWsXzp25junY3Dln1iOL58/53sxvTP7OyMGDFo+rGjHzgfvuvm3XrudyW1tbe9rR7H7aK5v3CC+nUWOGDrGubeZOr1M1425WE8eOsR79eSaN94y8Z7J69EiVl55mreZtVzbZH/JSgDM+RhW5Mlv0Keex0RXlH8oj07EZNaTs2Oihg48PLSn4QO/3/xiQ6Tw0bGDRnuGDip8aM3TwXdNqa6u2bt0abke0+2ivbL4jL/SmyodF7Q9odqfxbpv83Ha7fUcK5/1bpnNG9qf9/6FVzwVHROg5fbp+8qZhFb+aPmVy/eLFc+J1RLvPR56+qGzyu3zMJiqwpzUxfXp1q4nWI7f9L3Wt5juyH+RvZB8xnTPWHV+9X7371vulTLpwn5YX3PjWiLKS5VlpCWl2VP3f5axsDGNqvAXMSXGoQlfGH0rzsh+qvqnSacfVv32Zsn1+dNc7hGE6Y6wVzSdz8rP396ykBFWcm/XBzSOH3rtp0w/kXTz+/R0xX6Zs8u/ljp28n5BhOmOsO8A6V7458x7U5RP0ruREpU8p906puXVsXV1dLzu2/umLyiYXsPKtWnK9Jhe0+c5+qiTXpQb2z5a3MjFMh8aTH5eVJ8mV5Ety5nujSgonj/kZqR+OGFTyg5lTpiTYsfVPl3ODRL6PUe4eyUsASxY0qIfcy9TKpgfUigfuZ5gOjeRHciR5klxJviRnvvnz/uxKir9Q4Mp4ta6mpsiOrX/6R2WTc+pIfcTJT0+zvq3q5zt2WN/p8e7v/lP917vvqHff+R3DdGis/OgcSZ4kV5IvyZnkTXLnzaCsdPINaK6khPdvGz160oEDB/z3VLK9ssmjbLQs7bW3TFCvvvKKOn/hgucNhUAnklxJviRnni8CvvigLy8JZDni/3RHdXXjK3v3Ouzo+p/2yua9UyTvrHhwWaM69uc/27sG6HySL8mZ5M17x/vzg77OZW5a0rF50+q+t2fnznw7uv6nvbJ534hcmper1q3+jvXGXeBqkXxJziRvkjvJn2/Z5NvfFs6pf+qlF14otqPrf76obPKu/++uXNHtPs+GrkXyJTmTvF2qbJJPyank1Y6u/7mcsnXHT2qja5F8Sc4oG2XDVUbZKBsMoWyUDYZQNsoGQygbZYMhlI2ywRDKRtlgCGWjbDCEslE2GELZKBsMoWyUDYZQNsoGQygbZYMhlI2ywRDKRtlgCGWjbDCEslE2GELZKBsMoWyUDYZQNsoGQygbZYMhlI2ywRDKRtlgCGWjbDCEslE2GELZKBsMoWyUDYZQNsoGQygbZYMhlI2ywRDKRtlgCGWjbDCEslE2GELZKBsMoWyUDYZQNsoGQygbZYMhlI2ywRDKRtlgCGWjbDCEslE2GELZKBsMoWyUDYZQNsoGQygbZYMhlI2ywRDKRtlgCGWjbDCEslE2GELZKBsMoWyUDYZQNsoGQygbZYMhlI2ywRDKRtlgCGWjbDCEslE2GELZKBsMoWyUDYZQNsoGQygbZYMhlI2ywRDKRtlgCGWjbDCEslE2GELZKBsMoWyUDYZQNsoGQygbZYMhlI2ywRDKRtlgCGWjbDCEslE2GELZKBsMoWyUDYZQNsoGQygbZYMhlI2ywRDKRtlgCGWjbDCEslE2GELZKBsMoWyUDYZQNsoGQygbZYMhlI2ywRDKRtlgCGWjbDCEslE2GELZKBsMoWyUDYZQNsoGQygbZYMhlI2ywRDKRtlgCGWjbDCEslE2GELZKBsMoWz655LcHLV21UrKhqtK8iU5k7x127Lt3b27aOHs+vXtla0oO8s64pw6edLeLUDnk3xJziRv7ZVNcip5taPrf17cubNEb8SGPGfqcd+yJYQGqcSwYJWdnKiWL2tUHzc327sF6HySL8mZ5E1yJ/nzLZvkU3IqebWj63/279/vmltftzYnNekj37JZG2ltcLCadnuNOnzwoGppabF3DdB5Wlo+s/IlOZO8Se4uyqHOpeRTcip5taPrf5qPHg2trbl1TmZi/PtJ9gZ6R44wccG99dKeqRqXLFavHz6szp07p86fP68uXNCjH+Vnhvmy8/fsnFP//tphK1+SM8mb5M43h5JLyafkVPJqR9f/6APLtcNKS4dkJia84YyNVsmRYW1WN8+5c3FOlppd9w21bs1qtXHDk+rHz2xW2zZtVFsZpgOzbfMmtfnpH6rHH31ELZhVb+VLSiV58+ZPRvKYHhOlMhLi3pCcSl7t6Pqnwtzc5OJs147spMSzsqFtjyzWObReyhNCg5VLn1NXFA1Qo4YMViMHD1KVZaUM86WnqrxMDRtYrAqynKpfbJSdL891mm/uHBEhqn9aytlB+f13lBUWJtuR9V9za2uDq0dVLtQbfsR3ZfOO/C53h2L6Bqq4oD7WP0uNjlApUeEM07HR+ZGsScHigvt8fvfbN3dStmT9t4ML8o/Mmjpl4YoVK4LtyPqvXevWXdcwc6azqrz04QGZzjPpcdHWkabtxnt3gOwY2UEMcyUTr8f3Zoh35HfJX7pe8QZkOT+dUFX58GPr1jnfa229zo6s/6ufPLFy/MgRuwuznJ+k6SOPQxfLWsovsTMYpjOmba6svOmR/EkOJY+SSzui3Yfb7Q68e9H80ROqhu8scmW0yHIvR5i2dykZ5qqMzpnkTXIn+ZMcSh7dDQ2BdkS7F6VUwLz6urHjq0ZuqCgpeEtfx32a5YhXyfpC1REerHdEmGf0+TbDXNHYWZJcSb4kZ5I3yZ3kT3IoebSj2T1t3779mo0bn0xvarxncc3YMc8XuJzvOONjjukL2uN6qT8ho49CDHNF482S5EryJTmTvEnuJH+SQzuS3d++fftiG2ZNL6weVTlu6qSJ8yuKChodYUHuhJAgtyMi5H6GuZKxcqTzJLmSfEnOJG+SOzuCX02tra29fvWLX0RH9g2IiwwIiEuK6hvLMFcykiPJk+RK8mVHDQAAAAAAAAAAAAAAAAAAAAAAAAAAAAAAAAAAAAAAAAAAAAAAAAAAAAAAAAAu0qPH/wHuZytPzU9dPAAAAABJRU5ErkJggg==;" vertex="1" parent="1">
                    <mxGeometry x="120" y="240" width="40.18" height="40" as="geometry"/>
                </mxCell>
                <mxCell id="26" value="" style="shape=image;verticalLabelPosition=bottom;labelBackgroundColor=#ffffff;verticalAlign=top;aspect=fixed;imageAspect=0;image=data:image/png,iVBORw0KGgoAAAANSUhEUgAAANsAAADaCAYAAAAv3zflAAAAAXNSR0IArs4c6QAAAARnQU1BAACxjwv8YQUAAAAJcEhZcwAAFxEAABcRAcom8z8AAA/jSURBVHhe7dwLdJTlncdxurrHWCRA7vfL5EYmySQhkdwIIYRLCKBcohIkUgKEawCh4C04NiLQQjmibVWUWkCghdrqaQGFuhakQtFV1uNW12N32x4XLYUCsQoGyLPP/5137JAlFUN4monfzzn/M4nGc+Z9/f3e533fufQAAAAAAAAAAAAAAAAAAAAAAAAAAAAAAAAAAAAAAAAAAAAAAAAAAAAAAAAAgEtTSt2wZ8+eqKi+AbFRAQGxydFBMV1tonv0iIm+/vqYl3fvTtDPN8J+6kDXt2/fvtiGWdMLq0dVjps6aeL8iqKCRkdYkDshJMjtiAi5v6tNQkgfPUH3Vw4a2LRwVv29k6vH3T6irGTwqLKizCfWrAmxNwvoOrZv337Nxo1Ppjc13rO4ZuyY5wtcznec8THHkiPDjjvCQ07IJHXB8T63lMjwv2Y54o8XZmf+cVB+7oHSXNf3J44dM+W7K1dmrd60qade9b5mbyrwz6ODGDCvvm7s+KqRGypKCt4qyHJ+qoOrkiNClCM8WKVEhXkmsgtOVLj13BxhwUqXT7mS4lV2ikNlJsYezUl1HCzOdW2pKi/7pvveewv1dv6rvcmAeW63O/DuRfNHT6gavrPIldEi4U0I6WsFNyki1O9Gr3Ke565HCtgvNkoVZWf+fvzI4Y8vmF0//kePPRbNKod/ium1NSPGV43YVZjl/CQtOsIKaKIeK7RtQtxV51LP01u45MhQq3A5KY4TZQPyD82bNvXOI4cOJdqbD1x9u9atu65h5kxnVXnpwwMynWfS46KtFe1S4U0IDVLxwX1UXBcceV7y/No+b9/nLweQVL1iZycnqtK83DeHFA5YGt77OgoHM+bW1gZXj6pcqK/PjiTra59LlSxel08CLWGWv0nRK5/nGqmLjH4+8rwSw4JUTN9eKqr3DSo2KNBamX23xTvyt7LSJUeGv+mMj1k8ZlhpIqeUuOoKc3OTi7NdO7KTEs9KsdoGVAomK52cgulCqmEDi1VVeZmqLCvtMiPPZ3hpiVyTqX4xkbpovVVs38B2VzrP6XGwSouObMnrl3rk1tFVc5577rkoe5cAnU8fza8dVlo6JDMx4Q1nbLR1xPeGUx4TQj03SIpzstSCWfXq8UcfUZuf/qHatnmT2rppY5cZeT7P/Ohptf77j6rVyx9Ui+bMVjcPq1DOhFgV3jNAhd9w/UUHEc82hljFzEl2qLIb835TM+6miXp//Iu9a4DOdfTo0dA7am6bnZkY/751I8EOo4yEMy64typyZaj7vrlIvX74t+rcuXPq/HmZ811y5PmdPXNWvf/ee2qLLt+MOyZbBwrPKabnhs9F2xkeal3D6e1vLc3P3drU1JTx8svua+3dA3Se/fv3u+bW163NSU36yPemiGdVC9I/B6tpt9eowwcPqpaWz/SB33/85dgx9cbrr6mNT61XU267RWU64q3T4URru/6+wslIGQuzMv6nbvIkd9OSJSn27gE6z4s7d5YsnF2/Ic+Zety3bFI0WQXkrt3yZY3q4+ZmO8L+59Spk+qFX/5SzZ1Rp1xJCSo6sOfn2+ktnGyrKynx3JDCAW/eMWFsjf7PAuxdBHSOvbt3F+myre+fnvIX37LJ3Uf5uSg7S61Z8ZA6dfKkJ7l+quWzz9S+f3tJ1d4y3nq3iWyfZ+W2Tyf1JOvpFxf9SUVR4fpvL3fn6//sGns3AVduz65dhQtmzXiivbKV5OaotatWqhPHj3tS68eam09bN1PGVJRbLw1E65HTR2/ZpHzye1FO1h9vHTu6acuWLbx5GZ3ni8pWnOOyVrbuUDbxvx98oL7d9C2lr1H/30sDciopr9nl6n83uDD/NXlL1xOrVvW2dxVwZb5qZWttbbVOJ2dNneK5ftOrm3WH0l7dZOR0sn966unqUZXbG2bPKLd3FXBlvmplE389cULt2LZFjSwbqCJ6ff2iazfZZvldXsC/MaPfsZuGVTS++OyzYfbuAjruq1g28Yf//r361n13q3xnmoqTd5vo8RbOKp292pXkZr80f8aMiW+//fYN9i4DOuZyyyarQXciL34fPviqaqifbt0UiQz8+kVl874Wp8v4t6ohZT9tvOvObHuXAR1zOWWTu5HNfvw62z/y8x3bVVX5IJUU6bkb6d1+61GXUD44m+dM+1Nl2cCGvLw87k6i4y6nbKsfWq4++vBDdebMGXX69Cl1+pQeefTjaT59Wn38cbM6+JsDaumCefr6LF3F9L30pwRSoiP+lpee+kJVeVntKrc7bs2aB2PlkengrHLHPbxqVZx76dKYcePGhd05bVrQoV27AvWxr3u/Ta69snlvGsi7/O9ZvMi6g3dg36/Vz3b8RD37k23Woz+PrGjP/+yn6sfPbFbL7lqiBuX3t8rme7NExi5fqysp4bQu268XzJn5yNIFDWsXzp25junY3Dln1iOL58/53sxvTP7OyMGDFo+rGjHzgfvuvm3XrudyW1tbe9rR7H7aK5v3CC+nUWOGDrGubeZOr1M1425WE8eOsR79eSaN94y8Z7J69EiVl55mreZtVzbZH/JSgDM+RhW5Mlv0Keex0RXlH8oj07EZNaTs2Oihg48PLSn4QO/3/xiQ6Tw0bGDRnuGDip8aM3TwXdNqa6u2bt0abke0+2ivbL4jL/SmyodF7Q9odqfxbpv83Ha7fUcK5/1bpnNG9qf9/6FVzwVHROg5fbp+8qZhFb+aPmVy/eLFc+J1RLvPR56+qGzyu3zMJiqwpzUxfXp1q4nWI7f9L3Wt5juyH+RvZB8xnTPWHV+9X7371vulTLpwn5YX3PjWiLKS5VlpCWl2VP3f5axsDGNqvAXMSXGoQlfGH0rzsh+qvqnSacfVv32Zsn1+dNc7hGE6Y6wVzSdz8rP396ykBFWcm/XBzSOH3rtp0w/kXTz+/R0xX6Zs8u/ljp28n5BhOmOsO8A6V7458x7U5RP0ruREpU8p906puXVsXV1dLzu2/umLyiYXsPKtWnK9Jhe0+c5+qiTXpQb2z5a3MjFMh8aTH5eVJ8mV5Ety5nujSgonj/kZqR+OGFTyg5lTpiTYsfVPl3ODRL6PUe4eyUsASxY0qIfcy9TKpgfUigfuZ5gOjeRHciR5klxJviRnvvnz/uxKir9Q4Mp4ta6mpsiOrX/6R2WTc+pIfcTJT0+zvq3q5zt2WN/p8e7v/lP917vvqHff+R3DdGis/OgcSZ4kV5IvyZnkTXLnzaCsdPINaK6khPdvGz160oEDB/z3VLK9ssmjbLQs7bW3TFCvvvKKOn/hgucNhUAnklxJviRnni8CvvigLy8JZDni/3RHdXXjK3v3Ouzo+p/2yua9UyTvrHhwWaM69uc/27sG6HySL8mZ5M17x/vzg77OZW5a0rF50+q+t2fnznw7uv6nvbJ534hcmper1q3+jvXGXeBqkXxJziRvkjvJn2/Z5NvfFs6pf+qlF14otqPrf76obPKu/++uXNHtPs+GrkXyJTmTvF2qbJJPyank1Y6u/7mcsnXHT2qja5F8Sc4oG2XDVUbZKBsMoWyUDYZQNsoGQygbZYMhlI2ywRDKRtlgCGWjbDCEslE2GELZKBsMoWyUDYZQNsoGQygbZYMhlI2ywRDKRtlgCGWjbDCEslE2GELZKBsMoWyUDYZQNsoGQygbZYMhlI2ywRDKRtlgCGWjbDCEslE2GELZKBsMoWyUDYZQNsoGQygbZYMhlI2ywRDKRtlgCGWjbDCEslE2GELZKBsMoWyUDYZQNsoGQygbZYMhlI2ywRDKRtlgCGWjbDCEslE2GELZKBsMoWyUDYZQNsoGQygbZYMhlI2ywRDKRtlgCGWjbDCEslE2GELZKBsMoWyUDYZQNsoGQygbZYMhlI2ywRDKRtlgCGWjbDCEslE2GELZKBsMoWyUDYZQNsoGQygbZYMhlI2ywRDKRtlgCGWjbDCEslE2GELZKBsMoWyUDYZQNsoGQygbZYMhlI2ywRDKRtlgCGWjbDCEslE2GELZKBsMoWyUDYZQNsoGQygbZYMhlI2ywRDKRtlgCGWjbDCEslE2GELZKBsMoWyUDYZQNsoGQygbZYMhlI2ywRDKRtlgCGWjbDCEslE2GELZKBsMoWyUDYZQNsoGQygbZYMhlI2ywRDKRtlgCGWjbDCEslE2GELZKBsMoWz655LcHLV21UrKhqtK8iU5k7x127Lt3b27aOHs+vXtla0oO8s64pw6edLeLUDnk3xJziRv7ZVNcip5taPrf17cubNEb8SGPGfqcd+yJYQGqcSwYJWdnKiWL2tUHzc327sF6HySL8mZ5E1yJ/nzLZvkU3IqebWj63/279/vmltftzYnNekj37JZG2ltcLCadnuNOnzwoGppabF3DdB5Wlo+s/IlOZO8Se4uyqHOpeRTcip5taPrf5qPHg2trbl1TmZi/PtJ9gZ6R44wccG99dKeqRqXLFavHz6szp07p86fP68uXNCjH+Vnhvmy8/fsnFP//tphK1+SM8mb5M43h5JLyafkVPJqR9f/6APLtcNKS4dkJia84YyNVsmRYW1WN8+5c3FOlppd9w21bs1qtXHDk+rHz2xW2zZtVFsZpgOzbfMmtfnpH6rHH31ELZhVb+VLSiV58+ZPRvKYHhOlMhLi3pCcSl7t6Pqnwtzc5OJs147spMSzsqFtjyzWObReyhNCg5VLn1NXFA1Qo4YMViMHD1KVZaUM86WnqrxMDRtYrAqynKpfbJSdL891mm/uHBEhqn9aytlB+f13lBUWJtuR9V9za2uDq0dVLtQbfsR3ZfOO/C53h2L6Bqq4oD7WP0uNjlApUeEM07HR+ZGsScHigvt8fvfbN3dStmT9t4ML8o/Mmjpl4YoVK4LtyPqvXevWXdcwc6azqrz04QGZzjPpcdHWkabtxnt3gOwY2UEMcyUTr8f3Zoh35HfJX7pe8QZkOT+dUFX58GPr1jnfa229zo6s/6ufPLFy/MgRuwuznJ+k6SOPQxfLWsovsTMYpjOmba6svOmR/EkOJY+SSzui3Yfb7Q68e9H80ROqhu8scmW0yHIvR5i2dykZ5qqMzpnkTXIn+ZMcSh7dDQ2BdkS7F6VUwLz6urHjq0ZuqCgpeEtfx32a5YhXyfpC1REerHdEmGf0+TbDXNHYWZJcSb4kZ5I3yZ3kT3IoebSj2T1t3779mo0bn0xvarxncc3YMc8XuJzvOONjjukL2uN6qT8ho49CDHNF482S5EryJTmTvEnuJH+SQzuS3d++fftiG2ZNL6weVTlu6qSJ8yuKChodYUHuhJAgtyMi5H6GuZKxcqTzJLmSfEnOJG+SOzuCX02tra29fvWLX0RH9g2IiwwIiEuK6hvLMFcykiPJk+RK8mVHDQAAAAAAAAAAAAAAAAAAAAAAAAAAAAAAAAAAAAAAAAAAAAAAAAAAAAAAAAAu0qPH/wHuZytPzU9dPAAAAABJRU5ErkJggg==;" vertex="1" parent="1">
                    <mxGeometry x="120" y="200" width="40.18" height="40" as="geometry"/>
                </mxCell>
                <mxCell id="28" style="edgeStyle=orthogonalEdgeStyle;html=1;fontFamily=Noto Sans JP;fontSource=https%3A%2F%2Ffonts.googleapis.com%2Fcss%3Ffamily%3DNoto%2BSans%2BJP;fontSize=18;endArrow=none;endFill=0;rounded=0;strokeColor=#FFFFFF;exitX=0.5;exitY=1;exitDx=0;exitDy=0;entryX=0;entryY=0.5;entryDx=0;entryDy=0;" edge="1" parent="1" source="14" target="25">
                    <mxGeometry relative="1" as="geometry">
                        <mxPoint x="70.09000000000009" y="90" as="sourcePoint"/>
                        <mxPoint x="90.18" y="350" as="targetPoint"/>
                    </mxGeometry>
                </mxCell>
                <mxCell id="29" style="edgeStyle=orthogonalEdgeStyle;html=1;fontFamily=Noto Sans JP;fontSource=https%3A%2F%2Ffonts.googleapis.com%2Fcss%3Ffamily%3DNoto%2BSans%2BJP;fontSize=18;endArrow=none;endFill=0;rounded=0;strokeColor=#FFFFFF;entryX=0;entryY=0.5;entryDx=0;entryDy=0;" edge="1" parent="1" target="26">
                    <mxGeometry relative="1" as="geometry">
                        <mxPoint x="99.82" y="220" as="sourcePoint"/>
                        <mxPoint x="100.18" y="360" as="targetPoint"/>
                    </mxGeometry>
                </mxCell>
                <mxCell id="30" style="edgeStyle=orthogonalEdgeStyle;html=1;fontFamily=Noto Sans JP;fontSource=https%3A%2F%2Ffonts.googleapis.com%2Fcss%3Ffamily%3DNoto%2BSans%2BJP;fontSize=18;endArrow=none;endFill=0;rounded=0;strokeColor=#FFFFFF;entryX=0;entryY=0.5;entryDx=0;entryDy=0;" edge="1" parent="1" target="24">
                    <mxGeometry relative="1" as="geometry">
                        <mxPoint x="99.82" y="180" as="sourcePoint"/>
                        <mxPoint x="129.99999999999994" y="230" as="targetPoint"/>
                    </mxGeometry>
                </mxCell>
                <mxCell id="31" style="edgeStyle=orthogonalEdgeStyle;html=1;fontFamily=Noto Sans JP;fontSource=https%3A%2F%2Ffonts.googleapis.com%2Fcss%3Ffamily%3DNoto%2BSans%2BJP;fontSize=18;endArrow=none;endFill=0;rounded=0;strokeColor=#FFFFFF;entryX=0;entryY=0.5;entryDx=0;entryDy=0;" edge="1" parent="1" target="23">
                    <mxGeometry relative="1" as="geometry">
                        <mxPoint x="99.82" y="140" as="sourcePoint"/>
                        <mxPoint x="129.99999999999994" y="190" as="targetPoint"/>
                    </mxGeometry>
                </mxCell>
                <mxCell id="32" value="AaaSubSystem.ApplicationCore" style="text;html=1;strokeColor=none;fillColor=none;align=left;verticalAlign=middle;whiteSpace=wrap;rounded=0;fontFamily=Noto Sans JP;fontSource=https%3A%2F%2Ffonts.googleapis.com%2Fcss%3Ffamily%3DNoto%2BSans%2BJP;fontSize=18;fontColor=#FFFFFF;" vertex="1" parent="1">
                    <mxGeometry x="169.82" y="120" width="280" height="40" as="geometry"/>
                </mxCell>
                <mxCell id="33" value="AaaSubSystem.EfInfrastructure" style="text;html=1;strokeColor=none;fillColor=none;align=left;verticalAlign=middle;whiteSpace=wrap;rounded=0;fontFamily=Noto Sans JP;fontSource=https%3A%2F%2Ffonts.googleapis.com%2Fcss%3Ffamily%3DNoto%2BSans%2BJP;fontSize=18;fontColor=#FFFFFF;" vertex="1" parent="1">
                    <mxGeometry x="169.82" y="160" width="280" height="40" as="geometry"/>
                </mxCell>
                <mxCell id="34" value="AaaSubSystem.Web" style="text;html=1;strokeColor=none;fillColor=none;align=left;verticalAlign=middle;whiteSpace=wrap;rounded=0;fontFamily=Noto Sans JP;fontSource=https%3A%2F%2Ffonts.googleapis.com%2Fcss%3Ffamily%3DNoto%2BSans%2BJP;fontSize=18;fontColor=#FFFFFF;" vertex="1" parent="1">
                    <mxGeometry x="169.82" y="200" width="280" height="40" as="geometry"/>
                </mxCell>
                <mxCell id="35" value="AaaSubSystem.Web.Dto" style="text;html=1;strokeColor=none;fillColor=none;align=left;verticalAlign=middle;whiteSpace=wrap;rounded=0;fontFamily=Noto Sans JP;fontSource=https%3A%2F%2Ffonts.googleapis.com%2Fcss%3Ffamily%3DNoto%2BSans%2BJP;fontSize=18;fontColor=#FFFFFF;" vertex="1" parent="1">
                    <mxGeometry x="169.82" y="240" width="280" height="40" as="geometry"/>
                </mxCell>
                <mxCell id="36" value="" style="shape=image;verticalLabelPosition=bottom;labelBackgroundColor=#ffffff;verticalAlign=top;aspect=fixed;imageAspect=0;image=data:image/png,iVBORw0KGgoAAAANSUhEUgAAANsAAADaCAYAAAAv3zflAAAAAXNSR0IArs4c6QAAAARnQU1BAACxjwv8YQUAAAAJcEhZcwAAFxEAABcRAcom8z8AAA/jSURBVHhe7dwLdJTlncdxurrHWCRA7vfL5EYmySQhkdwIIYRLCKBcohIkUgKEawCh4C04NiLQQjmibVWUWkCghdrqaQGFuhakQtFV1uNW12N32x4XLYUCsQoGyLPP/5137JAlFUN4monfzzn/M4nGc+Z9/f3e533fufQAAAAAAAAAAAAAAAAAAAAAAAAAAAAAAAAAAAAAAAAAAAAAAAAAAAAAAAAAgEtTSt2wZ8+eqKi+AbFRAQGxydFBMV1tonv0iIm+/vqYl3fvTtDPN8J+6kDXt2/fvtiGWdMLq0dVjps6aeL8iqKCRkdYkDshJMjtiAi5v6tNQkgfPUH3Vw4a2LRwVv29k6vH3T6irGTwqLKizCfWrAmxNwvoOrZv337Nxo1Ppjc13rO4ZuyY5wtcznec8THHkiPDjjvCQ07IJHXB8T63lMjwv2Y54o8XZmf+cVB+7oHSXNf3J44dM+W7K1dmrd60qade9b5mbyrwz6ODGDCvvm7s+KqRGypKCt4qyHJ+qoOrkiNClCM8WKVEhXkmsgtOVLj13BxhwUqXT7mS4lV2ikNlJsYezUl1HCzOdW2pKi/7pvveewv1dv6rvcmAeW63O/DuRfNHT6gavrPIldEi4U0I6WsFNyki1O9Gr3Ke565HCtgvNkoVZWf+fvzI4Y8vmF0//kePPRbNKod/ium1NSPGV43YVZjl/CQtOsIKaKIeK7RtQtxV51LP01u45MhQq3A5KY4TZQPyD82bNvXOI4cOJdqbD1x9u9atu65h5kxnVXnpwwMynWfS46KtFe1S4U0IDVLxwX1UXBcceV7y/No+b9/nLweQVL1iZycnqtK83DeHFA5YGt77OgoHM+bW1gZXj6pcqK/PjiTra59LlSxel08CLWGWv0nRK5/nGqmLjH4+8rwSw4JUTN9eKqr3DSo2KNBamX23xTvyt7LSJUeGv+mMj1k8ZlhpIqeUuOoKc3OTi7NdO7KTEs9KsdoGVAomK52cgulCqmEDi1VVeZmqLCvtMiPPZ3hpiVyTqX4xkbpovVVs38B2VzrP6XGwSouObMnrl3rk1tFVc5577rkoe5cAnU8fza8dVlo6JDMx4Q1nbLR1xPeGUx4TQj03SIpzstSCWfXq8UcfUZuf/qHatnmT2rppY5cZeT7P/Ohptf77j6rVyx9Ui+bMVjcPq1DOhFgV3jNAhd9w/UUHEc82hljFzEl2qLIb835TM+6miXp//Iu9a4DOdfTo0dA7am6bnZkY/751I8EOo4yEMy64typyZaj7vrlIvX74t+rcuXPq/HmZ811y5PmdPXNWvf/ee2qLLt+MOyZbBwrPKabnhs9F2xkeal3D6e1vLc3P3drU1JTx8svua+3dA3Se/fv3u+bW163NSU36yPemiGdVC9I/B6tpt9eowwcPqpaWz/SB33/85dgx9cbrr6mNT61XU267RWU64q3T4URru/6+wslIGQuzMv6nbvIkd9OSJSn27gE6z4s7d5YsnF2/Ic+Zety3bFI0WQXkrt3yZY3q4+ZmO8L+59Spk+qFX/5SzZ1Rp1xJCSo6sOfn2+ktnGyrKynx3JDCAW/eMWFsjf7PAuxdBHSOvbt3F+myre+fnvIX37LJ3Uf5uSg7S61Z8ZA6dfKkJ7l+quWzz9S+f3tJ1d4y3nq3iWyfZ+W2Tyf1JOvpFxf9SUVR4fpvL3fn6//sGns3AVduz65dhQtmzXiivbKV5OaotatWqhPHj3tS68eam09bN1PGVJRbLw1E65HTR2/ZpHzye1FO1h9vHTu6acuWLbx5GZ3ni8pWnOOyVrbuUDbxvx98oL7d9C2lr1H/30sDciopr9nl6n83uDD/NXlL1xOrVvW2dxVwZb5qZWttbbVOJ2dNneK5ftOrm3WH0l7dZOR0sn966unqUZXbG2bPKLd3FXBlvmplE389cULt2LZFjSwbqCJ6ff2iazfZZvldXsC/MaPfsZuGVTS++OyzYfbuAjruq1g28Yf//r361n13q3xnmoqTd5vo8RbOKp292pXkZr80f8aMiW+//fYN9i4DOuZyyyarQXciL34fPviqaqifbt0UiQz8+kVl874Wp8v4t6ohZT9tvOvObHuXAR1zOWWTu5HNfvw62z/y8x3bVVX5IJUU6bkb6d1+61GXUD44m+dM+1Nl2cCGvLw87k6i4y6nbKsfWq4++vBDdebMGXX69Cl1+pQeefTjaT59Wn38cbM6+JsDaumCefr6LF3F9L30pwRSoiP+lpee+kJVeVntKrc7bs2aB2PlkengrHLHPbxqVZx76dKYcePGhd05bVrQoV27AvWxr3u/Ta69snlvGsi7/O9ZvMi6g3dg36/Vz3b8RD37k23Woz+PrGjP/+yn6sfPbFbL7lqiBuX3t8rme7NExi5fqysp4bQu268XzJn5yNIFDWsXzp25junY3Dln1iOL58/53sxvTP7OyMGDFo+rGjHzgfvuvm3XrudyW1tbe9rR7H7aK5v3CC+nUWOGDrGubeZOr1M1425WE8eOsR79eSaN94y8Z7J69EiVl55mreZtVzbZH/JSgDM+RhW5Mlv0Keex0RXlH8oj07EZNaTs2Oihg48PLSn4QO/3/xiQ6Tw0bGDRnuGDip8aM3TwXdNqa6u2bt0abke0+2ivbL4jL/SmyodF7Q9odqfxbpv83Ha7fUcK5/1bpnNG9qf9/6FVzwVHROg5fbp+8qZhFb+aPmVy/eLFc+J1RLvPR56+qGzyu3zMJiqwpzUxfXp1q4nWI7f9L3Wt5juyH+RvZB8xnTPWHV+9X7371vulTLpwn5YX3PjWiLKS5VlpCWl2VP3f5axsDGNqvAXMSXGoQlfGH0rzsh+qvqnSacfVv32Zsn1+dNc7hGE6Y6wVzSdz8rP396ykBFWcm/XBzSOH3rtp0w/kXTz+/R0xX6Zs8u/ljp28n5BhOmOsO8A6V7458x7U5RP0ruREpU8p906puXVsXV1dLzu2/umLyiYXsPKtWnK9Jhe0+c5+qiTXpQb2z5a3MjFMh8aTH5eVJ8mV5Ety5nujSgonj/kZqR+OGFTyg5lTpiTYsfVPl3ODRL6PUe4eyUsASxY0qIfcy9TKpgfUigfuZ5gOjeRHciR5klxJviRnvvnz/uxKir9Q4Mp4ta6mpsiOrX/6R2WTc+pIfcTJT0+zvq3q5zt2WN/p8e7v/lP917vvqHff+R3DdGis/OgcSZ4kV5IvyZnkTXLnzaCsdPINaK6khPdvGz160oEDB/z3VLK9ssmjbLQs7bW3TFCvvvKKOn/hgucNhUAnklxJviRnni8CvvigLy8JZDni/3RHdXXjK3v3Ouzo+p/2yua9UyTvrHhwWaM69uc/27sG6HySL8mZ5M17x/vzg77OZW5a0rF50+q+t2fnznw7uv6nvbJ534hcmper1q3+jvXGXeBqkXxJziRvkjvJn2/Z5NvfFs6pf+qlF14otqPrf76obPKu/++uXNHtPs+GrkXyJTmTvF2qbJJPyank1Y6u/7mcsnXHT2qja5F8Sc4oG2XDVUbZKBsMoWyUDYZQNsoGQygbZYMhlI2ywRDKRtlgCGWjbDCEslE2GELZKBsMoWyUDYZQNsoGQygbZYMhlI2ywRDKRtlgCGWjbDCEslE2GELZKBsMoWyUDYZQNsoGQygbZYMhlI2ywRDKRtlgCGWjbDCEslE2GELZKBsMoWyUDYZQNsoGQygbZYMhlI2ywRDKRtlgCGWjbDCEslE2GELZKBsMoWyUDYZQNsoGQygbZYMhlI2ywRDKRtlgCGWjbDCEslE2GELZKBsMoWyUDYZQNsoGQygbZYMhlI2ywRDKRtlgCGWjbDCEslE2GELZKBsMoWyUDYZQNsoGQygbZYMhlI2ywRDKRtlgCGWjbDCEslE2GELZKBsMoWyUDYZQNsoGQygbZYMhlI2ywRDKRtlgCGWjbDCEslE2GELZKBsMoWyUDYZQNsoGQygbZYMhlI2ywRDKRtlgCGWjbDCEslE2GELZKBsMoWyUDYZQNsoGQygbZYMhlI2ywRDKRtlgCGWjbDCEslE2GELZKBsMoWyUDYZQNsoGQygbZYMhlI2ywRDKRtlgCGWjbDCEslE2GELZKBsMoWyUDYZQNsoGQygbZYMhlI2ywRDKRtlgCGWjbDCEslE2GELZKBsMoWz655LcHLV21UrKhqtK8iU5k7x127Lt3b27aOHs+vXtla0oO8s64pw6edLeLUDnk3xJziRv7ZVNcip5taPrf17cubNEb8SGPGfqcd+yJYQGqcSwYJWdnKiWL2tUHzc327sF6HySL8mZ5E1yJ/nzLZvkU3IqebWj63/279/vmltftzYnNekj37JZG2ltcLCadnuNOnzwoGppabF3DdB5Wlo+s/IlOZO8Se4uyqHOpeRTcip5taPrf5qPHg2trbl1TmZi/PtJ9gZ6R44wccG99dKeqRqXLFavHz6szp07p86fP68uXNCjH+Vnhvmy8/fsnFP//tphK1+SM8mb5M43h5JLyafkVPJqR9f/6APLtcNKS4dkJia84YyNVsmRYW1WN8+5c3FOlppd9w21bs1qtXHDk+rHz2xW2zZtVFsZpgOzbfMmtfnpH6rHH31ELZhVb+VLSiV58+ZPRvKYHhOlMhLi3pCcSl7t6Pqnwtzc5OJs147spMSzsqFtjyzWObReyhNCg5VLn1NXFA1Qo4YMViMHD1KVZaUM86WnqrxMDRtYrAqynKpfbJSdL891mm/uHBEhqn9aytlB+f13lBUWJtuR9V9za2uDq0dVLtQbfsR3ZfOO/C53h2L6Bqq4oD7WP0uNjlApUeEM07HR+ZGsScHigvt8fvfbN3dStmT9t4ML8o/Mmjpl4YoVK4LtyPqvXevWXdcwc6azqrz04QGZzjPpcdHWkabtxnt3gOwY2UEMcyUTr8f3Zoh35HfJX7pe8QZkOT+dUFX58GPr1jnfa229zo6s/6ufPLFy/MgRuwuznJ+k6SOPQxfLWsovsTMYpjOmba6svOmR/EkOJY+SSzui3Yfb7Q68e9H80ROqhu8scmW0yHIvR5i2dykZ5qqMzpnkTXIn+ZMcSh7dDQ2BdkS7F6VUwLz6urHjq0ZuqCgpeEtfx32a5YhXyfpC1REerHdEmGf0+TbDXNHYWZJcSb4kZ5I3yZ3kT3IoebSj2T1t3779mo0bn0xvarxncc3YMc8XuJzvOONjjukL2uN6qT8ho49CDHNF482S5EryJTmTvEnuJH+SQzuS3d++fftiG2ZNL6weVTlu6qSJ8yuKChodYUHuhJAgtyMi5H6GuZKxcqTzJLmSfEnOJG+SOzuCX02tra29fvWLX0RH9g2IiwwIiEuK6hvLMFcykiPJk+RK8mVHDQAAAAAAAAAAAAAAAAAAAAAAAAAAAAAAAAAAAAAAAAAAAAAAAAAAAAAAAAAu0qPH/wHuZytPzU9dPAAAAABJRU5ErkJggg==;" vertex="1" parent="1">
                    <mxGeometry x="120" y="320" width="40.18" height="40" as="geometry"/>
                </mxCell>
                <mxCell id="37" value="AaaSubSystem.UnitTests" style="text;html=1;strokeColor=none;fillColor=none;align=left;verticalAlign=middle;whiteSpace=wrap;rounded=0;fontFamily=Noto Sans JP;fontSource=https%3A%2F%2Ffonts.googleapis.com%2Fcss%3Ffamily%3DNoto%2BSans%2BJP;fontSize=18;fontColor=#FFFFFF;" vertex="1" parent="1">
                    <mxGeometry x="169.82" y="320" width="280" height="40" as="geometry"/>
                </mxCell>
                <mxCell id="38" value="" style="shape=image;verticalLabelPosition=bottom;labelBackgroundColor=#ffffff;verticalAlign=top;aspect=fixed;imageAspect=0;image=data:image/png,iVBORw0KGgoAAAANSUhEUgAAANsAAADaCAYAAAAv3zflAAAAAXNSR0IArs4c6QAAAARnQU1BAACxjwv8YQUAAAAJcEhZcwAAFxEAABcRAcom8z8AAA/jSURBVHhe7dwLdJTlncdxurrHWCRA7vfL5EYmySQhkdwIIYRLCKBcohIkUgKEawCh4C04NiLQQjmibVWUWkCghdrqaQGFuhakQtFV1uNW12N32x4XLYUCsQoGyLPP/5137JAlFUN4monfzzn/M4nGc+Z9/f3e533fufQAAAAAAAAAAAAAAAAAAAAAAAAAAAAAAAAAAAAAAAAAAAAAAAAAAAAAAAAAgEtTSt2wZ8+eqKi+AbFRAQGxydFBMV1tonv0iIm+/vqYl3fvTtDPN8J+6kDXt2/fvtiGWdMLq0dVjps6aeL8iqKCRkdYkDshJMjtiAi5v6tNQkgfPUH3Vw4a2LRwVv29k6vH3T6irGTwqLKizCfWrAmxNwvoOrZv337Nxo1Ppjc13rO4ZuyY5wtcznec8THHkiPDjjvCQ07IJHXB8T63lMjwv2Y54o8XZmf+cVB+7oHSXNf3J44dM+W7K1dmrd60qade9b5mbyrwz6ODGDCvvm7s+KqRGypKCt4qyHJ+qoOrkiNClCM8WKVEhXkmsgtOVLj13BxhwUqXT7mS4lV2ikNlJsYezUl1HCzOdW2pKi/7pvveewv1dv6rvcmAeW63O/DuRfNHT6gavrPIldEi4U0I6WsFNyki1O9Gr3Ke565HCtgvNkoVZWf+fvzI4Y8vmF0//kePPRbNKod/ium1NSPGV43YVZjl/CQtOsIKaKIeK7RtQtxV51LP01u45MhQq3A5KY4TZQPyD82bNvXOI4cOJdqbD1x9u9atu65h5kxnVXnpwwMynWfS46KtFe1S4U0IDVLxwX1UXBcceV7y/No+b9/nLweQVL1iZycnqtK83DeHFA5YGt77OgoHM+bW1gZXj6pcqK/PjiTra59LlSxel08CLWGWv0nRK5/nGqmLjH4+8rwSw4JUTN9eKqr3DSo2KNBamX23xTvyt7LSJUeGv+mMj1k8ZlhpIqeUuOoKc3OTi7NdO7KTEs9KsdoGVAomK52cgulCqmEDi1VVeZmqLCvtMiPPZ3hpiVyTqX4xkbpovVVs38B2VzrP6XGwSouObMnrl3rk1tFVc5577rkoe5cAnU8fza8dVlo6JDMx4Q1nbLR1xPeGUx4TQj03SIpzstSCWfXq8UcfUZuf/qHatnmT2rppY5cZeT7P/Ohptf77j6rVyx9Ui+bMVjcPq1DOhFgV3jNAhd9w/UUHEc82hljFzEl2qLIb835TM+6miXp//Iu9a4DOdfTo0dA7am6bnZkY/751I8EOo4yEMy64typyZaj7vrlIvX74t+rcuXPq/HmZ811y5PmdPXNWvf/ee2qLLt+MOyZbBwrPKabnhs9F2xkeal3D6e1vLc3P3drU1JTx8svua+3dA3Se/fv3u+bW163NSU36yPemiGdVC9I/B6tpt9eowwcPqpaWz/SB33/85dgx9cbrr6mNT61XU267RWU64q3T4URru/6+wslIGQuzMv6nbvIkd9OSJSn27gE6z4s7d5YsnF2/Ic+Zety3bFI0WQXkrt3yZY3q4+ZmO8L+59Spk+qFX/5SzZ1Rp1xJCSo6sOfn2+ktnGyrKynx3JDCAW/eMWFsjf7PAuxdBHSOvbt3F+myre+fnvIX37LJ3Uf5uSg7S61Z8ZA6dfKkJ7l+quWzz9S+f3tJ1d4y3nq3iWyfZ+W2Tyf1JOvpFxf9SUVR4fpvL3fn6//sGns3AVduz65dhQtmzXiivbKV5OaotatWqhPHj3tS68eam09bN1PGVJRbLw1E65HTR2/ZpHzye1FO1h9vHTu6acuWLbx5GZ3ni8pWnOOyVrbuUDbxvx98oL7d9C2lr1H/30sDciopr9nl6n83uDD/NXlL1xOrVvW2dxVwZb5qZWttbbVOJ2dNneK5ftOrm3WH0l7dZOR0sn966unqUZXbG2bPKLd3FXBlvmplE389cULt2LZFjSwbqCJ6ff2iazfZZvldXsC/MaPfsZuGVTS++OyzYfbuAjruq1g28Yf//r361n13q3xnmoqTd5vo8RbOKp292pXkZr80f8aMiW+//fYN9i4DOuZyyyarQXciL34fPviqaqifbt0UiQz8+kVl874Wp8v4t6ohZT9tvOvObHuXAR1zOWWTu5HNfvw62z/y8x3bVVX5IJUU6bkb6d1+61GXUD44m+dM+1Nl2cCGvLw87k6i4y6nbKsfWq4++vBDdebMGXX69Cl1+pQeefTjaT59Wn38cbM6+JsDaumCefr6LF3F9L30pwRSoiP+lpee+kJVeVntKrc7bs2aB2PlkengrHLHPbxqVZx76dKYcePGhd05bVrQoV27AvWxr3u/Ta69snlvGsi7/O9ZvMi6g3dg36/Vz3b8RD37k23Woz+PrGjP/+yn6sfPbFbL7lqiBuX3t8rme7NExi5fqysp4bQu268XzJn5yNIFDWsXzp25junY3Dln1iOL58/53sxvTP7OyMGDFo+rGjHzgfvuvm3XrudyW1tbe9rR7H7aK5v3CC+nUWOGDrGubeZOr1M1425WE8eOsR79eSaN94y8Z7J69EiVl55mreZtVzbZH/JSgDM+RhW5Mlv0Keex0RXlH8oj07EZNaTs2Oihg48PLSn4QO/3/xiQ6Tw0bGDRnuGDip8aM3TwXdNqa6u2bt0abke0+2ivbL4jL/SmyodF7Q9odqfxbpv83Ha7fUcK5/1bpnNG9qf9/6FVzwVHROg5fbp+8qZhFb+aPmVy/eLFc+J1RLvPR56+qGzyu3zMJiqwpzUxfXp1q4nWI7f9L3Wt5juyH+RvZB8xnTPWHV+9X7371vulTLpwn5YX3PjWiLKS5VlpCWl2VP3f5axsDGNqvAXMSXGoQlfGH0rzsh+qvqnSacfVv32Zsn1+dNc7hGE6Y6wVzSdz8rP396ykBFWcm/XBzSOH3rtp0w/kXTz+/R0xX6Zs8u/ljp28n5BhOmOsO8A6V7458x7U5RP0ruREpU8p906puXVsXV1dLzu2/umLyiYXsPKtWnK9Jhe0+c5+qiTXpQb2z5a3MjFMh8aTH5eVJ8mV5Ety5nujSgonj/kZqR+OGFTyg5lTpiTYsfVPl3ODRL6PUe4eyUsASxY0qIfcy9TKpgfUigfuZ5gOjeRHciR5klxJviRnvvnz/uxKir9Q4Mp4ta6mpsiOrX/6R2WTc+pIfcTJT0+zvq3q5zt2WN/p8e7v/lP917vvqHff+R3DdGis/OgcSZ4kV5IvyZnkTXLnzaCsdPINaK6khPdvGz160oEDB/z3VLK9ssmjbLQs7bW3TFCvvvKKOn/hgucNhUAnklxJviRnni8CvvigLy8JZDni/3RHdXXjK3v3Ouzo+p/2yua9UyTvrHhwWaM69uc/27sG6HySL8mZ5M17x/vzg77OZW5a0rF50+q+t2fnznw7uv6nvbJ534hcmper1q3+jvXGXeBqkXxJziRvkjvJn2/Z5NvfFs6pf+qlF14otqPrf76obPKu/++uXNHtPs+GrkXyJTmTvF2qbJJPyank1Y6u/7mcsnXHT2qja5F8Sc4oG2XDVUbZKBsMoWyUDYZQNsoGQygbZYMhlI2ywRDKRtlgCGWjbDCEslE2GELZKBsMoWyUDYZQNsoGQygbZYMhlI2ywRDKRtlgCGWjbDCEslE2GELZKBsMoWyUDYZQNsoGQygbZYMhlI2ywRDKRtlgCGWjbDCEslE2GELZKBsMoWyUDYZQNsoGQygbZYMhlI2ywRDKRtlgCGWjbDCEslE2GELZKBsMoWyUDYZQNsoGQygbZYMhlI2ywRDKRtlgCGWjbDCEslE2GELZKBsMoWyUDYZQNsoGQygbZYMhlI2ywRDKRtlgCGWjbDCEslE2GELZKBsMoWyUDYZQNsoGQygbZYMhlI2ywRDKRtlgCGWjbDCEslE2GELZKBsMoWyUDYZQNsoGQygbZYMhlI2ywRDKRtlgCGWjbDCEslE2GELZKBsMoWyUDYZQNsoGQygbZYMhlI2ywRDKRtlgCGWjbDCEslE2GELZKBsMoWyUDYZQNsoGQygbZYMhlI2ywRDKRtlgCGWjbDCEslE2GELZKBsMoWyUDYZQNsoGQygbZYMhlI2ywRDKRtlgCGWjbDCEslE2GELZKBsMoWyUDYZQNsoGQygbZYMhlI2ywRDKRtlgCGWjbDCEslE2GELZKBsMoWz655LcHLV21UrKhqtK8iU5k7x127Lt3b27aOHs+vXtla0oO8s64pw6edLeLUDnk3xJziRv7ZVNcip5taPrf17cubNEb8SGPGfqcd+yJYQGqcSwYJWdnKiWL2tUHzc327sF6HySL8mZ5E1yJ/nzLZvkU3IqebWj63/279/vmltftzYnNekj37JZG2ltcLCadnuNOnzwoGppabF3DdB5Wlo+s/IlOZO8Se4uyqHOpeRTcip5taPrf5qPHg2trbl1TmZi/PtJ9gZ6R44wccG99dKeqRqXLFavHz6szp07p86fP68uXNCjH+Vnhvmy8/fsnFP//tphK1+SM8mb5M43h5JLyafkVPJqR9f/6APLtcNKS4dkJia84YyNVsmRYW1WN8+5c3FOlppd9w21bs1qtXHDk+rHz2xW2zZtVFsZpgOzbfMmtfnpH6rHH31ELZhVb+VLSiV58+ZPRvKYHhOlMhLi3pCcSl7t6Pqnwtzc5OJs147spMSzsqFtjyzWObReyhNCg5VLn1NXFA1Qo4YMViMHD1KVZaUM86WnqrxMDRtYrAqynKpfbJSdL891mm/uHBEhqn9aytlB+f13lBUWJtuR9V9za2uDq0dVLtQbfsR3ZfOO/C53h2L6Bqq4oD7WP0uNjlApUeEM07HR+ZGsScHigvt8fvfbN3dStmT9t4ML8o/Mmjpl4YoVK4LtyPqvXevWXdcwc6azqrz04QGZzjPpcdHWkabtxnt3gOwY2UEMcyUTr8f3Zoh35HfJX7pe8QZkOT+dUFX58GPr1jnfa229zo6s/6ufPLFy/MgRuwuznJ+k6SOPQxfLWsovsTMYpjOmba6svOmR/EkOJY+SSzui3Yfb7Q68e9H80ROqhu8scmW0yHIvR5i2dykZ5qqMzpnkTXIn+ZMcSh7dDQ2BdkS7F6VUwLz6urHjq0ZuqCgpeEtfx32a5YhXyfpC1REerHdEmGf0+TbDXNHYWZJcSb4kZ5I3yZ3kT3IoebSj2T1t3779mo0bn0xvarxncc3YMc8XuJzvOONjjukL2uN6qT8ho49CDHNF482S5EryJTmTvEnuJH+SQzuS3d++fftiG2ZNL6weVTlu6qSJ8yuKChodYUHuhJAgtyMi5H6GuZKxcqTzJLmSfEnOJG+SOzuCX02tra29fvWLX0RH9g2IiwwIiEuK6hvLMFcykiPJk+RK8mVHDQAAAAAAAAAAAAAAAAAAAAAAAAAAAAAAAAAAAAAAAAAAAAAAAAAAAAAAAAAu0qPH/wHuZytPzU9dPAAAAABJRU5ErkJggg==;" vertex="1" parent="1">
                    <mxGeometry x="120" y="360" width="40.18" height="40" as="geometry"/>
                </mxCell>
                <mxCell id="39" value="AaaSubSystem.IntegrationTests" style="text;html=1;strokeColor=none;fillColor=none;align=left;verticalAlign=middle;whiteSpace=wrap;rounded=0;fontFamily=Noto Sans JP;fontSource=https%3A%2F%2Ffonts.googleapis.com%2Fcss%3Ffamily%3DNoto%2BSans%2BJP;fontSize=18;fontColor=#FFFFFF;" vertex="1" parent="1">
                    <mxGeometry x="169.82" y="360" width="280" height="40" as="geometry"/>
                </mxCell>
                <mxCell id="44" style="edgeStyle=orthogonalEdgeStyle;html=1;fontFamily=Noto Sans JP;fontSource=https%3A%2F%2Ffonts.googleapis.com%2Fcss%3Ffamily%3DNoto%2BSans%2BJP;fontSize=18;endArrow=none;endFill=0;rounded=0;strokeColor=#FFFFFF;entryX=0;entryY=0.5;entryDx=0;entryDy=0;" edge="1" parent="1" target="36">
                    <mxGeometry relative="1" as="geometry">
                        <mxPoint x="99.82" y="340" as="sourcePoint"/>
                        <mxPoint x="129.99999999999994" y="430" as="targetPoint"/>
                    </mxGeometry>
                </mxCell>
                <mxCell id="45" style="edgeStyle=orthogonalEdgeStyle;html=1;fontFamily=Noto Sans JP;fontSource=https%3A%2F%2Ffonts.googleapis.com%2Fcss%3Ffamily%3DNoto%2BSans%2BJP;fontSize=18;endArrow=none;endFill=0;rounded=0;strokeColor=#FFFFFF;entryX=0;entryY=0.5;entryDx=0;entryDy=0;exitX=0.5;exitY=1;exitDx=0;exitDy=0;" edge="1" parent="1" source="17" target="38">
                    <mxGeometry relative="1" as="geometry">
                        <mxPoint x="99.82" y="380" as="sourcePoint"/>
                        <mxPoint x="129.99999999999994" y="350" as="targetPoint"/>
                    </mxGeometry>
                </mxCell>
                <mxCell id="47" value="" style="shape=image;verticalLabelPosition=bottom;labelBackgroundColor=#ffffff;verticalAlign=top;aspect=fixed;imageAspect=0;image=data:image/png,iVBORw0KGgoAAAANSUhEUgAAAaQAAAEYCAYAAAATRII7AAAAAXNSR0IArs4c6QAAAARnQU1BAACxjwv8YQUAAAAJcEhZcwAAFiUAABYlAUlSJPAAAE1DSURBVHhe7b0LdBzVme/7tw1+4mBjDhDb0BZJgwO0AydwDSs8GuFRsImIR0bkeOQ8xBqNBpg4aMK6a51mOVzmHnqd6wVjljPA0eiMGxh7CG7QZBCJiRFCDOEYh1kJceNz5GmcdtvCAZIh5mFb8ou7v713dderu6vfJen7adVSd/Wuvat27fr+e3/7q6pJ99xzz2dgGIZhmDoz6fbbb2dBYhiGYerOpOuuu44FiWEYhqk7k/V/hmEYhqkrZY2QJk+ejBUrVmDatGl6TXmMjo7iZz/7GU6dOqXXMAzDMBOFsgTp61//Otra2vS3yrBlyxa88MIL+hvDMAwzUShLkFatWoXbbrsNd999t15THo8++iieffZZPPfcc3oNwzAMM1HgOSSGYRiPLI++jJdfpiWK5XpddbkYdz71MqK1KazusCAxDMN4YXkUqw/chZtuugk3PQSsvvNi/UM1ICF6CndevAePP70TS1ffKdaUycV34ikhpn4Wt4q47CoJuevIbVctqIdz78Jncde3H8cevU5CJ+uxa7Djrm/jccsPtWA5oi/fi6XvuuwXU3UuvvMpPHbNDq57Jj9CkJ5a9CS+TQbC/LlkClz3ooyXVx8Qvw2g8an7gAfLtE2U373AQzdFsE2vyg+J4mO4bfgh3BTxtkW5lCVI119/PZYuXYp3331XrymPhQsX4s0338Qrr7yi1+TCW0W5iY8/BYnQjVN+3oln73pS7EdldkQa3NuGi2iI7sh8zn/avc5l/d2GBTtr1XjN9WXwrqi34s9f8YJUubL9St5zbUO1L9iO315H+evHvY0Wl4cb8nq3nii8++xdLkLidk7zsTO7r0bbl+tzkWvfzeXar3uycxUQIo1bXWQxHU+G0u1sqZTlsps0aRKmT5+Ovr6+iiwvvfQSDh06pHPPhxrGinGsGNLqVbkY3ld2JdWGbYiQK+Cmh0TTWIrzL7TvtTGE11+LYd+wuByW4l4xXH8qZwZ0YZSYv+DixmuwQHRM3vVyTsqFenriIl4oDIt0n+jlrmeHdYIqUtOy6Zz4fP5AGOP77GJEBtpRR/mM6sVovGaBEIonswax6DxsyPP0Mq57TWx317Oi/ZMgUB4PYfi2x1zmgIzrL/dy17PU8SbDTd/txtvI32WR5eci33Uv7Ny3HwTuK/26zCDqc/VS932Ux/XuAfxWJy2WbZG78Cxuw30VuPDrPoc0bcoZCDf8Jb50diMOpN7D7t279S8F2PYknn13AW77Tq6r9WIsWkj1XGo11wvVQB0dkosbcc2CBaLBGt/pgjUmWJ2L2Yjt2RbBt3XDWyAvRpcGfvEiLBR9vEz+RaEMys6nH8QOcU6uaaymIglhXi26eWIkZu/l7nk8UpGeZG7qWbY/Wf4dGhU/bTp2IaJquOTdnSXb9rvYMWCkLyEPM9I1tVAaX2fHnq4vYUDfFR20UpS+DMOdH4/XfYmoDuMOZKo4g7p2y+u4C+F88FkIY2wT+eKpqyCRGN34hU6cO/tCLJl/M5q/FMEFc76sfy3EHgzsEMq+9LoclXAhzpf1XHo1K2hk4m70KxFpQ8NdV4Gwc+H5Qi524jWjwe55XIqMvbejelru7Hn826q3ZjEgCtlgzfkXw/Lv4LYFtK06JwuuaRS1Vi3Uea0P9SzbjyzHdaTP5kaz/DrRz9+Jp4sQEoeolZBHFiFm9y4Vo60Hs/nJa2cYWVNQhIfFxIXKoJRhuLOUfN0L1La5F6fOLsd3bqMOo5tLTbXpsjvuewZEZ3Rp2YEedRMkQ4zOnH6uXgNMmXwaPmf6Xog9AzukK+o6N1WQjfpdlD9AomGz0/Cr4Xv5bIvchId2ipHeY6oxubvUjJ75azY3QQmQkDm7YaqXVCB/KWguvuTlyirJbeU5WXAN3AdJLuLuuHoKpdmG10hxPRgTeeG69IJzracLl1xk2bKdbh0vZcv8n3KLilL5Z8+x81iN35TRUXMLS+/Vv1v2Of++0pyM3AfbSNrIwmrUnB2rXOfaghYOqx4V206dolZ8HiZyiZl9ZLPtNZGqmJGH8rhUinKue9o2Y4seogZpuBHVYj9ty6OiHb37LJ50q1DpGTGPTl1Yeq+l7bhTmc5oVQXpygWrsOyL38fc6efrNYqZp8+xiNEplBhXIVUZWLjIWQUXS3+d2xC1glRo+G40MOlSczuhcthuvWgrSln52wyKPCc5XKliJHXNDvOcgBjNicZuuRg9pNkWoVGgvpjzXyVFcA3ue/k6vJYpV7t1bMbaS9nbSLVcRPniO1ebjCWJ0WO4Dc/iLqNMMXo1ZqJUm1Cj3Z0P6d8NS+Myv/LQTue+YsFteIzmxHUaal9L730KTwkRzIQvG8fpKqD5kdeYxVhm3eRSEDOCl9uYGXWSbXrF52HGTczkfjr4LQ7ksB3uqJFEJa/Bmlz3y6O4l+aOHnQPOMjtyjOx81nRRkwdI5cODLFnn2i9C84XNVU6VRWkL8xbinkzF2DZRX+Fi+ddL9fNOv1sLAv+VUaM3j44gN8Mvyg/F48avTj9zJXwi+ZHDt/tFJjXySw5rizZK3WJVJEujVw9nLIRhvG+MvJ39JLzuFJpLstyrrbhSfvF6CWNWEf+dtk51L039x5mESxYgOGHzBPV1LZIEOxuCA9lu85v2keh2sCZ3Shi9BpxtGU72fP1oCmtEkr7vloN0Z7HnxZpFog/87bafZVzVJsbugasrh51TDRPKSP0pOAZQugmKKpOLMEMRedhxn3e2N3VtodifYT99Gg+K+ZxcVK9616NsCzuSwvKlffujgFH2Vb2Zb1EMkBDBUg5XI6/PSB+WwjPGu9C1V12u959CR988ltcvuDruC5wB24K/iVmnPY5HDt5FP1D3XgjFcdnn1X4YapyTkNcjMWcSemrLRJ7I885r2NbCrlCzOTs4VAP2yZ0cikmdFXkcud9qq5y9KDyoxq8faSY15Vq2+/HxAXhxEsaMsKqPkkcZLBGCb38LFbXk0L1ot2MVv6yXURZT9xn26TKm0YsxWmp9vk7jIjbvprnTQiVxrGtNCTFkseFJYzoXaY2vufxB1UP235zp64TV3eR1zxcsM4bq/10jjLy7L8LcuRVbY+LmQIjG2/k6rAr1Oi0gLvOTsbGqdG7hT37MiP8Uqm6IJ04dQwv7v4Rfv9pGvPPXCzF6I9HDqL31/8N+/7jLZ2qkhhG0r3xSEPi0htRw3r7BZyL4hpzydCIyz5Bm8F9bitfUIMD0ejJ2OfuQRVAuxSka0iLh1z0PRlLbYqk5i30fQ16f6nna8ZLGjvynCplKD301NX9qnrR+chVtl2Una4Rdf4KzyPYkD5/LYLmOqc6s+t21SLC8uMUSy3QNneOM0Ivi9c8CqJFL9fIxtNkvrgO5VSOa1BAFch73VcKPToquQzyFFTm/igzNQlqOHvW+Zgz8/P6G3Cm+Lzo7Mv1t8pSao9fDuuLvIA9NeZSodBVMuwuIcaVQBp+2ehLDK0VGJF55gnVzEJG2jz5b1zUNB+Sa4ToJU0upJuM7FVR5qoAHjsebmWLnqQM5JKKpF1TLq4RY6RF9SVFxstEiSAzr2Rfiq23knET69wjSicuEXqSYvJwxzIvRJ4Pt86p7kwVjsIVHdxyXNrFUuXrXkEeCPKklBrJmAPdWSqHqgvSObMvxNcu/Z78/GryCTEq+rUodBKuXtSKZYv/ElOnzJS/VYRSe/xyeFxMD0i5TaqDdldpsai4gaHel+hRy+MVRq30Rl8gMk9HMeW/J0nnkRcvaYgc52ThIpGDGWUIHbjNoWijVXhS2b1sGdxAbjsdFp/34t8WUfNSjv21oQN57KPPevBboRxW4cg1f+hsK9Jd5GrkvefhRG2b3SflLXHrCHibn6FrkUaeotNVgacQ5KfK130G45hEp/0u+829ZeIIry+eqgvSwjlfwsdH38c///q/IfnBTry8539i7x/+Tf62aN6X0XLFfThrZgX8X9SzUFa2OCNr2q7YNlD+PU4mtFAo14sadVSyh5QJ86XeF/nnRf5ltXlpZPMZaxUinQlG0P5lsyFVo1n9hfCSRpipqEuUjwxthXmORguCzZWm0rlBrjNzvqIcXVfZLL2XLZGivBSrV4v27TCkIi/LaEiPxlwCcazio4MQ7NGJguVR9+inaiGjqmzCoQInrDedZrwWmfpR4uImFIS3PNyRrlJjZC47FM6OAEXvyUs+XwdUXo/GtVhhw22myte9FWq/hhhV3t2mIpvLcxOX9Sy7G264QT7PbudO6tplOXDgAIaHhzFvxiLMnnoO/vfBV3Hy1An9q+LqhlZcNr9Rf8vyqwM/xa/2F/OCPkPxRV0U436ihqDnOkiMXHskhlgVpLxGq57jJQ/A+/OgzPvvAo1+jEMy8i/HPWeHBO7epQWOW9Yf3TGvG79tn2l/HsR91ufIFUxDF5WLqOSou0zdaqheXrtO7Duy51ymofzpKS3mOnW0i+LKJozyzedD4ZKXWzs0t0Hz7y7n33x+M8dk2S91rVBYvaUdyLxKeY6jOgbRCGzHlr0mFbZ24qm8AnnkwXzOrfWerXPn+TAwnZdcdsGOy7lw4hSBzH5W8LpXOOtKXa/iQzFlGefA08NVc7StIilLkL7whS+I3t9q+Uw7MyRQO3bswMjICI4fP67XOnETpeIESTeeoirZdHK8NjiGKRF3YRg/yGvJJO5eKGWbcskY/7zXfGn2xO946jy6UoQgldypsVKWIFUCQ5To5tj9/7ELb6Z/go+Ovqd/ZZixjDJwdANrpUamvqNYQ6R7+MM5RyjMWIREj262Lred112QiMXnXYuDh/bg45Hf6zUMM/ZRvfLyX/vhdybKcTLuyBFYhV4/4QtBYpjxRMY9VObcIsNMNFiQGIZhGF8w6fbbb2dBYhiGYerOpHvuuYcFiWEYhqk7kwKBAAsSwzAMU3dq8iw7hmEYhikECxLDMAzjC1iQGIZhGF/AgsQwDMP4AhYkhmEYxheMmSi7Ky5diC2PfAszZ0zVa9wZ2vs+7l73LPbu/4NewzAMw4wFxowg3XPHDWIJY+dbab3GnUsvOg8joyew+Z/f1GvcOXL0ODbF38CJE6f0GoZhGKaejDlBemTToF7jzlevvBBXLblAf8tP9NGX8PdP/y/9jWEYhqknFROkuXPn4o9//KP+VnkMQfLCr3cP49Wd7+hv7hji9simV/UahmEYpp5UJKhh5cqVWLFihf5WXchll2/p/8WegmLEMAzD+I+yBYnEqLOzU3+rPjt+lcq7vP3vv9MpGYZhmLFEWYJUazFiGIZhxi8lCxKLEcMwDFNJShKkiSlGIUT6k0gms0t/JKR/E79G+pHsjyAUiqBf/t6P7M/ObZM9rfo3hmEYhihakNra2iaoGPWiHTG0BIMI0tISQ0r/mqURGzYAXTLNMkQTYpUUKNu2wQjyB68zDMNMPIoSJBKjNWvW6G8TicVoCACD3VGQxkgSUXRIxTEh0gx0mdIIWte2I5AWYrTMvD6Ojo64/swwDMMQngVp4ooRMYRUGghHzW44N1JIWjSqFU1hID3QZxEphmEYxoknQaI5o4krRkQC0WVBRAYDaO9Vc0Dm+aMM6ZSQLhOhIBrEv5RVpRiGYRgXCgoSPYFh1qxZ2Lx5c94lkRj/RjfeoeeAIoMItPdyYALDMEwFKShI9DigLVu2FFx27dqlt5gAxDvEaEn8bwgirwcv0YcBcvU1sXAxDMMUYsw8XPV737keP+i4UX+rDA/3vIIfPfmv+ls+WtHTA1Mggo66S0UQ1Oso7Lu3ccAWvCCgKLvedgQGs2md+TEMwzBjRpBmzZyGO1qXYsqUSXpNeZw8+Rk2xXfi8JFRvSYfQkCSUVge7WoRmDyCJHFuPxgJgvWIYRgmy5gRJIZhGGZ8U9R9SAzDMAxTLViQGIZhGF/AgsQwDMP4AhYkhmEYxhewIDEMwzC+gAWJYRiG8QUsSAzDMIwvYEFiGIZhfAELEsMwDOMLWJAYhmEYX8CCxDAMw/gCFiSGYRjGF/ju4aoLFy7E8PCw/lYfFi1ahLvvvhtTp07Va8rj2LFjePTRR7Fv3z69hmEYhrHjO0Fqa2vDtGnTsGnTJr2m9tx8881Yvnw5XnnlFb2mPG688UZs27YNL774ol7DMAzD2PGlIK1Zswbd3d34yU9+otfWFkOQ7r//fr2mPB544AEWJIZhmAL4dg6ps7MTK1eu1N+YsQa9sDDZH8n/infGF/C5YvyCbwWJRkd+E6XZ82fjgq9egEXXL8KchjmYpN9ee27oXIRWq8vZ/Lls6PXnySSSPa16RbWhN9uK8ixLPyI1sVT1LNsH1Pxc56a1h+q+R5yR6lPLsiStPab2ZSwTqJ35HN8KkuGy84MokfB8peMruLX7Vlzz/WtwVedVuGXjLZh51kz5+zmXnYMlf7bE8blcQs2NCKTTSIc7q3/ByAs1ioZYC4LBYGZpiaV0gipS07KV8PnA7luo6bmuC/Wud93hiQIRUxujJTKokzB1x9dh3yRKmzdvlqJEc0v1YknbEly04iK88cgbeOb2ZxBvi+On3/spRj8ZRVtfW0aA7J/LGymF0NwYwGB3FwbSATQ2V9NKhRDpDAODESyLJvQ6RSLaAduqClPPsv1CLc91YeIdZKg7ENffq0ltyhJtrD+KcDqGFpey4h3LJkg78z++vw9py5YtcqREgQ6rVq3Sa2vHjHkzcMmfXoK3f/w29r68V68FDu07hBMjJ7Drn3bh/cT7cp398wdvfyA/l0TrWrQHBrE9nkDfQBqBxmZxWVWLxWgI6I81p55l+4SanuuJRyiyQdZvZFkUrDv+xveCRGzduhWHDx+Wo6T58+frtbXh7IvOxuTTJiP9elqvsZJ4OpERoVyfS6G1iUYN22VvLtE3gHSgEe4dZ+r92XziDr9IoTRxbCe3hQd3kfT5u/hdcq0Xv9jmhuzzBd7Klvm7Tryr/PszGzuP1fhNzVeInrL4HI7q3y37nH9fM5P/xnyPXowsVP7u2+bD67nOBh8UqtPi0tpxD3LI14byt6989V58WVlyHqMlrRp9GvXrjSLLz7QH81xU8fXOjAFBmjt3LtavX4/Jkydj3bp1OHjwoP6lNkydqW6OPTl6Uv63Ux2XXSuUjdKXUKJPunLa17o0adG7bhwwz71EMBiOmgy0wEOaeIdYB1FGr/vFVxqN2JBswvZMuS2IpcOI2i5OL2XHSbVcDHUo0ikM3SC6pc+FDEkv2kGuGV1mSwzGTJRyD1FZ5CHUv3foOpZGxTqPFRl07isC7ejdAHTpNC2xtDCy/egXBqwzZWyrj9NhaN0o4lxLvNWpopi0eZB1Y6tXXY+SAu0rb73bMcpKRRz5OYVLQOfDfIzifKfNbTvUDNKjdGpIfS9EseVTHWfag3b9eW1LjANfC5IhRvPmzZNitHv3bv1L7Tjy4RH5n4IV3KiKy661SRpZw0YJKyVdOQg3ORt0vMM29xLHRmEkLW4fL2nEug554YiPdPGJXp1F1EohEEAqYvbZJxBdRoYpjE5L3h7Kjm8UxtRuqO29X+X+G+w2uWYSUXQUnCAQQrahHYF0DF2mtEoo7fuaRqwrm38i2i3SBMSfeVtxnN3iYHKOak0Uc64Jz3UqKCZtHlrXqrppsbi8xDkzRMVT+/JC9jy0WARLlEVCI8THqdPifLSYjlGcb1X11rJTSfP+5aKE8kV7GzC1h+LaEmPHt4LkBzEi3tv1Hg7tP4TLv3W5DPU2oLmlKadPqYLLTjRomuRPp2Du00lXjmjQTa5WSmxjcjH0tourxIGXNHThGD06ca219+boFXrFbGgNhpAS9jbQsFh/z5K/bBdDLXu/wiBtNApRedOIpbjrXglZeqDPZFgIt31NwWrbVBrHtkMpcb4KUcq5LqZOi6t/d9QIzlk3dry1r/zkOg8COXKk02+vFPv5oKqXByhyK5ZKlF9MW2Ls+FaQ/CBGxGcnP8PrD70uPy//2+Uy3PuWR29ByxMtmD5nulxP4rOleYvjc0loF4NyRWQv8GSv6HWJ1fYLQvnnrS4GciOZ8ZLGjhQHpQzYUGqvzmZoFQkkC0Rz5yrbbqhVqPQA+jJXPo0ASNC0+0/Um6dRXiiIBvFPiqC5zqnOqNLNuB5TiRR5riXF1GmJ9W9B102+EUYp7csVD2U5KHQ+EknpsnWtSzuVKL+YtsQ48K0g+UGMDA6lDqHvrj788u9+if079uOdbe9g219vy7jzKok0sqJna79XQi5kpM2T/6EIVMS0+C2PT75gmlxIN5m4uCraqwshSFdsIdzK1u4YZVyUu86tN2uMtKi+pGHwOCeWmd+wL8XWm0eKOtd58VinkmLSeqCc9lUTjKCZHC7QKlHrtjRe8KUgUUSdX8TIgEK8KeybRkB7XtiDD5MfytFTZSkQERTfLsxXoftUdB558ZKGUO4HBw1BkYMZ5dZx4DaHokcFmUn8nLiXLYMbyLjoUGkVzJCDeIeal3Lsr42c7phqUuK5LqZOy6p/TUl147V92chXVrH7bSK+MSZH1tFCHZNKlF+XtjR+8J0gjYyMyIea+kmMaoY0svkavertZSZsXdwR6p4L/YXwkkYISo9LBFBrD4XqmudotCDYXGkqnRvkOjPnK8ohd1Q6hmyW3suWSEMdRmen6OY7jLnIy2J09GgglXSMoqwGQwchmKOzNK09lYqM0nMsxrxYsec6g5c6NSgmbS5E3XSpyDXrSFPXtaf2lSW/oc5TFu33YAQlDTDEyHqZHHG6R8q19vTrkWglyq9FWxq/+E6Q6CZYv4hROByuyOIVeT+KMLf5OmHW8Gcd/UMXkPZVb0CXzX/vJQ1BYamGv1st0QYK87XdxS5GHbSt2UfetF1HyNmhaKWWFDozeQqRERd10HGDoseyJTqCKxBwN+am48zMa1isiKgPwzhRGsPwiOOikGFhwU3bUyj3RrFF5Sn+XGs816mgmLT5IINuhD6b8lI777V95ah3OznKkiHU5bi76PxS2Dts83ViiYZNgQmVKL/GbWk84bvXT/iBxYsXy8cV0b1PleDUqVPyMUhDQxWbDp/Q0A2JvY0DtjDk8U8xxz1R64gZ27AgMWOMVvToHqv92XfjHRYkZrzj2yg7hnHD+mQGhmHGEyxIzJiAevzkh+9tTyFSoydRMwxTW9hlxzAMw/gCHiExDMMwvoAFiWEYhvEFLEgMwzCML2BBYhiGYXwBCxLDMAzjC1iQGIZhGF/AgsQwDMP4AhYkhmEYxhf47sbYhQsXYnh4WH+rD4sWLcLdd9+NqVOn6jXlcezYMTz66KPYt2+fXsMwDMPY8Z0gtbW1Ydq0adi0aZNeU3tuvvlmLF++HK+88opeUx433ngjtm3bhhdffFGvYRiGYez4UpDWrFkjX9dA70aqB4Yg0YsCK8EDDzzAgsQwDFMA384h0fuIVq5cqb8xYw35MFSXt3MypdHao1/0VsE6rUaeDFMOvhUkGh35TZRmz5+NC756ARZdvwhzGuZg0pRJcv25oXMRWq0uafPnsglF0E8GI9fbNSsOvWtIG6nMYrzeudrUs+w60dpjO15jsb7qmoRDvUE3mH3bq9y29PpxzZNh6oxvBclw2flBlEh4vtLxFdzafSuu+f41uKrzKtyy8RbMPGum/P2cy87Bkj9b4vhcLqHmRgTSaaTDndU3zNLA6Vc1k5HSS0sspRNUkZqWrYSvZhpfkDRiLdljVov59RqtoLedpwf6Kiga1cizEPWqd7+dbyYfvg77JlHavHmzFCWaW6oXS9qW4KIVF+GNR97AM7c/g3hbHD/93k8x+sko2vraMgJk/1zeSCmE5sYABru7MJAOoLG5mooUQqRTWKjBiOMtrIloB6r7Lrx6ls0wjJ/w/X1IW7ZskSMlCnRYtWqVXls7ZsybgUv+9BK8/eO3sfflvXotcGjfIZwYOYFd/7QL7yfel+vsnz94+wP5uSRa16I9MIjt8QT6BtIINDZX0c+/GA0B/bHm1LNshmH8hO8Fidi6dSsOHz4sR0nz58/Xa2vD2RedjcmnTUb69bReYyXxdCIjQrk+l0Ir+VQGt0vXTaJvAOlAI9wHSWKE0W+bg3D4JwqliWP7oPjnwTUoJ8Jd/B+51hsuk2zZ1vkRr2XL/F0n31X+/ZmNncdq/CbzSEYhahbhqP7dss/59zUTqGHM7enFyELl775tKai35Kr9DbT3ynyzx+kkG0hiOw7TMebL03l8xhxVaW3MS73nKjNXe3Jf775/+cr1mn/uOiEKtW2mWHwvSHPnzsX69esxefJkrFu3DgcPHtS/1IapM9XNsSdHT8r/dqrjslM+/sHteiYh0Sfddu1rXZq7GEk1DpjnXiIYDEethstDmniHWAdRRq/1giyPRmxINmF7ptwWxNJhRG0Xrpey46RaLqIcinQKgzOIbunbI8PUi3boyXpaWmIwZqLiHfrYxefBiP69Q9exNDjWeazIoHNfhRVH7wagS6dpiaWFsetHvzCInSljW32cUhxKJxFdJvJS+5vW+2V3azqg/TPXuTj+tOlcF85TnLPM8S1TLtOC7aeMepe4lOkVed5sZeuyCpfrFZf989pemKLwtSAZYjRv3jwpRrt379a/1I4jHx6R/ylYwY2quOxam6SRNfRImBHptkO4ydnY4x02gxLHRmEkLS4+L2nEug55UYmPwthQj88iaqUQCCAVMU/QJxBdRgYijE5L3h7Kjm8URt4uymqezRhJGu6/wW5T1Fgiio6CFk4Y1A3tCKRj6DKlVUJp39c0Yl3Z/BPRbpEmIP7M24rj7BYHk3NUa0YLsbmnXVaHgIIkTHUujl/tikeXr6i/AdPxSQq2n1LrXeNWpkda16rz1mKJFBTtqSThyYFj/4ppL0wx+FaQ/CBGxHu73sOh/Ydw+bcul6HeBjS3NOX0KVVw2YnGTpP86RSG9BpCuu1EY29ytVXUQ80atN52cQU58JKGLiqjtyeuQ3LplNXLN4uqwRBSQlsDDYv19yz5y3YR5VAzGgPCAG80ClF504ilOJugDKoz6sxtX1NIWhKpNI5th1LifHnBJcquLGNq3z/aFXkQ4ii94Nxeka/9lFrvBrnKLEStogXt+1dMe2GKwbeC5AcxIj47+Rlef+h1+Xn53y6X4d63PHoLWp5owfQ50+V6Ep8tzVscn0tCGlnxX7pesgYg2St6ZGJ12KZIyk/ei/ZUJGPQyI1kxksaO1IclDJgQ6k9PpuoKhJIFojmzlW2XZRVWPwA+jJWgUZgJGjZUYenUV4oiAbxz5hTyS6izsx2l3A9Jh9R7v65bF+4/ZRY7wal7rM+b6nS1Mw79v0rpr0wReFbQfKDGBkcSh1C3119+OXf/RL7d+zHO9vewba/3pZx51USaWTFyCKiL3zLQkbaPPkfikBFTIvfcvWqvaTJhXSTiQuvoj2+EIJ0NRfCrWztflKirNx1br1jY6RF9SWNhkcXWGaewb5U0v0z1iii/ZRa72MVbi+Vx5eCRBF1fhEjAwrxprBvGgHteWEPPkx+KEdPlcU+J2Ijvl3OV+S/J0nnkRcvaYgcIdkNQZGDGeU6ceA2h6JHgJmAjZy4ly2DG8htp8PiVTBDDuIdal7Ksb82ZNCIc/TJ5KJA+/Fa74Uo1M7KPW9e27Edbi9Vw3eCNDIyIh9q6icxqhnSyOYz1ipEOjOZnEiCvF/mCyMU2WB1G3hJIy7EHpfooNYeCpk1z9FoQbC50lQ6N8iFY85XlEOux3QM2Sy9ly2RohxGZ6cYZjmEW+Rl6ZXr0Vgq6RhFWY2JDkKwRR4SrT2ViprSczBlRt7VHK/tp6R6z423dibOW5eKIrSOxuz74yy3uHZspxbtZWLiO0Gim2D9IkbhcLgii1fkvUeugQBZrOHPcXTosF7Dj70BXTb/vpc0BIWsGr5wtahnndnCcEXvl7Y1+8+btusIOTsU/dSSQmcmT3HBD0Zcnp3msWyJjvAKBNyF23ScmXkPiwtF1AftrJHOMFziuChUWSioaXsK5d5oE71K4xJlJxabPa0jHttPqfWeC6/tLBHFMh2Gni0/iuxFlPt8e27HbtStvYxvfPf6CT+wePFi+bgiuvepEpw6dUo+BmloyNfT4WMGulmxt3HAFurLMMxYhwWJGWOQi0/dkFjwJlGGYcYUvo2yYxg3rE9mYBhmPMGCxIwJ1DPY6IbMFCKW1zMwDDNeYJcdwzAM4wt4hMQwDMP4AhYkhmEYxhewIDEMwzC+gAWJYRiG8QUsSAzDMIwvYEFiGIZhfAGHfefh0ksvxVVXXaW/lc+bb745MR8ayzAM4wEWpDy8+OKLmDFjhv5WPkePHsXNN9+svzEMwzBmfCdICxcuxPDwsP5WX1599VVs3boVzzzzjF5TOt/85jdx++2344YbbtBrGIZhGDO+m0Mig33HHXfobwzDMMxEwZdBDa2trVi5cqX+xjAMw0wEfOeya2trw5o1a+RneocQvbCvXgwMDGDKlCn6W/mcPHkSjY2N+tv4p7UniWgYGIwEYXlXG1M3+Jwwfsa3gkRCRKOkeorS3/zN3+Dw4cP4wx/+IF+yR0yaNEkuxb6876yzzsKsWbPwwx/+UK/xQGsPkmQ9BLUxIOpdQ/Z33KZLfPdQ8cavsuWPFYx6EhVle8uqINMG0oi12N6gG4qgn14Jj0HPT0BnQWL8jG/vQzKEiN7cWi/33VtvvSX34x/+4R8Qi8XksmnTJvmd/v/jP/6jDHqIx+MFlz179uDMM8/UOXtDvdJcEe6MwPr2/gpDhs9FDGpGjcsnw5xM9ggJrD/ytfREQ9BxjkPBBv0pgIbF+qPB4gaxVpBOgd9FzIwHfH1jLInB5s2bpSjRyKnW9Pb24vjsC3DhNx/CpWufx5f/6y9wyV1xXND8Q3zuSzdhZGQEn376KU6cOKG3qCStkHqUHsRgWvwPNKK5aooUQqRTSwH10oPB7NISQ0r9UkVqXL4YWRjF+YKhlBj/CBznOITmRik5knCTVT4NsUoP9PGr3Jlxga8FidiyZYscKZEbb9WqVXpt9Tlt1lm4+M+flEJ09pW3Ydb5SzDy+704o+EqnHf9HQh+5+8R/O7fY9L0M6Vbr+Ki1NokRwvpgY3YLi1yAI1VU6TFaFBdbcQ22vw4iSg6qu4uq3f5dSbRhwGlSNZRUKgZUo/SaSVYlhFUVqxSSZYjZnzge0EiyC1GRp9GSfPnz9drq8fUz/0nXHJnHGcGv4r3XnsSJ48ewuiHw0jF/ys+3fcr4NQJvP/a/8Tngtci9Nc/x9Qzz8ORI0cy80zlY4wY0hjoS2RcOoHGZpNByqLcT+bF6YrKn2YIKW0Q29fmc2KJ/eqnbfsRsfXk3debkC65bPk9lmK8lG+UkUS/vRCaS7EcUzZtZtEFynqQ8y5EGFHLdgY0l2Xa1uW4jPqU2ZqPLXNgtn2wHrCNBJJ6GNgQNBWkXXKD3V1KsCwjKEPEB7E9o+GF99tC3nPCMLXH94I0d+5crF+/XgYRrFu3DgcPHtS/VI9Ay4OY/p8C2Pv0PTj6u92YMmMO3vvFJuCzk/jdv/aIWjsNJ0c+xd4nOjF5+iwsuu2/SzEaHR3VOZRJpmc8AKFHNMkgzI7AxW1Hr/bWcQ8mhKHtz845FU6TQLRbz2OEo5U3TkEhGLYdCEfNZXgpP5vGLsyh5kZpuNOxjYhLo9yLdqU4xSPFzT6XJYSyN4dxbxJG3XxsYv/7I61CjGz7INbnq1O3ToeaQ0wjNWQIlmkEpUfQGNyughmK3e+C54Rhao+vBckQo3nz5kkxqsVz4GY3XIW5lzbh6Ae/xRkXXI7zrv9zOSKaPnchPh/uwOcavoJTxz7F2Vd9E2d+6QaMvp/EmRffIN16x48fx2eflR+0mDGwmbmBOJS9cnfbURRadt6lBTFHb9pDmniHnK+RAxUBGaeCPWyPhNsbMdBilB1ExNAec6CGl/JdhdlwXanRJEJByJmVdAwt5uPVI5B4h/ieKYei0+h3I0JNjGo20OiJItqMbY307qO3sLDpKo8gWmSlit1rj6Id2fIzx2ubA7KQObYGMfYhjDlE1SkxBMvIIzN/lKJwhhL228s5YZga41tBqocYEXMvWy7/zzjvIpx73Z/L/zQiOve6O+R3WiZPPQNT53xefp55/pdl+jmLG+UoiUSpPGwGVhPfqIxooH2txb2UiC7Dsuhik6vGOTrwkkaSiGJZxpAR1MMuv9ecjnVZwpWNY8kaX03B8uPYqJQ0K8z20WQiqYIgAu3ozWwoRldR29yUG0ZeulxVV2IxXHwuUXBqVKZIRLuVqIi9j3VFdWciKyZu22cx3JZhSM0xhDWVVPkYgqXzWCz9dYYIl7LfHs8Jw9QQ3wpSPcSImN1wpZwneuv/XYr//SMVbp5+/m/kd2PZu+Wv5Pp/j/2F/P77N+OYueASua7seaRCxsUwWBo1l5E/XNpLGgtaGCrVa3ZMuhuiIUyuecokQ57yE30D0nAari1jNDnYbQhAHB2GoGn3X8XCu12MtXtAQQrFxxkk0KciG+Q8Uua4MhNEWrDk6FCPnryW42W/C50ThqkBvhWkeogRQdF1BpMmq6c0TPrMKjKnTp6U/yfppzicGvkI089eJD+X67IzDFE+Mq6fTPiy4Xqyul8kXtLkwHuv2Zhg94jR+y9gUF3LNyLSpGE2RpPmiX2BMdLKHCcFLxQhShZ3n3nxdvNpqWTFdi3WOo7LEKwAGpp1/RnzRwbl7LfHc8Iw1cSXgkQRdfUQI2L0w3f1JyEup5TwfDYpfzVNOm0WThz5UH8rh1as1b40upPeYVgyQ4YmZVyNGyPNhikjQBovaURuPaYgCIPWtcaozCA7uW6elwhFOvOOvsJRsxgY8x2CzD55LZ8wghsCaFy7Vo0mbcfWY5p4info+TIvPX9Xd5+CAkOqPuGfKT+MMB2X7YbXhA7Fa2i0jZ5K2O/C54Rhao/vBIluNr3//vvrIkbE6IcpnLHoP+PydTtxyffUI4sCt/5QfjeW4Lcfl+vpP30/55rVGHl/r1xX1rPvjMgpe4/fwJhHEKnkIMm4oTLjmiLXXgNS5tGPlzQEGTPjd70YQViDkWwPOzMfYsqvtzGlbt7NwaDYRIVX02LMX9nuOfJYvkTXQyAcFkbUee9SQ3uvKR9dnjHHRGTcU/aw7zg6MqJvqi+x9LpOupVKNjzbKhZG8IrCccOrcdwBeUCQ8QyS4vfb0zlhmBrjO0Gim2DrJUbEh795Qf4/cuA38l6jkQ/24eSxI/KzsRz/5D/kQp8/3rtDpv/9vz0nxehP/uRPEBaG0r40NCiHSD4yjwrK2Us1JvWF3SFFIteUxfemnmm2XX+TeEljyteKitqyPPMs3pGJJlOI/JZt1AY+B9tdtgman8tWRPkSU3qz0BAZsTFBT39Ylg0yoO0zBtyOLdrPgKIUa/HstyEV2SBxzk8ZgQ8C+3EXu98FzwnD1B5+Y6yNSZNPw5f+8mnMWHCpvM9o+rlfwAXf+H+Q2vp/46M9r2LmuRfhor/4R/zulf+BP779IoLf/Qd8dvIYdv1/YfxfV16B1atX65yc7N27Fxs3btTfmHKgQA0aQY33B68yzESCBcmFaXM+j0u+9zymTJ2O3w1247wb/hzHPvoAe3q+hYbb18snOAy/+DDOvbYdU6bPwv/5H6tx+MAuvTVTdegJA9Kfp0Z7NRi4MAxTA1iQcjDtrIX44prH5DPsDMidd9aXv66/ASN/2IffPt2FT/f/Wq9hqglN0JvnRPgVCgwzvmBBygO57+b955WYd8VKnHnRtXLdqaMf4xMhQB/9nwF8sPPHOHWiQo8LYgpiFiQWI4YZf7AgMQzDML7AtzfGMgzDMBMLFiSGYRjGF7AgMQzDML6ABYlhGIbxBSxIDMMwjC9gQWIYhmF8AQsSwzAM4wtYkBiGYRhf4LsbYxcuXIjh4WH9rT4sWrQId999N6ZOnarXlMexY8fw6KOPYt++fXoNwzAMY8d3gtTW1oZp06Zh06ZNek3tufnmm7F8+XK88sorek153Hjjjdi2bRtefPFFvYZhGIax40tBWrNmDbq7u+W7keqBIUj0osBK8MADD7AgMQzDFMC3c0idnZ1YuXKl/saMNehBqMl+52vJmdrC54EZS/hWkGh05DdRmj1/Ni746gVYdP0izGmYg0lTJsn154bORWi1uuTNn8smFEE/vWLa+p7rKpJ9tXZ26UekJtasnmXXHnrBYPbV6TbofU/i+F1Pu24T/bWoGL0fbkvNmiQzofCtIBkuOz+IEgnPVzq+glu7b8U1378GV3VehVs23oKZZ82Uv59z2TlY8mfqvUnmz+USam5EIJ1GOtxZfcMsjU8UDbEWBIPBzNISy/ty8spQ07KV8NXboMa30yvUw2hy2Y9QUL3uXr6m3s7iBgSQxoDl/eXVRL1G3nxe6FXpDVESJjdB9Uf9MmMTX4d9kyht3rxZihLNLdWLJW1LcNGKi/DGI2/gmdufQbwtjp9+76cY/WQUbX1tGQGyfy5vpBRCc2MAg91dGEgH0NhcTUUKIdIZppcMOV4Hnoh2oLpvCK9n2XUkvh0kSQ1B+3lV510SbnIY/NYmem/7AGqmR24kolgWbEEsHUaU3YFMBfH9fUhbtmyRIyUKdFi1apVeWztmzJuBS/70Erz947ex9+W9ei1waN8hnBg5gV3/tAvvJ96X6+yfP3j7A/m5JFrXoj0wiO3xBPoG0gg0Nlfxwl+MhuyLWGtMPcuuJ0NIpeE8r6FmNAbEqCQm5QpWvQpBDp5SSdRfpxOIdot9DLRjLY+GmArhe0Eitm7disOHD8tR0vz58/Xa2nD2RWdj8mmTkX5dWA8XEk8nMiKU63MpyJ7w4HbQS1ETfQNIBxrhPkgSI4x+m4/f4S8plCYO5UEq7BqUcx8u/phc68Uvtrkhu5vHW9kyf9feuMo/O6fiPFbjNzVvE4WoWYSly0ksln3Ov6+ZAAFjbk8vRhYqf/dtnaiOBgINQpJNSJdcCskojaBsI2MpVtQszK/KLVS/Bl7TFYEe5RmuxcL166WtMhMZ3wvS3LlzsX79ekyePBnr1q3DwYMH9S+1YepMdXPsydGT8r+d6rjsWqH0SBueRJ9027W7dUXFSKpxwDz3EsFgOGqd9PaQJt4h1gkD2N5bSSPRiA3JJmzPlKvdPDZj6KVsOefiIsqhSKcwgIPolr49Mni9aEcMLUaZLTFh3hXxDn3s4jO9Al3+brwHXYqMdR4rMujcVxoR9G4AunSallhaGN9+9AtD25kytvXmzpIdDds8UrYjokdQDSa50vNHqSH93es+ezwPxaP2EQ1BeZyF61ecm1RE74NOK9ohRwEyBr4WJEOM5s2bJ8Vo9+7d+pfaceTDI/I/BSu4URWXXWuTNLLZjrDuTbvMKQgrYJt7iWOjMJIWV5CXNGJdhzASEdnlFUZC9F7LjuQKiL5+pEPkbJBAdBkZrDA6LXl7KDu+URhRuyjr+RY9kjTcf4Pd0axLKxFFR8GJKCFkG9oRSMfQZUqrhNK+r2nEurL5J6LdIk1A/Jm3NdxZuUa1mkRSimU2eEF1RNJScZzn3Dp/VMQ+ez4P1SK7ry2GQEnEeRcdhjS7/RiNbwXJD2JEvLfrPRzafwiXf+tyGeptQHNLU06fUgWXnbh4aZI/nRL9zyxuveksNDLIukF6290mZbykIYOmeq8kDoH23jJ7r2ZRNXDp+Wvyl+0iysZ8y0ajEJU3jViKs7NKyNIDfRmhUbjtawpJSyKVxrHtUEqcr0Jod6UeYSAURIPYyoigs55zLVaZcorZ5+LOQ9EUnNPKta8COfo3izIzkfGtIPlBjIjPTn6G1x96XX5e/rfLZbj3LY/egpYnWjB9znS5nsRnS/MWx+eS0PME0jWkxUMuvaKHKVbbL1zlt7e6QsiNZMZLGjtSHJQyYEOpvWibqCoSSBaI5s5Vtl2UVVi8OeKMev4kaNr9J+rN0yhPCgEVJ0TQXOdUZ1TpZlyPqXTMrkjH8egRlIzE0/uYMtSw7H0ufB4Ko4Um40PMgX3fGSYHvhUkP4iRwaHUIfTd1Ydf/t0vsX/Hfryz7R1s++ttGXdeJZFGSfRoI1o4LAsZafPkfygCFTEtfrO4Qkx4SZML6SYTRq8SvegMOlKsEG5lJ6IgT5gSZeWuc+t1GyMtqi9psD3OiWXmPexLsfVWDDIwIICGxdr9aBltqBEUuVZbdbuwj3RK32eP5yEf0rVcy3uimPGOLwWJIur8IkYGFOJNYd80Atrzwh58mPxQjp4qi31OxIY2XvnvSTLdx5ITL2kI1QN2YLiYMih3kgO3ORTXSDE33MuWIwpy2+mweBXMkIN4h5qXcuyvjbq6jbSbsWmtPF57vagRVAOa1I/ZdlHMPpd1HnJAQQpRIUexrsL3iuXb13L3gxlX+E6QRkZG5ENN/SRGNUMa2XwXZ7bHLO2LY1Kc7MQGq8vGSxohKD0uEVetPRTCa56jMQyk1ZWm0rlBrjNzvqIccj2mY8hm6b1siRTlMDo7RffeIdwiL1uYca77dqzGUQch2KMTBa095UaiGeg5PMecnDE3FhZH5TLXI+eixG80f2RxjRWzz17OQ679cyLD38X2iLU4bmY2cNRvVwxpClixnB+9H4MRVHMQyowdfCdIdBOsX8QoTEaiAotXZBSVm1EyYQ1/1lFKOjKNlg3oss0PeUlDUBiw+t1Yog0UPr3M2gMWow7a1jx30bRdR8jZoaiqlhQ6M3kKkRHGJ7jMFAUn8Vi2REcIBgLuwm06zsy8mcXaifqQrk+dzjCQ4rgoRFxYbtP2FMq90SZ6lUfNjQnc5nr06EL86HSNed1nz+fBjex8nLH0Ng7IsHp3McpRv/LpDjrMO5OXDllnNWI0vnv9hB9YvHixfFwR3ftUCU6dOiUfgzQ0VMnp8IkL9dClUfRkUBmGGSuwIDFjDHLxqZ51LncRwzBjE99G2TGMG9YnMzAMM55gQWLGBHIineYv2lOIBM1PHWAYZrzALjuGYRjGF/AIiWEYhvEFLEgMwzCML2BBYhiGYXwBCxLDMAzjC1iQGIZhGF/AgsQwDMP4AhYkhmEYxhewIDEMwzC+YMzcGHvFpQux5ZFvYeaMqXqNO0N738fd657F3v1/0GsYhmGYscCYEaR77rhBLGHsfMv+2gQrl150HkZGT2DzP7+p17hz5OhxbIq/gRMnTuk1DMMwTD0Zc4L0yCa3F+9k+eqVF+KqJRfob/mJPvoS/v7p/6W/MQzDMPWkYoI0d+5c/PGPf9TfKo8hSF749e5hvLrzHf3NHUPcHtn0ql7DMAzD1JOKBDWsXLkSK1as0N+qC7ns8i39v9hTUIwYhmEY/1G2IJEY0dtVa8WOX6XyLm//++90ykpDL4ZLwngjc2WpZt4MwzBjg7IEqdZixDAMw4xfShYkFiOGYRimkpQkSBNNjFp7kkgmo6CQinCUPovF4l9TLje5Xi49Yo2ZECL95t+T6I+E5C/58869HcMwzHijaEFqa2ubcCOjeEcQwWAEFHA+GKHPYunQL9EORdAvBKUh1qLWiyUyGEY0I0okKr1oRwwt+vdgSwwp+Vu+vPNvxzAMM94oSpBIjNasWaO/MVI0NrQjkI6hK5rQ60hkSGDC6JSjmcVoCAix6Y4ikyIRRYcpvTulbscwDDM28SxILEZuKNFID/RlRUMyhFQaCDQsznwOR/tRnLet1O0YhmHGJp4EieaMWIxcCAXRIP4F2nst8zzJZC/ahVApEoguIzdeAO29xcwDlbodwzDM2KSgINETGGbNmoXNmzfnXRKJietKysz92Bdjnkmg5orEEhlUAubxpqNSt2MYhhlrFBQkehzQli1bCi67du3SW0wgEn0YILdaUxEiEe8Qox7xvyGIosY7pW7HMAwzRhgzD1f93neuxw86btTfKsPDPa/gR0/+q/5WCArtjiI8GLGMfNDag2Q0jHSsBctMAQetPT1ARwfitJ38aGyjo+dS5nzc8vayHcMwzPhhzAjSrJnTcEfrUkyZMkmvKY+TJz/DpvhOHD4yqtd4QIuPxCweFPrd247MtJEgK1BabNRqhV3UCEfe8LYdwzDMOGHMCBLDMAwzvinqPiSGYRiGqRYsSAzDMIwvYEFiGIZhfAELEsMwDOMLWJAYhmEYX8CCxDAMw/gCFiSGYRjGF7AgMQzDML6ABYlhGIbxBSxIDMMwjC9gQWIYhmF8AQsSwzAM4wt893DVhQsXYnh4WH+rD5deeikefvhhzJgxQ68pj6NHj+IHP/gBdu/erdcwDMMwdnwnSG1tbZg2bRo2bdqk19Se7373u2hvb5cvHqwEdEyxWAxPPPGEXsMwDMPY8aUgrVmzBt3d3fjJT36i19YWQ5BWrVql15THc889x4LEMAxTAN/OIXV2dmLlypX6GzPWCEX6keyP8OvWGYbxjG9HSDQ6IkGqx0iJRkc0Stq5c6deUx5Lly6VoyMaJRWF8Sbamr0p1uXttkgj1rIMpreze4IEqbdxAC3LovC2aeXKHjPItwQ3jO9jdKG1J4loeBCRIL3iv/Ko/PUXV8Z5uxrD+HaEZAhRPUZKp59+uvxPQlKJhTDyLIZQcyMC6TTS4U5Eqj3UIOMoBKEh1oJgMJhZWmIpnaCK1LRsEr4kelr11zHLWDiO+uxjvCPbhoLBCAbFurSlbVVCjMZLO/IXvg77JlHavHmzFCUaOdWK/fv346233sI3vvGNiiyUF+VZHCE0NwYw2N2FgXQAjc3VVKQQIp2iSylGYstsV2oi2lHlnmQ9y2bqgRKM6oyOmLGN7+9Dokg3GimRG69SQQaF2Lt3L1566SUZrp1rOXbsmE5dJVrXoj0wiO3xBPoG0gg0NldxPmYxGgL6Y82pZ9kMw/iJMXFj7NatW3H48GE5Spo/f75eWz2SYij+wgsvYHR0NOdy4sQJnbo6tDbRqGG77EUm+gaQDjTCfZAkRhj9SbnPmcXhRyiUJo7t5Nfw4Bok/7wz/9zrDddGtuwescaMt7Jl/q5BEir//szGzmM1fpN56HmqcFT/btnn/PuaCdSguT1TOiMLlb/7tl7JBoPY9sW0n+Ueh8R2DLJM6Trtt5wH5zEbv+dvU/n20T3gxUs7Nm+bu368UaiOSm1HubdjCuN7QZo7dy7Wr1+PyZMnY926dTh48KD+pXpcsPQCrPzRypzLzLNm6pTVohVKj7RTI9En3Xbta10uOjGSahww+8cjGAxHrReBhzTxDvK1izJ6zRdXuTRiQ7IJ2zPltiCWDiNqu/i9lB0n1XIR5VCkUxiGQXRL3x4Zg160I4YWo8yWGIyZKOUqUnMKgxH9uxEsIg2udR4rMujcVwTa0bsB6NJpWmJpYZT60S+MUGfK2FYfp8PoeoTKMNebOIa06XyVfRyUprcdMM+rdDegN2ckgDiPmWPW8y8F2lTefbQj91mct1TEkZ9TuAQF6qcgBeuo1HaUfzumML4WJEOM5s2bJ8WoVk86+Hj4Ywz9bAjHjxzHJwc/wd6BvTh+9Dg+OvCRXH/iaHVHR2J4JI2soUdCkaTbDuEmq3Ek4h22uZc4NgojaXHxeUkj1nWICyhCVxkZgkr07AIBpCLmuYIEosvoQg6j05K3h7LjG4WRt4uymmczRpKG+2+w2xTZl4iio+BElDAkG9oRSMfQZUqrhNK+r2nEurL5J6LdIk1A/Jm3FcfZLQ4m56i2EBQFZqo3cQwqu0JuWy/H4Z6G2giJqyuiTgdMxyzx1Ka8kN2fFotgiTZBQiPEx9kPK7V+CC91VGo7KnU7xsC3glQvMSIOvXsIQ9uEII0IQXr/E7zzyjs4OXISHx0UgiTWHztazfkjccHQJH86hSG9hpBuO3HBNDkuTkJsY3IT9LaLq8KBlzR0YaqeHYlDoL3XvYfqGbOoGgwhJexeoGGx/p4lf9kuohxqRmNAGKeNRiEqbxqx2PUsP8qQpAf6rEbXdV9TSFoSqTSObYdS4nyVir0Myk7uiNjTfHg5jlxpRA0nc/Xlnfuj8Nam8pN7f5RngE65vdGXWj+ElzoqtR2Vuh1j4FtBqpcYeWH27NmYObNKbjtpZMV/6ZbIXuxJuh9JrLZfnMqfbXV32Hu6XtLYkeKglAEbSr26bKKqSCCn3dPkKtsuyiosfgB9GctCIzASNO3+E/XmaZQXCqJB/JMiaK5zqjO7jXU9pgpTahlejkOnSbkrjDsu+1NKm3KlQvvjGU/nusR2VPJ2jIFvBcmvYlRtpJEVI4uIvsgtCxlp8+R/KAIVMS1+y+OfL5gmF9JNJi5el9FM6YQQJItQCLeytWtGibJy17n1rI2RFtWXNDwe58Qy8wH2pdh6qzNVP45y2pRP8FJHpbajUrdjfCpIFFFXbzE645wzMH32dIx+Oiq/Hzt8DHMDczFpyiQZZVcd7HMiNuLb5XxF/nuSdB558ZKGUO4NBw1BkYMZFYThwG0ORY8AMwEbOXEvWwY3kNtOh8WrYIYcxDuk+8+5vzZyuobGGF6OI08aGdlZMl7blI18++y5rRRBKefaazuyU+p2ExjfCdLIyAjuv//+uo+MLv8vl+PksZPYO7hXft/z0h7MPm82go1BeQ/S8ePH5fqKIo1svgtQhUhnJm8TSRnBY764QpENVjeTlzRCUHocYa/klqHQVvMcjRYEmytNpXODXBfmfEU55HpMx5DN0nvZEinKYXR2imGWQ7hFXpbeqB6NpZKOUZTVIOkgBJdIrdYe576Vhp5vKWtOzknxx+GehsKp8z9ux4SnNpXFuo92xP50qSg560hCt5XBCCo7CPNSR6W2I+/bMe74TpDoJth6i1FwWRBnzj8TIx+NYMmqJbhi9RUILA1g9NAovhj+ohQmGiVdffXVuPbaawsuXlE9VLdAgCzW8GcdiUQXs/aFb0CXzZfvJQ1BYa/qd2OJNlD4qu0xKzoay+yDb9quAhEcUORUSwqdmTyFyNBz+RzPt/NYtkRHcwUC7sJtOs7MHIfFoon6oJ010hkGRBwXhegKBTVtT6HcG22i5xfKOA5KI7Y1n8Pehm7lEvaE1zaVYx/tJKJYZoR56/yorciw7Gq4BL3UkWVfimhHBbdj8uG7h6vWmxlzZqDtx22YNmuaXuPkwL8dwPNdz+NrX/saVqxYodfm5tSpU/IxSENDVZ8OnxBQb764B7cynpAPe0XVHnrKMIVgQbJx/T3X45JbL8G/fP9f8PHvPtZrs1zWfBmuvONK/PyHP5fh4EytIRef6j3bn33HlAdFzsmRKQs9Uyd8G2VXLz7/5c/j0w8+xRfCX5CuOvty+mz11O7zQufJ/0xtsT6ZgSkFGmHavWdSjMJpy02/DFNreIRkg+aMrv6Lq3H6zNyvi6CbZZ+/53kcGj6k1zDVRrrp5Kx59d6jM2GQrjl7BAPXK1N/WJAYhmEYX8AuO4ZhGMYXsCAxDMMwvoAFiWEYhvEFLEgMwzCML2BBYhiGYXwBCxLDMAzjC1iQGIZhGF/AgsQwDMP4At/dGLtw4UIMDw/rb/Xh0ksvxcMPP4wZM2boNeVx9OhR/OAHP5hwLxtkGIYpBt8JUltbG6ZNm4ZNmzbpNbXnu9/9Ltrb27Flyxa9pjzomGKxGJ544gm9hmEYhrHjS0Fas2aNfF0DvRupHhiCtGrVKr2mPJ577jkWJIZhmAL4dg6ps7MTK1eu1N+YsQY9DLXSb0dlGGZ849sREo2OSJDqMVKi0RGNknbu3KnXlMfSpUvl6IhGSUURiqBfv8a5Nm+dVO8asj4HOo1Yi9ubW/NT/Ev0Klf2WEE9wTyV8ynbpb6fSL1KIv/Tu1Ua/cWV8V33jD/x7QjJEKJ6jJROP129eoKEpBILYeRZDKHmRgTSaaTDnbC9/r/y0CsJjNdGB4OZpSWW0gmqSE3LJuFLOt4HNL5xHnO8I1vPQXp9uFiXttR/JcRoItY1Uw6+DvsmUdq8ebMUJRo51Yr9+/fjrbfewje+8Y2KLJQX5VkcITQ3BjDY3YWBdACNzdVUpBAinaK7LEZi9rewJqIdVe4l17Ps8YkSG363ETP28P19SBTpRiMlcuNVKsigEHv37sVLL70kw7VzLceOHdOpq0TrWrQHBrE9nkDfQBqBxuYqzscsRgO9+64u1LNshmH8xJi4MXbr1q04fPiwHCXNnz9fr60eyWQSL7zwAkZHR3MuJ06c0KmrQ2sTjRq2y15uom8A6UAj3AdJYoTRn5T7nFkcPpJCaeLYTj4bD65Bmntw5p97veG2yZbdI9aY8Va2zN81SELl35/Z2Hmsxm8yDz1PFY7q3y37nH9fM4EaNLdnSmdkofJ337YSZANFbPtpq3dzQEnhY85HoXNXal3n3o6Z2PhekObOnYv169dj8uTJWLduHQ4ePKh/qR4XLL0AK3+0Mucy86yZOmW1aIXSI+10SfRJt137WhdDIkZSjQNm338Eg+Go9QL3kCbeQfMIooxes+Eol0ZsSDZhe6bcFsTSYURths1L2XFSLRdRDkU6hdEbRLf07ZGh60U7YmgxymyJwZiJUq4sNV8yGNG/G8EiUmSs81iRQee+ItCO3g1Al07TEksLg9uPfmFgO1PGtvo4qxFlSOWb61QcX9p+vk3kPeZ8FKyPUus6/3bMxMbXgmSI0bx586QY1epJBx8Pf4yhnw3h+JHj+OTgJ9g7sBfHjx7HRwc+kutPHK3u6EgMj6SRNfRIKJJ02yHcZOuhCuIdtrmXODYKI2lx8XlJI9Z1COMQkaOVaGV6rYEAUhHzXEYC0WVkpMLotOTtoez4RmHk7aKs5tmMkaTh/hvsNkWlJaLoKDgRJYzkhnYE0jF0mdIqobTvaxqxrmz+iWi3SBMQf+ZtxXF2i4PJOaotB4p+M9WpOD5VVCVdul7qo9S6LnU7ZiLgW0GqlxgRh949hKFtQpBGhCC9/wneeeUdnBw5iY8OCkES648dreb8kTAGNMmfTmFIryGk204YgybXAQT1OrPuj952t0kZL2nI6KheK4lDoL23zHuJzKJqMISU0NZAw2L9PUv+sl1EOdSMxoAw0BuNQlTeNGIpTkuVkUwP9GWNpMRtX1NIWhKpNI5th1LifFUDe/lUlNxJcRSVwkt9lFrXpW7HTAR8K0j1EiMvzJ49GzNnVsltJ42s+C9dM1kBSdL9SGJ12KZIylffi/ZURLk/xEJuJDNe0tiR4qCUARtKtRw2UVUkkCzgn8lVtl2UVVj8APoyVpNGYCRo2v0n6s3TKC8URIP4J0XQXOdUZ3bddj2mGlKL8j3VR4l1XfJ2zETAt4LkVzGqNtLIipFFRAuHZSEjbZ78D0WgIqbFb7nmBbykyYV0kwnD5DKaKZ0QgmTtCuFWtnZPKVFW7jpnLz470qL6kkbV45xYZq7DvhRbbx5JSGVuQDCfPU4lHcdXK7zUR6l1Xep2zPjGl4JEEXX1FqMzzjkD02dPx+ino/L7scPHMDcwF5OmTJJRdtXBPidiI75dzlfkvydJ55EXL2kI5bpx0BAUOZhRQRgO3OZQ9AgwE7CRE/eyZXADue10WLwKZshBvEO6/5z7a0MGjThHn1Un7/m0BbbUklLqw2td2yl1O2Zc4jtBGhkZwf3331/3kdHl/+VynDx2EnsH98rve17ag9nnzUawMSjvQTp+/LhcX1Gkkc1nhFSIdGYCO5GU0UlmwxGKbLC6mbykEcavxyVMubWHwnbNczRkQ2kHrK40lc4NcsuY8xXlkOsxHUM2S+9lS6QRD6OzUwyzHMIt8rL0tPVozGWUYTW2OgjBJVqttce5b6Wh5/As82I6uESMEKwDBEorjt9ST+XjXWC81Eepde19O2bi4TtBoptg6y1GwWVBnDn/TIx8NIIlq5bgitVXILA0gNFDo/hi+ItSmGiUdPXVV+Paa68tuHhF3nvkGgiQxRr+HEeHDvs1/Pwb0GWbH/KShqCQXvW7scjnqNkfISN6tLSteX6habsKRHAgDGpLSwqdmTyFkaXn8jmezeaxbIk24oGAu3CbjjMzb2ZxuYn6oJ010hnGURwXhR8LBTVtT6HcG8UW1SMRXSbdVpl7deTSq8L0i3yGXW5yHHM+vNRHqXVdcDtmouK7h6vWmxlzZqDtx22YNmuaXuPkwL8dwPNdz+NrX/saVqxYodfm5tSpU/IxSENDdZ0OHzcU/+BWhmHGAixINq6/53pccusl+Jfv/ws+/t3Hem2Wy5ovw5V3XImf//DnMhycqTXk4lM3bNqffccwzNiGBcnGN2PfxOkzTse+1/fpNTYmAV9u/TJ+E/8NfrHxF3olUysKvbKBYZixCwuSDZozuvovrsbpM3O/LoJuln3+nudxaPiQXsNUGyVEFImR/z0/DMOMXViQGIZhGF/g2xtjGYZhmIkFCxLDMAzjC1iQGIZhGF/AgsQwDMP4AhYkhmEYxhewIDEMwzC+gAWJYRiG8QUsSAzDMIwvYEFiGIZhfAELEsMwDOMLWJAYhmEYX8CCxDAMw/gA4P8HsXcKiN5ryYIAAAAASUVORK5CYII=;" vertex="1" parent="1">
                    <mxGeometry x="480" y="80" width="420" height="280" as="geometry"/>
                </mxCell>
            </root>
        </mxGraphModel>
    </diagram>
</mxfile>